<svg xmlns="http://www.w3.org/2000/svg" width="120.41" height="110.37" viewBox="0 0 120.41 110.37"><defs><style>.a,.b,.f{fill:none;}.a{stroke:#f6d87f;}.a,.b{stroke-linecap:round;}.a,.b,.c,.d,.e,.f{stroke-linejoin:round;}.a,.b,.c,.d,.e,.f,.g{stroke-width:2px;}.b,.c,.d,.e,.f,.g{stroke:#1d1d1b;}.c{fill:#e5edf0;}.d{fill:#fff;}.e,.g{fill:#f6d87f;}.g{stroke-miterlimit:10;}</style></defs><line class="a" x1="3.49" y1="51.01" x2="3.49" y2="55.99"/><line class="a" x1="5.98" y1="53.5" x2="1" y2="53.5"/><line class="a" x1="116.92" y1="53.95" x2="116.92" y2="58.93"/><line class="a" x1="119.41" y1="56.44" x2="114.43" y2="56.44"/><line class="a" x1="37.93" y1="7.5" x2="37.93" y2="12.48"/><line class="a" x1="40.42" y1="9.99" x2="35.44" y2="9.99"/><line class="b" x1="70.88" y1="3.89" x2="70.94" y2="1.48"/><path class="b" d="M78.13,6.52,81.18,1"/><path class="b" d="M82.78,12.27,85,11.34"/><path class="c" d="M20.29,27.48H98.35a5.4,5.4,0,0,1,5.4,5.4V78.46a5.4,5.4,0,0,1-5.4,5.4H20.29a0,0,0,0,1,0,0V27.48A0,0,0,0,1,20.29,27.48Z"/><path class="b" d="M36,34.27H95.06a2.31,2.31,0,0,1,2.31,2.31V56.44"/><path class="b" d="M43.86,44.69h51.2A2.32,2.32,0,0,1,97.37,47v8.67"/><path class="d" d="M78.48,109.09,20.29,83.86V27.48L80,53.38a5.39,5.39,0,0,1,3.25,5v47.59A3.45,3.45,0,0,1,78.48,109.09Z"/><path class="e" d="M95.6,73.46l-.14,0a30.73,30.73,0,0,1-21.83-1L69.3,70.62a2.46,2.46,0,0,0-3.45,2.26V84.09a3.79,3.79,0,0,0,2.29,3.48l4,1.73a30.8,30.8,0,0,0,23.64.36h0Z"/><circle class="c" cx="87.3" cy="83.18" r="3.52"/><line class="f" x1="73.63" y1="72.49" x2="73.63" y2="89.8"/><path class="e" d="M55.93,34.27a10.86,10.86,0,1,1,17.34,0h6a16.08,16.08,0,1,0-29.38,0Z"/><path class="e" d="M73.27,34.27a10.86,10.86,0,1,0-17.34,0Z"/><line class="b" x1="28.8" y1="40.78" x2="28.8" y2="75.24"/><path class="c" d="M48.81,92.25l-.15,5.31c-.12,4.16-8.76,7.29-19.31,7s-19-3.92-18.89-8.08l.15-5.31"/><line class="g" x1="45.95" y1="96.07" x2="45.8" y2="101.3"/><line class="g" x1="33.09" y1="99.34" x2="32.94" y2="104.57"/><line class="g" x1="20.35" y1="98.23" x2="20.2" y2="103.46"/><ellipse class="c" cx="29.71" cy="91.7" rx="7.54" ry="19.11" transform="translate(-62.8 118.79) rotate(-88.37)"/><path class="c" d="M41.85,87l-.16,5.31c-.11,4.16-8.76,7.29-19.31,7s-19-3.92-18.89-8.08l.15-5.31"/><line class="g" x1="38.98" y1="90.78" x2="38.83" y2="96.01"/><line class="g" x1="26.12" y1="94.05" x2="25.97" y2="99.28"/><line class="c" x1="13.38" y1="92.94" x2="13.23" y2="98.17"/><ellipse class="c" cx="22.74" cy="86.41" rx="7.54" ry="19.11" transform="matrix(0.03, -1, 1, 0.03, -64.28, 106.69)"/><path class="c" d="M48.81,81.67,48.66,87c-.12,4.16-8.76,7.29-19.31,7s-19-3.92-18.89-8.08l.15-5.31"/><line class="g" x1="45.95" y1="85.49" x2="45.8" y2="90.72"/><line class="g" x1="33.09" y1="88.76" x2="32.94" y2="93.99"/><line class="g" x1="20.35" y1="87.65" x2="20.2" y2="92.88"/><ellipse class="c" cx="29.71" cy="81.12" rx="7.54" ry="19.11" transform="translate(-52.22 108.51) rotate(-88.37)"/><ellipse class="c" cx="29.71" cy="81.12" rx="3.07" ry="12.64" transform="translate(-52.22 108.51) rotate(-88.37)"/></svg>