<svg xmlns="http://www.w3.org/2000/svg" width="21" height="21" viewBox="0 0 21 21"><g id="Capa_2" data-name="Capa 2"><g id="Contenido"><path d="M19.12,7.75h-.07a.58.58,0,0,1-.54-.38L18.37,7a.61.61,0,0,1,.17-.68,1.88,1.88,0,0,0,0-2.65L17.31,2.46a1.89,1.89,0,0,0-2.66,0,.55.55,0,0,1-.63.11l-.41-.17a.55.55,0,0,1-.36-.52A1.88,1.88,0,0,0,11.37,0H9.63A1.88,1.88,0,0,0,7.75,1.88a.55.55,0,0,1-.36.52L7,2.57a.56.56,0,0,1-.64-.11,1.88,1.88,0,0,0-2.65,0L2.46,3.69a1.89,1.89,0,0,0,0,2.7A.59.59,0,0,1,2.63,7c0,.12-.1.24-.14.36a.62.62,0,0,1-.61.37A1.88,1.88,0,0,0,0,9.63v1.74a1.88,1.88,0,0,0,1.88,1.88h.17a.57.57,0,0,1,.53.36l.12.27a.58.58,0,0,1-.11.65l-.13.13A1.86,1.86,0,0,0,1.91,16a1.88,1.88,0,0,0,.55,1.33l2,2a.81.81,0,0,0,1.14,0l.93-.93a.55.55,0,0,1,.61-.12l.28.11a.56.56,0,0,1,.34.52v.25A1.88,1.88,0,0,0,9.63,21h1.74a1.88,1.88,0,0,0,1.88-1.88v-.25a.56.56,0,0,1,.34-.52l.28-.11a.56.56,0,0,1,.61.12l.18.18a1.91,1.91,0,0,0,2.65,0l2-2a.76.76,0,0,0,.24-.57.78.78,0,0,0-.24-.57l-.88-.88a.58.58,0,0,1-.11-.65l.12-.27a.57.57,0,0,1,.53-.36h.17A1.88,1.88,0,0,0,21,11.37V9.63A1.88,1.88,0,0,0,19.12,7.75ZM20,11.37a.88.88,0,0,1-.88.88H19a1.57,1.57,0,0,0-1.46,1l-.1.24a1.57,1.57,0,0,0,.31,1.76l.75.75L16.6,17.83a.89.89,0,0,1-1.24,0l-.18-.18a1.54,1.54,0,0,0-1.7-.33l-.25.1a1.55,1.55,0,0,0-1,1.45v.25a.88.88,0,0,1-.88.88H9.63a.88.88,0,0,1-.88-.88v-.25a1.56,1.56,0,0,0-1-1.46l-.24-.09a1.41,1.41,0,0,0-.6-.13,1.58,1.58,0,0,0-1.11.46l-.79.8L3.17,16.6A.84.84,0,0,1,2.91,16a.87.87,0,0,1,.26-.62l.13-.13a1.57,1.57,0,0,0,.31-1.76l-.1-.24a1.57,1.57,0,0,0-1.46-1H1.88A.88.88,0,0,1,1,11.37V9.63a.9.9,0,0,1,1-.88,1.58,1.58,0,0,0,1.47-1c0-.11.08-.21.13-.32a1.59,1.59,0,0,0-.38-1.77.88.88,0,0,1,0-1.24L4.4,3.17a.88.88,0,0,1,1.24,0,1.56,1.56,0,0,0,1.75.32,2.75,2.75,0,0,1,.36-.15,1.57,1.57,0,0,0,1-1.46A.88.88,0,0,1,9.63,1h1.74a.88.88,0,0,1,.88.88,1.56,1.56,0,0,0,1,1.46,2.17,2.17,0,0,1,.35.15,1.57,1.57,0,0,0,1.76-.32.88.88,0,0,1,1.24,0L17.83,4.4a.9.9,0,0,1,0,1.29,1.57,1.57,0,0,0-.33,1.72c.05.11.09.21.13.32a1.58,1.58,0,0,0,1.47,1h.07a.88.88,0,0,1,.88.88Z" style="fill:#969695"/><path d="M10.5,5.26a5.24,5.24,0,1,0,5.24,5.24A5.25,5.25,0,0,0,10.5,5.26Zm0,9.48a4.24,4.24,0,1,1,4.24-4.24A4.24,4.24,0,0,1,10.5,14.74Z" style="fill:#969695"/></g></g></svg>