<svg xmlns="http://www.w3.org/2000/svg" width="17.84" height="17.86" viewBox="0 0 17.84 17.86"><g id="Capa_2" data-name="Capa 2"><g id="Contenido"><path d="M17.84,3.91a2.48,2.48,0,0,0-.73-1.76L15.69.73a2.5,2.5,0,0,0-3.53,0L10.52,2.37,1.91,11,0,17.86l6.85-1.93,8.49-8.48h0l.11-.11.6-.6h0l1.06-1.06A2.49,2.49,0,0,0,17.84,3.91Zm-6.74-.7,1.41,1.41L4.73,12.4,3.32,11ZM1.46,16.39l1.27-4.58L6,15.11Zm5.39-1.87L5.44,13.11l7.78-7.78,1.41,1.41ZM16.4,5,15.34,6,13.57,4.27,11.8,2.5l1.06-1.06a1.5,1.5,0,0,1,2.13,0L16.4,2.85a1.52,1.52,0,0,1,.44,1.06A1.5,1.5,0,0,1,16.4,5Z" style="fill:#ababab"/></g></g></svg>