<svg xmlns="http://www.w3.org/2000/svg" width="17.98" height="15.28" viewBox="0 0 17.98 15.28"><g id="Capa_2" data-name="Capa 2"><g id="Contenido"><path d="M17.63,3,16.08.87C14.78-.94,10.3.16,5.89,3.36S-.95,10.47.35,12.27h0L1.9,14.41a2.54,2.54,0,0,0,2.17.87c2.05,0,5-1.2,8-3.36A19.23,19.23,0,0,0,16.94,7C18,5.32,18.28,3.89,17.63,3Zm-.22,2L16.18,3.33a4,4,0,0,0,.25-1.23l.85,1.16A2.06,2.06,0,0,1,17.41,5ZM6.14,3.71C10.21.76,14.6-.43,15.73,1.12s-1.37,5.35-5.44,8.31S1.83,13.57.71,12h0C-.42,10.47,2.07,6.67,6.14,3.71Zm.24,8.47,1.28,1.76a11.55,11.55,0,0,1-2.78.83L3.63,13A12.08,12.08,0,0,0,6.38,12.18ZM6.79,12a20.09,20.09,0,0,0,2.42-1.32l1.29,1.78a21.57,21.57,0,0,1-2.43,1.31ZM2.26,14.15,1.41,13a3.82,3.82,0,0,0,1.11.15,4.26,4.26,0,0,0,.61,0l1.25,1.72A2.31,2.31,0,0,1,2.26,14.15Zm9.58-2.59c-.32.24-.64.45-1,.66L9.58,10.44c.32-.21.65-.43,1-.66s.84-.64,1.23-1l1.29,1.78Q12.49,11.1,11.84,11.56Zm1.57-1.24L12.12,8.54a20.16,20.16,0,0,0,2-1.94l1.28,1.77A20.07,20.07,0,0,1,13.41,10.32Zm3.16-3.53A13.29,13.29,0,0,1,15.67,8L14.39,6.26A10.66,10.66,0,0,0,16,3.81l1.25,1.72A7,7,0,0,1,16.57,6.79Z" style="fill:#1d1d1b"/><path d="M3.09,11.77c1.67,0,4.4-1.28,6.74-3,3.17-2.3,5.84-5.51,4.84-6.9s-4.89.16-8.06,2.46S.76,9.86,1.77,11.25A1.53,1.53,0,0,0,3.09,11.77ZM6.87,4.71C9.56,2.75,12,1.8,13.33,1.8a1.17,1.17,0,0,1,1,.35c.65.9-1.1,3.64-4.74,6.28S2.78,11.89,2.12,11,3.22,7.35,6.87,4.71Z" style="fill:#1d1d1b"/></g></g></svg>