<svg xmlns="http://www.w3.org/2000/svg" width="17.19" height="14.16" viewBox="0 0 17.19 14.16"><g id="Capa_2" data-name="Capa 2"><g id="Contenido"><path d="M17.12,1.7a7.29,7.29,0,0,1-1.73.49c.28,0,.69-.55.85-.76a2.85,2.85,0,0,0,.58-1s0-.07,0-.09a.09.09,0,0,0-.09,0,8.94,8.94,0,0,1-2.07.79.14.14,0,0,1-.14,0,1,1,0,0,0-.18-.18,3.56,3.56,0,0,0-1-.62A3.47,3.47,0,0,0,11.81,0a3.51,3.51,0,0,0-1.45.41A3.67,3.67,0,0,0,8.48,2.78a3.69,3.69,0,0,0,0,1.48c0,.08,0,.09-.07.08A11,11,0,0,1,1.29.74c-.08-.1-.13-.1-.2,0A3.6,3.6,0,0,0,1.71,5a5.3,5.3,0,0,0,.43.38A3.65,3.65,0,0,1,.77,5c-.08,0-.12,0-.13.07a3,3,0,0,0,0,.41A3.63,3.63,0,0,0,2.9,8.36a2,2,0,0,0,.46.14A4.11,4.11,0,0,1,2,8.54c-.1,0-.14,0-.1.13A3.78,3.78,0,0,0,4.74,11c.13,0,.25,0,.38.05l0,0a4.5,4.5,0,0,1-1.93,1,6.89,6.89,0,0,1-2.92.38c-.16,0-.19,0-.23,0s0,.06,0,.1c.2.13.41.25.61.36a9.43,9.43,0,0,0,2,.78,10.4,10.4,0,0,0,10.1-2.36,10.6,10.6,0,0,0,2.8-7.73c0-.11.13-.18.2-.23A6.88,6.88,0,0,0,17.1,2a.45.45,0,0,0,.09-.28h0C17.19,1.65,17.19,1.67,17.12,1.7Z" style="fill:#1d1d1b"/><path d="M5.1,14.1Z" style="fill:#1d1d1b;fill-rule:evenodd"/><path d="M5.1,14.1Z" style="fill:#1d1d1b;fill-rule:evenodd"/><path d="M5.68,14.11s.31,0,0,0Z" style="fill:#1d1d1b;fill-rule:evenodd"/><path d="M11.76,0s0,0-.07,0Z" style="fill:#1d1d1b;fill-rule:evenodd"/></g></g></svg>