<svg xmlns="http://www.w3.org/2000/svg" width="23" height="13.34" viewBox="0 0 23 13.34"><g id="Capa_2" data-name="Capa 2"><g id="Contenido"><path d="M22.9,6.19C19.86,2.2,15.81,0,11.5,0S3.14,2.2.1,6.19L0,6.33V7l.1.14c3,4,7.09,6.19,11.4,6.19s8.36-2.2,11.4-6.19L23,7V6.33ZM6.44,6.67a5.06,5.06,0,1,1,5.06,5.06A5.07,5.07,0,0,1,6.44,6.67ZM1,6.67H1A14.31,14.31,0,0,1,8.55,1.38,6,6,0,0,0,8.55,12,14.2,14.2,0,0,1,1,6.67Zm21,0A14.2,14.2,0,0,1,14.45,12a6,6,0,0,0,0-10.56A14.24,14.24,0,0,1,22,6.66Z" style="fill:#969695"/><path d="M11.5,4.12a2.55,2.55,0,1,0,2.55,2.55A2.55,2.55,0,0,0,11.5,4.12Zm0,4.1a1.55,1.55,0,1,1,1.55-1.55A1.55,1.55,0,0,1,11.5,8.22Z" style="fill:#969695"/></g></g></svg>