<svg xmlns="http://www.w3.org/2000/svg" width="17.98" height="22.5" viewBox="0 0 17.98 22.5"><g id="Capa_2" data-name="Capa 2"><g id="Header"><path d="M14.73,19.65H3.25a3.18,3.18,0,0,1-3-2A3.16,3.16,0,0,1,1,14.11a2.24,2.24,0,0,0,.65-1.59V7.45A7.38,7.38,0,0,1,8.32,0H9.64a7.38,7.38,0,0,1,6.73,7.45v5.07A2.24,2.24,0,0,0,17,14.11a3.24,3.24,0,0,1-2.29,5.54ZM9.61,1H8.35A6.37,6.37,0,0,0,2.61,7.45v5.07a3.21,3.21,0,0,1-.95,2.3,2.2,2.2,0,0,0-.48,2.44,2.22,2.22,0,0,0,2.07,1.39H14.73a2.25,2.25,0,0,0,1.59-3.83,3.21,3.21,0,0,1-1-2.3V7.45A6.37,6.37,0,0,0,9.61,1Z" style="fill:#969695"/><path d="M9,22.5a2.8,2.8,0,0,1-2.8-2.8h1a1.8,1.8,0,0,0,3.6,0h1A2.8,2.8,0,0,1,9,22.5Z" style="fill:#969695"/></g></g></svg>