<svg xmlns="http://www.w3.org/2000/svg" width="46.91" height="35.2" viewBox="0 0 46.91 35.2"><g id="Capa_2" data-name="Capa 2"><g id="Contenido"><rect x="0.5" y="4.1" width="45.91" height="30.6" rx="4.1" style="fill:#fff"/><rect x="0.5" y="4.1" width="45.91" height="30.6" rx="4.1" style="fill:none;stroke:#1d1d1b;stroke-miterlimit:10"/><rect x="4.14" y="7.81" width="20.8" height="23.18" rx="1.78" style="fill:#f6d87f"/><rect x="4.14" y="7.81" width="20.8" height="23.18" rx="1.78" style="fill:none;stroke:#1d1d1b;stroke-miterlimit:10"/><path d="M21.34,31a6.8,6.8,0,0,0-13.6,0Z" style="fill:#e5edf0"/><path d="M21.34,31a6.8,6.8,0,0,0-13.6,0Z" style="fill:none;stroke:#1d1d1b;stroke-miterlimit:10"/><circle cx="14.54" cy="16.97" r="3.83" style="fill:#e5edf0"/><circle cx="14.54" cy="16.97" r="3.83" style="fill:none;stroke:#1d1d1b;stroke-miterlimit:10"/><rect x="18.35" y="0.5" width="10.2" height="4.56" rx="1.15" style="fill:#e5edf0"/><rect x="18.35" y="0.5" width="10.2" height="4.56" rx="1.15" style="fill:none;stroke:#1d1d1b;stroke-miterlimit:10"/><line x1="30.05" y1="13.43" x2="41.23" y2="13.43" style="fill:none;stroke:#1d1d1b;stroke-linecap:round;stroke-linejoin:round"/><line x1="30.05" y1="17.62" x2="38.23" y2="17.62" style="fill:none;stroke:#1d1d1b;stroke-linecap:round;stroke-linejoin:round"/><line x1="30.05" y1="21.8" x2="41.23" y2="21.8" style="fill:none;stroke:#1d1d1b;stroke-linecap:round;stroke-linejoin:round"/><line x1="30.05" y1="25.99" x2="38.23" y2="25.99" style="fill:none;stroke:#1d1d1b;stroke-linecap:round;stroke-linejoin:round"/></g></g></svg>