<svg xmlns="http://www.w3.org/2000/svg" width="15" height="12.76" viewBox="0 0 15 12.76"><path d="M14.7,2.51,13.41.74C12.87,0,11.66-.2,10,.22A16,16,0,0,0,4.9,2.79a15.76,15.76,0,0,0-4,4.06C0,8.29-.25,9.49.3,10.25h0L1.59,12a2.12,2.12,0,0,0,1.83.74A6.4,6.4,0,0,0,5,12.53,15.78,15.78,0,0,0,10.1,10a15.78,15.78,0,0,0,4-4.07C15,4.47,15.25,3.26,14.7,2.51ZM9.07,10.09l-1-1.39c.26-.16.51-.32.76-.5s.66-.51,1-.77l1,1.38c-.32.26-.64.52-1,.77ZM6.75,11.37,5.76,10A18,18,0,0,0,7.67,9l1,1.38A16.32,16.32,0,0,1,6.75,11.37ZM2,11.74l-.61-.85a3.08,3.08,0,0,0,.78.1,4.23,4.23,0,0,0,.48,0l.95,1.32A1.82,1.82,0,0,1,2,11.74Zm-.7-4.63A15.27,15.27,0,0,1,5.18,3.18a15.24,15.24,0,0,1,5-2.49A5.89,5.89,0,0,1,11.58.48,1.71,1.71,0,0,1,13,1h0c.42.58.2,1.62-.59,2.86a15.22,15.22,0,0,1-3.9,3.93A15.34,15.34,0,0,1,3.59,10.3c-1.43.37-2.48.25-2.9-.33h0C.27,9.39.48,8.35,1.27,7.11Zm11.58-3a8.42,8.42,0,0,0,.45-.81l1,1.32a7.09,7.09,0,0,1-.53,1c-.2.31-.44.63-.7,1L12,5.24A9.87,9.87,0,0,0,12.85,4.13Zm-8,7.94c-.26.07-.51.11-.75.15l-1-1.34.56-.12a11.8,11.8,0,0,0,1.6-.56l1,1.37A10.77,10.77,0,0,1,4.87,12.07Zm6.29-3.56-1-1.38A16.06,16.06,0,0,0,11.71,5.6L12.7,7A14.92,14.92,0,0,1,11.16,8.51ZM13.51,2.8A3.2,3.2,0,0,0,13.7,2l.61.84a1.52,1.52,0,0,1,.13,1.29Z"/><path d="M1.47,9.4a1.36,1.36,0,0,0,1.15.47c1.42,0,3.69-1.1,5.6-2.49,2.61-1.9,4.91-4.57,4-5.79s-4.14.13-6.75,2-4.9,4.57-4,5.79ZM11.86,1.87h0c.51.71-1,3-3.92,5.12S2.38,9.83,1.86,9.12h0c-.51-.71,1-3,3.91-5.12S11.34,1.16,11.86,1.87Z"/></svg>