<svg id="Capa_1" data-name="Capa 1" xmlns="http://www.w3.org/2000/svg" viewBox="0 0 339.45 396.85"><defs><style>.cls-1{fill:#e5edf0;}.cls-2{fill:#fff;}.cls-3{fill:#f6d87f;}</style></defs><path class="cls-1" d="M362,77.83V356.31a34.36,34.36,0,0,1-34.36,34.36H117.33a32.9,32.9,0,0,1-32.9-32.9V77.83a32.9,32.9,0,0,1,32.9-32.9H329.07A32.89,32.89,0,0,1,362,77.83Z" transform="translate(-29.31 -0.6)"/><path d="M311.77,397.46H114.71A37.11,37.11,0,0,1,77.64,360.4V75.2a37.1,37.1,0,0,1,37.07-37.05h217A37.09,37.09,0,0,1,368.75,75.2V340.47A57.05,57.05,0,0,1,311.77,397.46ZM114.71,51.73A23.5,23.5,0,0,0,91.22,75.2V360.4a23.5,23.5,0,0,0,23.49,23.48H311.77a43.47,43.47,0,0,0,43.41-43.41V75.2a23.5,23.5,0,0,0-23.49-23.47Z" transform="translate(-29.31 -0.6)"/><rect class="cls-2" x="33.89" y="23.09" width="277.53" height="345.74" rx="27.94"/><path d="M310.45,376.22h-217a37.1,37.1,0,0,1-37.06-37.06V54A37.1,37.1,0,0,1,93.47,16.91h217A37.1,37.1,0,0,1,347.51,54V339.16A37.1,37.1,0,0,1,310.45,376.22ZM93.47,30.49A23.5,23.5,0,0,0,70,54V339.16a23.5,23.5,0,0,0,23.49,23.48h217a23.5,23.5,0,0,0,23.49-23.48V54a23.5,23.5,0,0,0-23.49-23.48Z" transform="translate(-29.31 -0.6)"/><path class="cls-3" d="M279.73,12.51V90.08a7.37,7.37,0,0,1-12.58,5.21l-11.95-12a.31.31,0,0,0-.45,0l-11.06,11a7.36,7.36,0,0,1-12.57-5.21V12.51a5.12,5.12,0,0,1,5.12-5.12H274.6A5.13,5.13,0,0,1,279.73,12.51Z" transform="translate(-29.31 -0.6)"/><path d="M272.34,104.24a14.1,14.1,0,0,1-10-4.15L255,92.7l-6.48,6.49a14.16,14.16,0,0,1-24.16-10V12.51A11.93,11.93,0,0,1,236.24.6H274.6a11.93,11.93,0,0,1,11.92,11.91V90.08a14.2,14.2,0,0,1-14.18,14.16Zm-17.6-30.51,5.25,4.8,12,12,1-76.31h-35v75Z" transform="translate(-29.31 -0.6)"/><rect class="cls-3" x="6.79" y="79.98" width="54.2" height="24.16" rx="0.65"/><path d="M81.5,111.53H44.88A15.59,15.59,0,0,1,29.31,96V89.38A15.59,15.59,0,0,1,44.88,73.8H81.5A15.6,15.6,0,0,1,97.08,89.38V96A15.6,15.6,0,0,1,81.5,111.53ZM44.88,87.38a2,2,0,0,0-2,2V96a2,2,0,0,0,2,2H81.5a2,2,0,0,0,2-2V89.38a2,2,0,0,0-2-2Z" transform="translate(-29.31 -0.6)"/><rect class="cls-3" x="6.79" y="149.25" width="54.2" height="24.16" rx="0.65"/><path d="M81.5,180.8H44.88a15.59,15.59,0,0,1-15.57-15.58v-6.57a15.59,15.59,0,0,1,15.57-15.58H81.5a15.6,15.6,0,0,1,15.58,15.58v6.57A15.6,15.6,0,0,1,81.5,180.8ZM44.88,156.65a2,2,0,0,0-2,2v6.57a2,2,0,0,0,2,2H81.5a2,2,0,0,0,2-2v-6.57a2,2,0,0,0-2-2Z" transform="translate(-29.31 -0.6)"/><rect class="cls-3" x="6.79" y="218.51" width="54.2" height="24.16" rx="0.65"/><path d="M81.5,250.06H44.88a15.59,15.59,0,0,1-15.57-15.58V227.9a15.58,15.58,0,0,1,15.57-15.57H81.5A15.59,15.59,0,0,1,97.08,227.9v6.58A15.6,15.6,0,0,1,81.5,250.06ZM44.88,225.9a2,2,0,0,0-2,2v6.58a2,2,0,0,0,2,2H81.5a2,2,0,0,0,2-2V227.9a2,2,0,0,0-2-2Z" transform="translate(-29.31 -0.6)"/><rect class="cls-3" x="6.79" y="287.78" width="54.2" height="24.16" rx="0.65"/><path d="M81.5,319.33H44.88a15.59,15.59,0,0,1-15.57-15.58v-6.57A15.58,15.58,0,0,1,44.88,281.6H81.5a15.59,15.59,0,0,1,15.58,15.58v6.57A15.6,15.6,0,0,1,81.5,319.33ZM44.88,295.17a2,2,0,0,0-2,2v6.57a2,2,0,0,0,2,2H81.5a2,2,0,0,0,2-2v-6.57a2,2,0,0,0-2-2Z" transform="translate(-29.31 -0.6)"/><rect x="99.19" y="67.47" width="52.21" height="13.58"/><path d="M279.73,152.46H128.49a6.79,6.79,0,0,1,0-13.58H279.73a6.79,6.79,0,0,1,0,13.58Z" transform="translate(-29.31 -0.6)"/><path d="M279.73,200.67H128.49a6.79,6.79,0,0,1,0-13.57H279.73a6.79,6.79,0,1,1,0,13.57Z" transform="translate(-29.31 -0.6)"/><path d="M279.73,248.88H128.49a6.79,6.79,0,0,1,0-13.58H279.73a6.79,6.79,0,0,1,0,13.58Z" transform="translate(-29.31 -0.6)"/><path d="M279.73,297.1H128.49a6.79,6.79,0,0,1,0-13.58H279.73a6.79,6.79,0,0,1,0,13.58Z" transform="translate(-29.31 -0.6)"/></svg>