<svg id="Capa_1" data-name="Capa 1" xmlns="http://www.w3.org/2000/svg" width="110.41" height="104.05" viewBox="0 0 110.41 104.05"><polygon points="162 96.72 125.24 97.51 -1.08 -21.24 35.68 -22.02 162 96.72" style="fill:#ffed00"/><path d="M48.52,2.57l1.7,1.65c1.25,1.21,1.68,2.45.48,3.69s-2.55.92-3.79-.28l-1-1L43.76,8.91,43,8.21ZM47.4,7c1,1,1.8,1,2.58.25s.56-1.54-.41-2.49l-.9-.87L46.5,6.09Z" style="fill:#1d1d1b"/><path d="M53.66,7.56l1.76,1.71c1.14,1.11,1.58,2.34.43,3.51s-2.45.86-3.6-.25l-1-1-2.31,2.38-.74-.71Zm-.94,4.29c.88.85,1.71,1,2.41.23s.5-1.47-.38-2.32l-.93-.91-2,2.09Zm.51.51L52.08,17l-.82-.79,1-4Z" style="fill:#1d1d1b"/><path d="M55.67,14.94c1.77-1.82,3.71-2,5-.79s1.12,3.18-.65,5-3.76,2.08-5,.84S53.87,16.79,55.67,14.94Zm3.58,3.49c1.38-1.42,1.63-2.81.78-3.64s-2.24-.54-3.62.88-1.68,2.87-.82,3.69S57.85,19.87,59.25,18.43Z" style="fill:#1d1d1b"/><path d="M62.63,21.57l1.07-4.25.8.77-.6,2.21c-.11.4-.2.76-.35,1.27l0,0c.48-.18.82-.31,1.21-.43L67,20.48l.77.75-4.26,1.23L62.36,27l-.81-.79.63-2.33c.12-.43.24-.87.38-1.4l0,0c-.5.19-.92.33-1.34.47l-2.32.69-.76-.74Z" style="fill:#1d1d1b"/><path d="M64.22,27.61,65.63,29l4.29-4.42-1.4-1.36.59-.61L72.64,26l-.59.61-1.41-1.36-4.29,4.42L67.75,31l-.59.61-3.53-3.42Z" style="fill:#1d1d1b"/><path d="M74.08,27.4l.88.85-1.55,3.18-.61,1.18,0,0L74,32l3.14-1.63.88.85-5.48,5.64-.69-.66,2.74-2.83c.54-.55,1.56-1.43,2.06-1.87l0,0-1.39.79-3,1.44-.51-.51,1.36-3,.75-1.42,0,0c-.42.53-1.29,1.56-1.82,2.11l-2.74,2.82L68.6,33Z" style="fill:#1d1d1b"/><path d="M80.79,33.92l.83.8L78,42.21l-.78-.75,2.09-4.09c.41-.82.82-1.62,1.29-2.45l0,0c-.81.48-1.6.92-2.4,1.36l-4,2.19-.74-.72ZM76.65,36.4l2.59,2.51-.57.59L76.08,37Z" style="fill:#1d1d1b"/><path d="M84.41,37.43l.87.86-1.54,3.17-.61,1.18,0,0L84.31,42l3.14-1.63.88.86-5.48,5.64-.69-.67L84.9,43.4c.54-.55,1.56-1.43,2.06-1.88l0,0-1.38.8-3,1.43-.52-.5,1.37-3,.74-1.42h0c-.42.53-1.29,1.56-1.82,2.11L79.6,43.73l-.68-.65Z" style="fill:#1d1d1b"/><path d="M89.93,42.8l3.49,3.4-.59.61-2.77-2.69-1.71,1.76,2.34,2.27-.6.61-2.34-2.27-2,2,2.85,2.77-.59.61-3.58-3.47Z" style="fill:#1d1d1b"/><path d="M94.82,47.55l.79.77L94,53.62l-.59,1.7h0c.51-.58,1.06-1.28,1.64-1.88l2.84-2.92.69.67-5.48,5.64-.79-.77,1.63-5.3.6-1.7h0c-.53.6-1.05,1.27-1.62,1.85l-2.86,3-.69-.66Z" style="fill:#1d1d1b"/><path d="M100.9,54.65,99,52.84l.59-.61,4.46,4.33-.6.61-1.86-1.82-4.89,5L96,59.68Z" style="fill:#1d1d1b"/><path d="M105.42,57.85l3.5,3.4-.6.61-2.77-2.69-1.71,1.76,2.34,2.27-.59.61-2.34-2.27-2,2.05,2.85,2.77-.59.61L99.94,63.5Z" style="fill:#1d1d1b"/><polygon points="60.67 13.05 62.91 12.5 63.08 13.35 60.82 13.7 60.67 13.05" style="fill:#1d1d1b"/></svg>