<svg id="Capa_1" data-name="Capa 1" xmlns="http://www.w3.org/2000/svg" width="110.41" height="104.05" viewBox="0 0 110.41 104.05"><polygon points="162 96.72 125.24 97.51 -1.08 -21.24 35.68 -22.02 162 96.72" style="fill:#62b22f"/><path d="M67.65,20l.82.81-3.65,7.45-.77-.76,2.13-4.07c.42-.82.84-1.61,1.31-2.43l0,0c-.82.47-1.61.9-2.42,1.33L61,24.4l-.74-.73Zm-4.17,2.43,2.57,2.55-.58.57L62.91,23Z" style="fill:#fff"/><path d="M68.41,26.23c1.78-1.8,3.92-1.86,5.37-.41a2.92,2.92,0,0,1,.86,2.2l-.86,0a2.06,2.06,0,0,0-.62-1.61c-1.07-1.06-2.62-.89-4,.5s-1.57,3-.5,4a2.27,2.27,0,0,0,1.86.63l0,.84A3,3,0,0,1,68,31.54C66.59,30.18,66.6,28.05,68.41,26.23Z" style="fill:#fff"/><path d="M77.34,30.74l-1.85-1.83.6-.61,4.41,4.37-.6.61-1.85-1.83-4.94,5-.71-.71Z" style="fill:#fff"/><path d="M76.72,38.81l1.39,1.38,4.34-4.38-1.39-1.38.6-.6,3.49,3.46-.6.6-1.39-1.37-4.33,4.37,1.38,1.38-.59.61-3.5-3.47Z" style="fill:#fff"/><path d="M86.32,38.45l.77.76L85,43.11c-.45.85-.84,1.52-1.28,2.37l0,0c.85-.44,1.53-.83,2.36-1.3L90,42.08l.73.72-7.31,3.83-.84-.82Z" style="fill:#fff"/><path d="M88.74,46.33c1.79-1.8,3.74-2,5-.74s1.09,3.19-.7,5-3.78,2-5,.79S86.93,48.16,88.74,46.33Zm3.56,3.52c1.39-1.4,1.65-2.79.81-3.63s-2.23-.56-3.63.85-1.7,2.85-.86,3.68S90.88,51.28,92.3,49.85Z" style="fill:#fff"/></svg>