<svg id="Capa_1" data-name="Capa 1" xmlns="http://www.w3.org/2000/svg" width="110.41" height="104.05" viewBox="0 0 110.41 104.05"><polygon points="162 96.72 125.24 97.51 -1.08 -21.24 35.68 -22.02 162 96.72" style="fill:#ca2525"/><path d="M53.79,7.64,57.25,11l-.59.61L53.92,9l-1.85,1.9,2.32,2.26-.59.61-2.32-2.26L49,14l-.73-.7Z" style="fill:#fff"/><path d="M53.73,17.37l1.4,1.37,4.3-4.42L58,13l.59-.61,3.53,3.43-.6.61L60.15,15l-4.3,4.42,1.4,1.36-.59.61L53.14,18Z" style="fill:#fff"/><path d="M63.67,17.26l.79.77-1.64,5.29-.6,1.7,0,0c.52-.59,1.07-1.29,1.65-1.88l2.84-2.92.69.66-5.49,5.64-.79-.77,1.64-5.29.6-1.7,0,0c-.53.6-1,1.27-1.62,1.86l-2.87,2.94-.69-.66Z" style="fill:#fff"/><path d="M70.29,23.7l.83.8L67.53,32l-.77-.75,2.09-4.09c.41-.82.82-1.63,1.29-2.45l0,0c-.81.48-1.6.92-2.41,1.36l-4,2.18-.73-.72Zm-4.15,2.47,2.59,2.52-.57.59-2.58-2.52Z" style="fill:#fff"/><path d="M74.44,27.73l.71.7-4.89,5L73,36.17l-.59.61L69,33.37Z" style="fill:#fff"/><path d="M74.37,37.46l1.4,1.36,4.3-4.42L78.67,33l.59-.61,3.53,3.43-.6.61-1.4-1.36-4.3,4.41,1.4,1.37-.59.61-3.53-3.43Z" style="fill:#fff"/><path d="M79.1,42.4l7.62-1.54-2.87-2.79.6-.61,3.75,3.65-.42.44-7.62,1.54,3.18,3.1-.59.61-4.07-4Z" style="fill:#fff"/><path d="M90.93,43.79l.83.8-3.59,7.49-.78-.76,2.09-4.09c.42-.82.83-1.62,1.29-2.44l0,0c-.82.47-1.6.92-2.41,1.35l-4,2.19-.74-.72Zm-4.15,2.47,2.59,2.52-.57.58-2.59-2.52Z" style="fill:#fff"/><path d="M94.67,47.43l1.39,1.35c1.7,1.65,1.64,3.55-.1,5.34s-3.69,2-5.35.33l-1.43-1.38ZM91.1,53.78c1.28,1.24,2.72,1,4.11-.39s1.51-2.82.23-4.06l-.62-.61-4.34,4.46Z" style="fill:#fff"/><path d="M96.78,54.92c1.77-1.83,3.71-2,5-.79s1.12,3.18-.65,5-3.76,2.08-5,.84S95,56.76,96.78,54.92Zm3.58,3.48c1.38-1.41,1.63-2.81.78-3.64s-2.23-.53-3.61.88-1.69,2.87-.84,3.7S99,59.85,100.36,58.4Z" style="fill:#fff"/></svg>