<?xml version="1.0" encoding="utf-8"?>
<!-- Generator: Adobe Illustrator 24.2.1, SVG Export Plug-In . SVG Version: 6.00 Build 0)  -->
<svg version="1.1" id="Capa_1" xmlns="http://www.w3.org/2000/svg" xmlns:xlink="http://www.w3.org/1999/xlink" x="0px" y="0px"
	 viewBox="0 0 500 500" style="enable-background:new 0 0 500 500;" xml:space="preserve">
<style type="text/css">
	.st0{fill:#F2F2F2;}
	.st1{fill:#D0D0D0;}
	.st2{fill:#020203;}
</style>
<line class="st0" x1="437.43" y1="134.69" x2="478.64" y2="191.49"/>
<line class="st0" x1="388.71" y1="213.37" x2="429.92" y2="270.17"/>
<line class="st0" x1="327.48" y1="274.79" x2="368.68" y2="331.6"/>
<line class="st0" x1="258.16" y1="325.07" x2="299.36" y2="381.88"/>
<line class="st0" x1="182.93" y1="367.2" x2="224.13" y2="424.01"/>
<line class="st0" x1="94.47" y1="391.09" x2="135.67" y2="447.9"/>
<path class="st1" d="M478.43,128.32l-41.84-57.68c-32.81-45.24-152.32-14.52-266.92,68.6S-11.24,326.43,21.57,371.67l41.84,57.68
	c32.81,45.24,152.32,14.52,266.92-68.6S511.24,173.56,478.43,128.32z M269.05,276.26c-93.49,67.81-187.18,98.12-209.25,67.68
	c-22.07-30.43,35.82-110.07,129.32-177.89s187.18-98.12,209.25-67.68C420.44,128.8,362.54,208.45,269.05,276.26z"/>
<path class="st0" d="M188.43,166.06c93.49-67.81,187.18-98.12,209.25-67.68c22.07,30.43-35.82,110.07-129.32,177.89
	S81.19,374.37,59.11,343.94S94.94,233.87,188.43,166.06z"/>
<path class="st2" d="M484.72,123.75l-41.84-57.68c-17.84-24.64-57.26-30.6-111.02-16.8C280.52,62.46,221.3,92.18,165.1,132.94
	C108.9,173.7,62.26,220.77,33.78,265.48C3.97,312.26-2.6,351.59,15.27,376.24c0.02,0.02,0.04,0.04,0.06,0.06l41.8,57.63
	C68.68,449.88,89.28,458,116.96,458c15.07,0,32.23-2.41,51.17-7.28c51.34-13.19,110.56-42.91,166.77-83.67
	c56.19-40.77,102.84-87.83,131.32-132.54C496.04,187.72,502.61,148.4,484.72,123.75z M476.39,175.13l-30.36-41.86
	c3.45-9.89,5.5-19.18,6.2-27.83l19.91,27.44C479.47,143.01,480.67,157.61,476.39,175.13z M46.91,273.85
	c27.45-43.09,72.68-88.66,127.34-128.3c54.66-39.64,112.01-68.47,161.49-81.2c17.64-4.53,33.55-6.77,47.25-6.77
	c22.36,0,38.83,5.95,47.3,17.63c13.66,18.84,6.72,52.83-19.04,93.25c-27.45,43.09-72.68,88.66-127.34,128.3
	c-54.66,39.64-112.01,68.47-161.49,81.2c-46.43,11.92-80.91,7.97-94.53-10.87h-0.01C14.22,348.26,21.15,314.27,46.91,273.85z
	 M255.47,334.62l32.69,45.05c-20.89,13.01-41.8,24.3-62.21,33.59l-32.54-44.88C213.84,358.93,234.67,347.61,255.47,334.62z
	 M69.71,424.78l-20.04-27.63c7.72,1.88,16.01,3.18,25.46,3.18c4.86,0,10.29-0.67,15.58-1.17l31.2,43.01
	C97.12,443.06,78.76,437.27,69.71,424.78z M164.26,435.65c-8.61,2.21-16.64,3.69-24.37,4.81l-31.73-43.75
	c5.94-1.08,11.79-2.03,18.14-3.67c16.78-4.32,34.46-10.56,52.56-18.22l32.45,44.74C195.11,426.26,179.29,431.78,164.26,435.65z
	 M325.75,354.44c-8.11,5.88-16.28,11.44-24.47,16.83l-32.68-45.05c8.2-5.4,16.37-10.97,24.47-16.85
	c11.06-8.03,21.63-16.35,31.89-24.8l32.68,45.05C347.4,338.08,336.83,346.41,325.75,354.44z M369.56,319.55l-32.65-45.01
	c18.65-16.15,35.65-32.82,50.59-49.61l32.44,44.73C405.18,286.51,388.27,303.28,369.56,319.55z M453.09,226.14
	c-6.59,10.34-14.25,20.83-22.77,31.34l-32.39-44.67c9.97-12.05,18.9-24.09,26.47-35.97c5.88-9.23,10.59-18.08,14.66-26.68
	l31.3,43.15C466.1,203.62,460.46,214.57,453.09,226.14z M90.97,363.76c-16.7,0-29.81-4.67-37.47-15.25l0,0
	c-28.93-39.88,45.93-127.02,131.03-188.76C269.67,98.01,375.79,53.93,404.67,93.8c28.93,39.88-45.93,127.02-131.05,188.76
	C211.08,327.92,137.22,363.76,90.97,363.76z M66.09,339.37c16.76,23.06,102.33,0.26,198.37-69.42
	c96.05-69.66,144.34-143.93,127.61-167.01c-16.82-23.09-102.35-0.27-198.39,69.42C97.65,242.02,49.36,316.29,66.09,339.37
	L66.09,339.37z"/>
</svg>
