<svg xmlns="http://www.w3.org/2000/svg" width="112.95" height="29.42" viewBox="0 0 112.95 29.42"><defs><style>.a{fill:#2d3277;}.b{fill:#009ee3;}.c{fill:#fff;}</style></defs><path class="a" d="M41.36,13.53C41.36,6.08,32.1,0,20.68,0S0,6.07,0,13.53v.79c0,7.9,8.09,14.3,20.68,14.3s20.68-6.4,20.68-14.3Z"/><path class="b" d="M40.57,13.52c0,7-8.9,12.72-19.88,12.72S.8,20.56.8,13.52,9.7.8,20.69.8,40.57,6.49,40.57,13.52Z"/><path class="c" d="M14.08,9.51s-.21.22-.08.39a2.51,2.51,0,0,0,2.27.41A6.49,6.49,0,0,0,18.32,9a8,8,0,0,1,2.35-1.49,2.64,2.64,0,0,1,1.71,0,5.19,5.19,0,0,1,1.56.91c1.36,1,6.83,5.8,7.78,6.63a46.18,46.18,0,0,1,8.74-2.82,10.85,10.85,0,0,0-4.15-6.53c-3.15,1.33-7,2-10.77.18a10.51,10.51,0,0,0-4.07-.93c-3,.07-4.28,1.35-5.65,2.73Z"/><path class="c" d="M31.5,15.52c-.07-.06-6.44-5.63-7.88-6.72A3.55,3.55,0,0,0,21.83,8,2.24,2.24,0,0,0,21,8a7.6,7.6,0,0,0-2.32,1.39,6.9,6.9,0,0,1-2.27,1.4,3.7,3.7,0,0,1-2.51-.38,1,1,0,0,1-.41-.45.74.74,0,0,1,.21-.83l1.75-1.9.62-.61a11.19,11.19,0,0,0-1.6.36,7,7,0,0,1-1.87.35c-.64-.07-1.27-.17-1.9-.3A28.4,28.4,0,0,1,5.61,5.24,11.2,11.2,0,0,0,1,12l1.19.32c5.66,1.25,7.42,2.55,7.75,2.82A1.86,1.86,0,0,1,12.53,15a2.35,2.35,0,0,1,.3.33,2.13,2.13,0,0,1,1.35-.47A2.4,2.4,0,0,1,15,15a1.86,1.86,0,0,1,1.11,1,1.73,1.73,0,0,1,.78-.16,2.38,2.38,0,0,1,.95.2,2,2,0,0,1,1.11,2.25.81.81,0,0,1,.22,0,2.24,2.24,0,0,1,2.24,2.24,2.2,2.2,0,0,1-.27,1.06,3.6,3.6,0,0,0,1.95.52c.6-.08.83-.28.91-.4s.12-.17.06-.24l-1.6-1.78s-.26-.25-.17-.35.25.05.37.14c.81.68,1.8,1.7,1.8,1.7s.08.14.45.21a1.67,1.67,0,0,0,1.26-.3,2,2,0,0,0,.28-.3h0a.86.86,0,0,0,0-1.05L24.5,17.65s-.26-.25-.18-.34.26,0,.37.14c.6.49,1.43,1.32,2.23,2.11a1.51,1.51,0,0,0,1.78-.06,1.3,1.3,0,0,0,.67-1.17,1.4,1.4,0,0,0-.39-.75L26.43,15s-.26-.23-.17-.35.25.05.36.14c.82.68,3,2.68,3,2.68a1.56,1.56,0,0,0,1.73,0,1.14,1.14,0,0,0,.56-.91A1.32,1.32,0,0,0,31.5,15.52Z"/><path class="c" d="M19.16,18.77a9,9,0,0,0-.9.19c-.07,0,0-.18.06-.27s.56-1.65-.71-2.19a1.48,1.48,0,0,0-1.76.26s-.08,0-.08,0a1.42,1.42,0,0,0-1-1.3,1.89,1.89,0,0,0-2.15.77,1.38,1.38,0,1,0-1.18,1.56,1.33,1.33,0,0,0,.76-.37,0,0,0,0,1,0,.05,1.82,1.82,0,0,0,1.15,2.08,1.33,1.33,0,0,0,1.33-.2c.11-.08.13,0,.12.06-.05.32,0,1,1,1.4a1.25,1.25,0,0,0,1.45-.28c.12-.11.16-.09.17.08a1.74,1.74,0,1,0,1.76-1.82Z"/><path class="a" d="M31.74,14.85c-2-1.71-6.49-5.66-7.72-6.57a5.61,5.61,0,0,0-1.6-.94,2.66,2.66,0,0,0-.79-.12,3.44,3.44,0,0,0-1,.17,8.28,8.28,0,0,0-2.34,1.49l0,0a6.49,6.49,0,0,1-2,1.28,3.65,3.65,0,0,1-.74.08,1.9,1.9,0,0,1-1.4-.45s0-.11.07-.22h0L15.9,7.74c1.35-1.35,2.62-2.63,5.56-2.68h.15A10.34,10.34,0,0,1,25.48,6a12.07,12.07,0,0,0,5.27,1.27,13.8,13.8,0,0,0,5.78-1.39l-.7-.55a12.84,12.84,0,0,1-5.06,1.15,11.09,11.09,0,0,1-4.93-1.19,11.14,11.14,0,0,0-4.21-1h-.18A7.31,7.31,0,0,0,16.65,6a9.17,9.17,0,0,0-2.38.44,6.4,6.4,0,0,1-1.68.32l-.64,0A33.6,33.6,0,0,1,5.88,5c-.24.17-.48.35-.71.54a30.43,30.43,0,0,0,6.55,1.9c.27,0,.56,0,.85,0a7.42,7.42,0,0,0,1.92-.37c.36-.1.77-.21,1.19-.3l-.34.33-1.75,1.9a.88.88,0,0,0-.24,1,1.19,1.19,0,0,0,.46.51,3.57,3.57,0,0,0,1.86.46,3.64,3.64,0,0,0,.74-.07,7,7,0,0,0,2.33-1.43A7.57,7.57,0,0,1,21,8.15a2.3,2.3,0,0,1,.64-.09h.16a3.43,3.43,0,0,1,1.73.83C25,10,31.36,15.54,31.42,15.6a1.24,1.24,0,0,1,.38.93,1,1,0,0,1-.51.81,1.48,1.48,0,0,1-.83.26,1.36,1.36,0,0,1-.74-.21s-2.21-2-3-2.68a.64.64,0,0,0-.38-.2.19.19,0,0,0-.16.08c-.13.15,0,.37.18.51l2.55,2.57a1.21,1.21,0,0,1,.35.69,1.14,1.14,0,0,1-.6,1.05,1.59,1.59,0,0,1-.89.3,1.28,1.28,0,0,1-.73-.22l-.36-.36c-.67-.66-1.36-1.34-1.87-1.76a.74.74,0,0,0-.38-.2.24.24,0,0,0-.16.07c-.05.07-.1.18,0,.37l.13.15,1.86,2.08a.71.71,0,0,1,0,.89l-.07.09a1.31,1.31,0,0,1-1.08.45,1.06,1.06,0,0,1-.25,0,.67.67,0,0,1-.37-.15l0,0c-.1-.1-1-1.06-1.81-1.71a.67.67,0,0,0-.4-.18.2.2,0,0,0-.16.07c-.16.17.07.42.17.51l1.59,1.75-.06.11c-.06.08-.25.27-.83.34h-.21a3.57,3.57,0,0,1-1.55-.46,2.37,2.37,0,0,0-1.13-3.15,2.51,2.51,0,0,0-1-.22h-.08a2.11,2.11,0,0,0-1.2-2.22,2.38,2.38,0,0,0-1-.22,2,2,0,0,0-.73.13,2,2,0,0,0-1.16-1,3,3,0,0,0-.85-.15,2.26,2.26,0,0,0-1.32.43A2,2,0,0,0,10,14.79l-.17.15c-.49-.38-2.45-1.62-7.69-2.81-.26-.06-.84-.23-1.19-.33a6.17,6.17,0,0,0-.14.86L2,12.94c5.36,1.19,7.12,2.42,7.42,2.66a2.09,2.09,0,0,0-.15.79,2,2,0,0,0,2,2,2.46,2.46,0,0,0,.37,0,2.34,2.34,0,0,0,1.51,1.75,1.88,1.88,0,0,0,1.17.08,2.34,2.34,0,0,0,2,1.33,1.88,1.88,0,0,0,.62-.11,2.36,2.36,0,0,0,3.08,1.28,2.27,2.27,0,0,0,.79-.54,4.44,4.44,0,0,0,2,.6l.3,0a1.83,1.83,0,0,0,1.36-.67l.08-.13a2.31,2.31,0,0,0,.64.1,2.19,2.19,0,0,0,1.3-.46,1.84,1.84,0,0,0,.76-1.12h0a2,2,0,0,0,.43.05,2.41,2.41,0,0,0,1.33-.42,2,2,0,0,0,1-1.71,2.12,2.12,0,0,0,.44,0A2.29,2.29,0,0,0,31.7,18a1.84,1.84,0,0,0,.87-1.41,1.9,1.9,0,0,0-.28-1.14,52,52,0,0,1,8.26-2.59,7.9,7.9,0,0,0-.11-.85A46.72,46.72,0,0,0,31.74,14.85ZM19.16,22.13a1.61,1.61,0,0,1-1.62-1.55c0-.07,0-.27-.18-.27a.3.3,0,0,0-.19.1,1.14,1.14,0,0,1-.78.36,1.36,1.36,0,0,1-.53-.11c-.92-.38-.93-1-.89-1.27a.27.27,0,0,0,0-.19l0-.05h-.06a.29.29,0,0,0-.16.07,1.4,1.4,0,0,1-.79.28,1.18,1.18,0,0,1-.46-.09,1.7,1.7,0,0,1-1.06-2,.17.17,0,0,0-.06-.16l-.08-.07-.08.08a1.26,1.26,0,0,1-1.75-1.82,1.27,1.27,0,0,1,1.79,0,1.24,1.24,0,0,1,.34.72l0,.34.19-.3a1.88,1.88,0,0,1,1.47-.8,1.71,1.71,0,0,1,.55.09,1.27,1.27,0,0,1,.89,1.19.15.15,0,0,0,.15.17.21.21,0,0,0,.15-.07,1.26,1.26,0,0,1,.93-.4,1.79,1.79,0,0,1,.69.16c1.2.51.65,2,.65,2-.1.25-.11.36,0,.43l.05,0h0a1,1,0,0,0,.23-.06,1.92,1.92,0,0,1,.63-.14h0a1.62,1.62,0,0,1,.14,3.24h-.14Z"/><path class="a" d="M111.83,4.91a4,4,0,0,0-3.4-1.4,4.11,4.11,0,0,0-3.4,1.4,5.16,5.16,0,0,0-1.12,3.31A5.14,5.14,0,0,0,105,11.55a4.88,4.88,0,0,0,6.8,0A5.14,5.14,0,0,0,113,8.22,5.1,5.1,0,0,0,111.83,4.91ZM110,10.27a2,2,0,0,1-2.88.23,1.75,1.75,0,0,1-.24-.23,3.36,3.36,0,0,1-.55-2,3.3,3.3,0,0,1,.55-2,2,2,0,0,1,2.9-.23,1.61,1.61,0,0,1,.22.23,3.32,3.32,0,0,1,.55,2,3.36,3.36,0,0,1-.55,2Z"/><path class="a" d="M92.76,4.13a5.63,5.63,0,0,0-2.61-.58A3.82,3.82,0,0,0,87,4.72a3.45,3.45,0,0,0-.65,1.91h2.24a1.65,1.65,0,0,1,.33-.81,1.49,1.49,0,0,1,1.19-.41,2.38,2.38,0,0,1,1.12.21.77.77,0,0,1,.39.75.7.7,0,0,1-.5.66,3.69,3.69,0,0,1-.93.21l-.79.09a5.8,5.8,0,0,0-2,.57,2.55,2.55,0,0,0-1.28,2.37,2.45,2.45,0,0,0,.79,1.94,3.08,3.08,0,0,0,2,.69c5.06.23,5-2.66,5.06-3.27V6.31A2.24,2.24,0,0,0,92.76,4.13Zm-1.2,5.06a1.79,1.79,0,0,1-.66,1.6,2.42,2.42,0,0,1-1.4.44,1.28,1.28,0,0,1-.82-.26,1,1,0,0,1-.33-.86,1,1,0,0,1,.55-1A3.33,3.33,0,0,1,90,8.8l.53-.1a3.32,3.32,0,0,0,.62-.16,2.35,2.35,0,0,0,.45-.22Z"/><path class="a" d="M81.21,5.53a1.5,1.5,0,0,1,1.28.54,2,2,0,0,1,.35.89h2.49A3.38,3.38,0,0,0,84,4.32a5.16,5.16,0,0,0-2.87-.74A4.2,4.2,0,0,0,77.9,4.84a5,5,0,0,0-1.17,3.55,4.89,4.89,0,0,0,1.06,3.27,4.05,4.05,0,0,0,3.31,1.27,4,4,0,0,0,3.4-1.52,3.76,3.76,0,0,0,.81-2H82.82a2.06,2.06,0,0,1-.44,1.14,1.49,1.49,0,0,1-1.21.44,1.62,1.62,0,0,1-1.65-1.11,4.14,4.14,0,0,1-.24-1.56,4.51,4.51,0,0,1,.24-1.63A1.67,1.67,0,0,1,81.21,5.53Z"/><path class="a" d="M76.06,3.57c-5.13,0-4.83,4.55-4.83,4.55v4.62h2.33V8.41a3.57,3.57,0,0,1,.27-1.58,2,2,0,0,1,1.87-.91H76a3.22,3.22,0,0,1,.39,0V3.6l-.2,0Z"/><path class="a" d="M67.51,10.32a1.53,1.53,0,0,1-.32.35,2,2,0,0,1-1.3.35,2.07,2.07,0,0,1-1.24-.3,2.12,2.12,0,0,1-1-1.84h6.45a13,13,0,0,0-.08-1.76,4.25,4.25,0,0,0-.71-1.83A3.61,3.61,0,0,0,67.83,4a5.08,5.08,0,0,0-2.08-.41A4.28,4.28,0,0,0,62.59,4.8a4.83,4.83,0,0,0-1.22,3.54,4.27,4.27,0,0,0,1.35,3.54A4.8,4.8,0,0,0,65.84,13a4.29,4.29,0,0,0,3.33-1.29,3.26,3.26,0,0,0,.8-1.35ZM64.38,6a1.86,1.86,0,0,1,1.38-.51A2.07,2.07,0,0,1,67.13,6a2,2,0,0,1,.62,1.4h-4A2.44,2.44,0,0,1,64.38,6Z"/><path class="a" d="M60.44,12.73H58.32V7.37a1.5,1.5,0,0,0-1.57-1.65,1.55,1.55,0,0,0-1.61,1.52.57.57,0,0,0,0,.13v5.36H53V7.37a1.48,1.48,0,0,0-1.55-1.65,1.55,1.55,0,0,0-1.61,1.5v5.51H47.72V7.43a3.64,3.64,0,0,1,3.74-3.87,3.28,3.28,0,0,1,2.65,1.21,3.41,3.41,0,0,1,2.64-1.24,3.55,3.55,0,0,1,3.69,3.88Z"/><path class="a" d="M103.22.78s-2.35-.25-2.35,1.63v2.5a2.87,2.87,0,0,0-1-1,3,3,0,0,0-1.43-.36,3.43,3.43,0,0,0-2.79,1.3,5.78,5.78,0,0,0-1,3.63,4.8,4.8,0,0,0,1.06,3.21A4.47,4.47,0,0,0,99,12.91c4.29,0,4.24-3.68,4.24-3.68Zm-2.79,9.51a1.7,1.7,0,0,1-1.49.73,1.62,1.62,0,0,1-1.47-.73,3.87,3.87,0,0,1-.48-2,3.5,3.5,0,0,1,.48-1.9A1.59,1.59,0,0,1,99,5.6a1.76,1.76,0,0,1,1.18.42,3.07,3.07,0,0,1,.81,2.38A3.23,3.23,0,0,1,100.43,10.29Z"/><path class="b" d="M64.72,27.51a1.07,1.07,0,0,1-.34.81,1.15,1.15,0,0,1-.82.34H62.39v-8.1a3.75,3.75,0,0,1,1.41-3.23,4.68,4.68,0,0,1,3-.86,4.06,4.06,0,0,1,3,1.26A5,5,0,0,1,71,21.1a5.46,5.46,0,0,1-1,3.44,3.24,3.24,0,0,1-2.63,1.3,3.49,3.49,0,0,1-1.49-.3,2.46,2.46,0,0,1-1.09-1.05Zm3.9-6.3a3.38,3.38,0,0,0-.51-2,1.84,1.84,0,0,0-2.91,0,3.41,3.41,0,0,0-.48,2,3.05,3.05,0,0,0,.52,1.92,1.7,1.7,0,0,0,1.47.7,1.62,1.62,0,0,0,1.4-.71,3.18,3.18,0,0,0,.51-1.92"/><path class="b" d="M86.41,25.09v-.57a2.54,2.54,0,0,1-1.63,1.19,3.28,3.28,0,0,1-2-.17A3.71,3.71,0,0,1,81,24.05a5.16,5.16,0,0,1-.72-2.88,5.58,5.58,0,0,1,1-3.39,3.68,3.68,0,0,1,3.08-1.3,4.12,4.12,0,0,1,3,.89,3.75,3.75,0,0,1,1.38,3.24v4.71a4,4,0,0,1-4.37,4.08,3.82,3.82,0,0,1-3.83-2.9H83a1.87,1.87,0,0,0,1.93.86,1.82,1.82,0,0,0,1-.66,2.74,2.74,0,0,0,.52-1.62m-3.83-3.87c0,1.55.45,2.41,1.34,2.58a1.84,1.84,0,0,0,2-.62A2.49,2.49,0,0,0,86.34,22a4.87,4.87,0,0,0,0-1.57,3.07,3.07,0,0,0-.56-1.37,1.49,1.49,0,0,0-1.28-.6,1.59,1.59,0,0,0-1.55.84,4.58,4.58,0,0,0-.4,1.93"/><path class="b" d="M78.3,17.1a5.52,5.52,0,0,0-2.59-.58,3.85,3.85,0,0,0-3.18,1.17,3.45,3.45,0,0,0-.65,1.91h2.24a1.65,1.65,0,0,1,.33-.81,1.48,1.48,0,0,1,1.18-.41,2.41,2.41,0,0,1,1.12.21.78.78,0,0,1,.39.75.7.7,0,0,1-.51.66,3.62,3.62,0,0,1-.92.21l-.79.09a5.8,5.8,0,0,0-2,.57,2.53,2.53,0,0,0-1.28,2.37,2.46,2.46,0,0,0,.8,2,3.12,3.12,0,0,0,2,.69c5.07.23,5-2.68,5.07-3.28V19.28a2.21,2.21,0,0,0-1.14-2.18m-1.17,5.06a1.88,1.88,0,0,1-.67,1.61,2.5,2.5,0,0,1-1.4.44,1.32,1.32,0,0,1-.81-.27,1,1,0,0,1-.34-.86,1.07,1.07,0,0,1,.55-1,3.35,3.35,0,0,1,1.07-.3l.53-.1a4.34,4.34,0,0,0,.62-.16,2.67,2.67,0,0,0,.45-.22Z"/><path class="b" d="M97.5,17.83a4.82,4.82,0,0,0-6.79,0,5.08,5.08,0,0,0-1.12,3.32,5,5,0,0,0,1.12,3.33,4.87,4.87,0,0,0,6.79,0,5.08,5.08,0,0,0,1.12-3.33,5.1,5.1,0,0,0-1.12-3.31M95.65,23.2a1.8,1.8,0,0,1-1.55.72,1.87,1.87,0,0,1-1.57-.72A3.29,3.29,0,0,1,92,21.15a3.33,3.33,0,0,1,.54-2,1.86,1.86,0,0,1,1.57-.72,1.81,1.81,0,0,1,1.55.72,3.24,3.24,0,0,1,.55,2,3.29,3.29,0,0,1-.55,2.05"/></svg>