<svg xmlns="http://www.w3.org/2000/svg" width="168.17" height="100" viewBox="0 0 168.17 100"><defs><style>.a{fill:#e6e6e6;}.b{fill:#f2f2f2;}.c,.d{fill:#f6d87f;}.c,.d,.e{stroke:#1d1d1b;}.c{stroke-miterlimit:10;}.d,.e{stroke-linecap:round;stroke-linejoin:round;}.e{fill:none;}.f{fill:#253b80;}.g{fill:#179bd7;}.h{fill:#222d65;}</style></defs><rect class="a" y="13.6" width="108" height="72" rx="5"/><rect class="b" x="18.17" width="150" height="100" rx="5"/><circle class="c" cx="18" cy="50.6" r="10"/><line class="d" x1="12.5" y1="50.6" x2="22.5" y2="50.6"/><polyline class="e" points="21 48.48 23.12 50.6 21 52.72"/><path class="f" d="M80.09,43H74.35a.8.8,0,0,0-.79.67L71.24,58.39a.5.5,0,0,0,.41.55h2.81a.8.8,0,0,0,.79-.67l.63-4a.79.79,0,0,1,.79-.67h1.81c3.78,0,6-1.83,6.54-5.45a4.47,4.47,0,0,0-.73-3.71A5.35,5.35,0,0,0,80.09,43Zm.66,5.36c-.32,2.06-1.89,2.06-3.41,2.06h-.87l.61-3.84a.48.48,0,0,1,.48-.4H78c1,0,2,0,2.52.59A1.88,1.88,0,0,1,80.75,48.37Zm16.5-.06H94.5a.47.47,0,0,0-.47.4l-.13.77-.19-.28c-.6-.86-1.93-1.14-3.24-1.14a6.31,6.31,0,0,0-6.13,5.52,5.17,5.17,0,0,0,1,4.22,4.33,4.33,0,0,0,3.46,1.4,5.24,5.24,0,0,0,3.8-1.57l-.12.76a.49.49,0,0,0,.41.55h2.54a.81.81,0,0,0,.8-.67l1.48-9.4a.49.49,0,0,0-.39-.55Zm-3.84,5.35a3.06,3.06,0,0,1-3.1,2.62,2.29,2.29,0,0,1-1.84-.74A2.35,2.35,0,0,1,88,53.61,3.07,3.07,0,0,1,91.13,51a2.31,2.31,0,0,1,1.82.74A2.39,2.39,0,0,1,93.41,53.66Zm18.46-5.35h-2.76a.79.79,0,0,0-.66.36l-3.81,5.6L103,48.88a.78.78,0,0,0-.76-.57H99.54a.47.47,0,0,0-.48.48.45.45,0,0,0,0,.16l3,8.92-2.86,4a.48.48,0,0,0,.11.67.41.41,0,0,0,.28.09h2.75a.79.79,0,0,0,.66-.34l9.18-13.25a.48.48,0,0,0-.12-.67.33.33,0,0,0-.25-.09Z"/><path class="g" d="M121,43h-5.74a.8.8,0,0,0-.79.67l-2.32,14.71a.5.5,0,0,0,.41.55h3a.54.54,0,0,0,.55-.47l.66-4.17a.79.79,0,0,1,.79-.67h1.82c3.77,0,6-1.83,6.53-5.45a4.43,4.43,0,0,0-.73-3.71A5.35,5.35,0,0,0,121,43Zm.67,5.36c-.31,2.06-1.88,2.06-3.41,2.06h-.86l.61-3.84a.47.47,0,0,1,.47-.4h.4c1,0,2,0,2.53.59A2,2,0,0,1,121.67,48.37Zm16.49-.06h-2.75a.47.47,0,0,0-.47.4l-.12.77-.2-.28c-.6-.86-1.93-1.14-3.24-1.14a6.31,6.31,0,0,0-6.13,5.52,5.21,5.21,0,0,0,1,4.22,4.33,4.33,0,0,0,3.46,1.4,5.28,5.28,0,0,0,3.81-1.57l-.13.76a.49.49,0,0,0,.41.55h2.54a.81.81,0,0,0,.8-.67l1.48-9.4a.48.48,0,0,0-.4-.55Zm-3.83,5.35a3.05,3.05,0,0,1-3.1,2.62,2.29,2.29,0,0,1-1.84-.74,2.35,2.35,0,0,1-.43-1.93A3.08,3.08,0,0,1,132.05,51a2.34,2.34,0,0,1,1.83.74A2.46,2.46,0,0,1,134.33,53.66Zm7.07-10.25-2.35,15a.48.48,0,0,0,.4.55h2.44a.8.8,0,0,0,.79-.67L145,43.56a.5.5,0,0,0-.41-.55h-2.72A.47.47,0,0,0,141.4,43.41Z"/><path class="f" d="M47.42,61.79,47.86,59l-1,0H42.22l3.24-20.55a.25.25,0,0,1,.27-.22h7.86c2.61,0,4.41.54,5.35,1.62a3.67,3.67,0,0,1,.86,1.61,5.82,5.82,0,0,1,0,2.21l0,.07v.57l.44.25a3.18,3.18,0,0,1,.89.69,3.06,3.06,0,0,1,.72,1.62,6.83,6.83,0,0,1-.1,2.35,8.15,8.15,0,0,1-1,2.67,5.58,5.58,0,0,1-1.53,1.68,6.16,6.16,0,0,1-2.06.93,10.23,10.23,0,0,1-2.58.29H54a1.83,1.83,0,0,0-1.81,1.55l0,.26-.78,4.91,0,.18c0,.06,0,.09-.05.11a.08.08,0,0,1-.08,0S47.42,61.79,47.42,61.79Z"/><path class="g" d="M60.66,43.78c0,.14,0,.3-.08.46-1,5.33-4.59,7.17-9.12,7.17H49.15a1.13,1.13,0,0,0-1.11,1l-1.18,7.5L46.53,62a.59.59,0,0,0,.49.67H51.2a1,1,0,0,0,1-.83l0-.21L53,56.74l.05-.27a1,1,0,0,1,1-.83h.61c4,0,7.07-1.61,8-6.27.38-1.95.18-3.57-.82-4.72A3.67,3.67,0,0,0,60.66,43.78Z"/><path class="h" d="M59.58,43.34a6.85,6.85,0,0,0-1-.22,12.53,12.53,0,0,0-2-.15H50.36a1,1,0,0,0-1,.83l-1.32,8.32,0,.24a1.13,1.13,0,0,1,1.11-1h2.31c4.53,0,8.08-1.84,9.11-7.17,0-.16.06-.32.09-.46a5.33,5.33,0,0,0-.85-.37Z"/><path class="f" d="M49.4,43.8a1,1,0,0,1,1-.83h6.17a12.94,12.94,0,0,1,2,.15,8.6,8.6,0,0,1,1.24.29,4.36,4.36,0,0,1,.85.37,5,5,0,0,0-1.07-4.53c-1.17-1.34-3.29-1.91-6-1.91H45.73a1.12,1.12,0,0,0-1.11.95L41.34,59.06a.66.66,0,0,0,.56.77h5l1.22-7.74S49.4,43.8,49.4,43.8Z"/></svg>