<svg xmlns="http://www.w3.org/2000/svg" viewBox="0 0 483.43 455.35"><defs><style>.a{fill:#e5edf1;}.b{fill:#1e1e1c;}.c{fill:#fff;}.d{fill:#f6d87f;}</style></defs><polygon class="a" points="111.06 258.26 134.02 197.66 176.62 241.47 148.02 290.51 111.06 258.26"/><path class="b" d="M156.31,317.09a4.27,4.27,0,0,1-2.8-1l-37-32.24a4.27,4.27,0,0,1-1.18-4.72l22.95-60.61a4.26,4.26,0,0,1,7-1.46L188,260.83a4.25,4.25,0,0,1,.63,5.11L160,315a4.26,4.26,0,0,1-3,2A4,4,0,0,1,156.31,317.09Zm-31.93-37.76,30.85,26.91,24.38-41.8-35.69-36.7Z" transform="translate(-8.29 -22.32)"/><polygon class="a" points="372.37 258.26 349.41 197.66 306.81 241.47 335.4 290.51 372.37 258.26"/><path class="b" d="M343.69,317.09A4,4,0,0,1,343,317a4.26,4.26,0,0,1-3-2l-28.6-49a4.25,4.25,0,0,1,.63-5.11L354.64,217a4.26,4.26,0,0,1,7,1.46l22.95,60.61a4.27,4.27,0,0,1-1.18,4.72l-37,32.24A4.27,4.27,0,0,1,343.69,317.09Zm-23.3-52.65,24.38,41.8,30.85-26.91-19.54-51.59Z" transform="translate(-8.29 -22.32)"/><polygon class="c" points="103.44 395.69 103.44 359.28 53.89 195.4 147.81 277.34 241.71 116.33 335.61 277.34 429.54 195.4 379.98 359.28 379.98 395.69 103.44 395.69"/><path class="b" d="M388.27,422.27H111.73a4.25,4.25,0,0,1-4.26-4.25V382.24L58.1,219A4.25,4.25,0,0,1,65,214.52L155,293.07l91.3-156.55a4.43,4.43,0,0,1,7.36,0L345,293.07l90-78.55A4.25,4.25,0,0,1,441.9,219L392.53,382.24V418A4.25,4.25,0,0,1,388.27,422.27ZM116,413.76H384V381.61a4.34,4.34,0,0,1,.19-1.24l45.27-149.7-82.77,72.2a4.25,4.25,0,0,1-6.48-1.06L250,147.11l-90.22,154.7a4.25,4.25,0,0,1-6.48,1.06l-82.77-72.2,45.27,149.7a4.34,4.34,0,0,1,.19,1.24Z" transform="translate(-8.29 -22.32)"/><path class="a" d="M377,383.76a9,9,0,0,0-5.71-8.46C346.93,366,301.75,359.68,250,359.68S153.07,366,128.74,375.3a9,9,0,0,0-5.71,8.46v26.33H377Z" transform="translate(-8.29 -22.32)"/><path class="d" d="M220.79,294.27l27.14,46.55a2.4,2.4,0,0,0,4.14,0l27.14-46.55a2.37,2.37,0,0,0,0-2.41l-27.14-46.55a2.4,2.4,0,0,0-4.14,0l-27.14,46.55A2.37,2.37,0,0,0,220.79,294.27Z" transform="translate(-8.29 -22.32)"/><path class="b" d="M250,346.26a6.57,6.57,0,0,1-5.74-3.3l-27.15-46.55a6.61,6.61,0,0,1,0-6.7l27.14-46.55a6.64,6.64,0,0,1,11.48,0l27.15,46.55a6.63,6.63,0,0,1,0,6.71L255.74,343A6.57,6.57,0,0,1,250,346.26Zm-25-53.2,25,42.85,25-42.85-25-42.85Zm50.53.94h0Zm-51.07,0h0Zm51.07-1.88h0Zm-51.08,0Z" transform="translate(-8.29 -22.32)"/><path class="c" d="M232.34,293.69l13.7,23.5a1.25,1.25,0,0,0,2.31-.87l-4.49-23a1.29,1.29,0,0,1,0-.48l4.49-23a1.25,1.25,0,0,0-2.31-.87l-13.7,23.49A1.24,1.24,0,0,0,232.34,293.69Z" transform="translate(-8.29 -22.32)"/><circle class="d" cx="241.71" cy="116.34" r="28.91"/><path class="b" d="M250,171.83a33.17,33.17,0,1,1,33.17-33.17A33.21,33.21,0,0,1,250,171.83ZM250,114a24.66,24.66,0,1,0,24.66,24.66A24.69,24.69,0,0,0,250,114Z" transform="translate(-8.29 -22.32)"/><path class="d" d="M97.2,439.19v-24C97.2,396.32,165.61,381,250,381s152.8,15.32,152.8,34.23v21.21" transform="translate(-8.29 -22.32)"/><path class="b" d="M101.46,439.19H92.94v-24c0-25.27,79-38.49,157.06-38.49S407.06,390,407.06,415.23v21.21h-8.52V415.23c0-12.52-56.51-30-148.54-30s-148.54,17.46-148.54,30Z" transform="translate(-8.29 -22.32)"/><ellipse class="d" cx="241.71" cy="416.86" rx="152.8" ry="34.23"/><path class="b" d="M250,477.68c-78.05,0-157.06-13.22-157.06-38.49S172,400.7,250,400.7s157.06,13.22,157.06,38.49S328.05,477.68,250,477.68Zm0-68.47c-92,0-148.54,17.46-148.54,30s56.51,30,148.54,30,148.54-17.46,148.54-30S342,409.21,250,409.21Z" transform="translate(-8.29 -22.32)"/><ellipse class="a" cx="241.71" cy="432.61" rx="113.73" ry="18.49"/><path class="b" d="M250,477.68c-4.82,0-118-.26-118-22.75s113.16-22.74,118-22.74,118,.25,118,22.74S254.82,477.68,250,477.68ZM140.71,454.93c4.13,5,39.88,14.23,109.29,14.23S355.16,460,359.29,454.93c-4.13-5-39.88-14.23-109.29-14.23S144.84,449.89,140.71,454.93Z" transform="translate(-8.29 -22.32)"/><circle class="c" cx="429.54" cy="195.02" r="19.39"/><path class="b" d="M437.82,241a23.65,23.65,0,1,1,23.65-23.64A23.67,23.67,0,0,1,437.82,241Zm0-38.77A15.13,15.13,0,1,0,453,217.35,15.14,15.14,0,0,0,437.82,202.22Z" transform="translate(-8.29 -22.32)"/><circle class="c" cx="53.89" cy="195.02" r="19.39"/><path class="b" d="M62.18,241a23.65,23.65,0,1,1,23.64-23.64A23.67,23.67,0,0,1,62.18,241Zm0-38.77a15.13,15.13,0,1,0,15.13,15.13A15.15,15.15,0,0,0,62.18,202.22Z" transform="translate(-8.29 -22.32)"/><circle class="a" cx="132.83" cy="188.92" r="11.01"/><path class="b" d="M141.11,226.51a15.27,15.27,0,1,1,15.27-15.27A15.29,15.29,0,0,1,141.11,226.51Zm0-22a6.76,6.76,0,1,0,6.76,6.76A6.77,6.77,0,0,0,141.11,204.48Z" transform="translate(-8.29 -22.32)"/><circle class="a" cx="350.6" cy="188.92" r="11.01"/><path class="b" d="M358.89,226.51a15.27,15.27,0,1,1,15.27-15.27A15.29,15.29,0,0,1,358.89,226.51Zm0-22a6.76,6.76,0,1,0,6.75,6.76A6.77,6.77,0,0,0,358.89,204.48Z" transform="translate(-8.29 -22.32)"/><path class="b" d="M63.28,367.38a4.23,4.23,0,0,1-2.72-1L9.82,324.16a4.26,4.26,0,1,1,5.45-6.54L66,359.85a4.26,4.26,0,0,1-2.73,7.53Z" transform="translate(-8.29 -22.32)"/><path class="b" d="M120.42,164a4.24,4.24,0,0,1-3.72-2.18L81.93,99.38a4.26,4.26,0,1,1,7.44-4.14l34.77,62.47a4.26,4.26,0,0,1-3.72,6.32Z" transform="translate(-8.29 -22.32)"/><path class="b" d="M249.22,77.48A4.25,4.25,0,0,1,245,73.23V26.58a4.26,4.26,0,1,1,8.51,0V73.23A4.25,4.25,0,0,1,249.22,77.48Z" transform="translate(-8.29 -22.32)"/><path class="b" d="M436.72,367.38a4.26,4.26,0,0,1-2.73-7.53l50.74-42.23a4.26,4.26,0,1,1,5.45,6.54l-50.74,42.23A4.23,4.23,0,0,1,436.72,367.38Z" transform="translate(-8.29 -22.32)"/><path class="b" d="M379.58,164a4.26,4.26,0,0,1-3.72-6.32l34.77-62.47a4.26,4.26,0,1,1,7.44,4.14L383.3,161.85A4.24,4.24,0,0,1,379.58,164Z" transform="translate(-8.29 -22.32)"/><path class="d" d="M166.42,96.89a4.26,4.26,0,0,1-4.26-4.26V73.33a4.26,4.26,0,1,1,8.51,0v19.3A4.25,4.25,0,0,1,166.42,96.89Z" transform="translate(-8.29 -22.32)"/><path class="d" d="M176.07,87.23h-19.3a4.26,4.26,0,1,1,0-8.51h19.3a4.26,4.26,0,0,1,0,8.51Z" transform="translate(-8.29 -22.32)"/><path class="d" d="M329,158.73a4.17,4.17,0,0,1-1-.13,4.27,4.27,0,0,1-3.1-5.16l4.67-18.73a4.26,4.26,0,0,1,8.27,2.06l-4.67,18.73A4.26,4.26,0,0,1,329,158.73Z" transform="translate(-8.29 -22.32)"/><path class="d" d="M340.66,151.7a4.17,4.17,0,0,1-1-.13L320.9,146.9a4.26,4.26,0,1,1,2.06-8.26l18.72,4.67a4.26,4.26,0,0,1-1,8.39Z" transform="translate(-8.29 -22.32)"/></svg>