<svg xmlns="http://www.w3.org/2000/svg" width="90" height="26.72" viewBox="0 0 90 26.72"><title>orsai_logo_footer</title><g id="Capa_2" data-name="Capa 2"><g id="FRENTE"><path d="M66.48,10.93c.09.33.17.64.27.93a3,3,0,0,1,.18.78.63.63,0,0,0,0,.24.57.57,0,0,1,0,.55,2,2,0,0,0,0,.43,2.19,2.19,0,0,0-.17.29,1.25,1.25,0,0,1-.59.71,3.34,3.34,0,0,1-.81.38,3.45,3.45,0,0,1-.72.08,11.47,11.47,0,0,1-1.31,0,2.2,2.2,0,0,1-1.94-1.24,2.55,2.55,0,0,1,0-2.33c.09-.17.26-.25.31-.43s.23-.24.37-.35a10,10,0,0,1,.81-.6,7.67,7.67,0,0,1,1.9-.89c.43-.15.88-.22,1.3-.38.21-.08.44,0,.66-.1a5,5,0,0,1,1.16-.11q1,0,2.07,0c.52,0,1,.06,1.57.09.22.19.5.07.75.14s.5.11.73.18a8.25,8.25,0,0,1,1.35.62,3.9,3.9,0,0,1,1.06,1,4.77,4.77,0,0,1,.9,1.9c.07.32,0,.66.1,1a9.7,9.7,0,0,1,.09,1.78c0,.51-.15,1-.11,1.52s0,1,0,1.56a9,9,0,0,1,0,1.56,18.74,18.74,0,0,0-.08,2.48,2.05,2.05,0,0,0,.31,1.08,1.32,1.32,0,0,0,.85.58,2.88,2.88,0,0,0,.51.1h1.24v.38a4.36,4.36,0,0,1,.69-.07,2.56,2.56,0,0,0,1.38-.43,1.12,1.12,0,0,0,.46-.86,22.7,22.7,0,0,0,.1-3.08c0-1,0-2.09,0-3.13V13.63a1.58,1.58,0,0,0-.09-.57c-.06-.17,0-.37-.1-.56a2.37,2.37,0,0,0-.85-1,4.46,4.46,0,0,0-1.36-.5l-.61-.13V9.61c.33,0,.67-.11,1-.13s.67,0,1,0,.74-.07,1.12-.09a6.72,6.72,0,0,0,1.1,0c.59-.14,1.19,0,1.77-.1A16.87,16.87,0,0,1,87,9.17c.06,0,.11-.05.19-.08l.23.27V14.6c0,2.69,0,5.38,0,8.06,0,.22.1.41.11.62s.19.36.27.54a1.07,1.07,0,0,0,.73.55,3.26,3.26,0,0,0,1.23.33c.09,0,.19.09.29.14v1.21c-.42.08-9.18.11-10.77,0v-.27c-.11,0-.21,0-.28,0a9.35,9.35,0,0,1-1.93.59,4.37,4.37,0,0,0-.76.1,2.1,2.1,0,0,1-.82.08c-.27,0-.54,0-.81,0s-.46-.14-.71-.11a2.11,2.11,0,0,1-.66-.1,2.46,2.46,0,0,1-.66-.23,3.09,3.09,0,0,1-1.7-2l-.57.57a6.42,6.42,0,0,1-2.42,1.44l-.58.21a1.58,1.58,0,0,1-.31.09,7,7,0,0,1-.91.1c-.47,0-.94,0-1.41,0a4.67,4.67,0,0,1-2.78-.95,3.5,3.5,0,0,1-1.26-1.53A5.89,5.89,0,0,1,60.35,23a3.55,3.55,0,0,1-.06-1,5.32,5.32,0,0,1,.48-2,4.52,4.52,0,0,1,2-2,7.53,7.53,0,0,1,1.77-.71,3.86,3.86,0,0,1,1.09-.4,9.55,9.55,0,0,1,1.11-.36c.57-.13,1.11-.33,1.68-.46a12.93,12.93,0,0,0,1.33-.44l.91-.36a1.73,1.73,0,0,0,.21-.13c0-.54,0-1.08,0-1.61a8.27,8.27,0,0,1-.1-.87,2.73,2.73,0,0,0-.1-.81,2.3,2.3,0,0,0-1.34-1.58,2.47,2.47,0,0,0-1.57-.05,4.4,4.4,0,0,0-.8.26A3.58,3.58,0,0,0,66.48,10.93ZM70.88,17c-.39.19-.74.26-1.06.41s-.7.27-1,.44A5.15,5.15,0,0,0,67,19.15,3.72,3.72,0,0,0,66.22,21c0,.34,0,.68,0,1a4.79,4.79,0,0,0,.35,1.07,2.32,2.32,0,0,0,2.32.78,3.06,3.06,0,0,0,.78-.32,6.76,6.76,0,0,0,1.08-.91V18.35c0-.12,0-.26,0-.35C71,17.69,70.8,17.37,70.88,17Z" style="fill:gray"/><path d="M15.25,1.65c-.12.63-.25,1.26-.44,1.91a4.37,4.37,0,0,0-2.3-.32,5.44,5.44,0,0,0-1.24.29A5.09,5.09,0,0,0,8.69,5.72a9.28,9.28,0,0,0-1,2.3,8.08,8.08,0,0,0-.4,1.75c-.18.21,0,.48-.14.7s0,.46-.06.68A12.67,12.67,0,0,0,7,12.51a20.74,20.74,0,0,0-.09,2.84A7.45,7.45,0,0,1,7,16.76c0,.26.07.51.1.77a4,4,0,0,0,.11.71,9.08,9.08,0,0,0,.48,1.86,3.27,3.27,0,0,0,.44,1.33,7.42,7.42,0,0,0,.67,1.24,5.91,5.91,0,0,0,1.88,1.81,3.05,3.05,0,0,0,1.19.4,3.44,3.44,0,0,0,.91.12c.3,0,.61,0,.91,0a9.71,9.71,0,0,0,1.18-.3A5,5,0,0,0,17,23.1a2.57,2.57,0,0,0,.48-.7c.1-.25.25-.47.36-.71a11.33,11.33,0,0,0,.67-1.79,6,6,0,0,0,.19-.73,1.93,1.93,0,0,1,.14-.69c.14-.23-.08-.51.16-.69,0,0,0,0,0-.05,0-.43.1-.85.09-1.27,0-.58.16-1.14.12-1.72s0-1.18,0-1.77a11.72,11.72,0,0,1-.1-1.57c-.15-.24-.06-.51-.11-.76-.08-.47-.14-.94-.26-1.4s-.12-.68-.23-1a2.22,2.22,0,0,0-.11-.41,2,2,0,0,1-.08-1.54c.2-.16,0-.43.17-.63s.06-.44.12-.66a9.84,9.84,0,0,0,.31-1.43c.2-.21,0-.56.28-.75a12.64,12.64,0,0,1,2.24,1.36,9.38,9.38,0,0,1,1.22,1.05A12.48,12.48,0,0,1,24,6.89a9.41,9.41,0,0,1,1,1.85c.15.44.35.86.48,1.31a6.54,6.54,0,0,1,.28,1.14c0,.16.08.31.1.47s0,.29.1.41,0,.06,0,.1c-.07.68.17,1.35.1,2a11.09,11.09,0,0,0-.1,1.52,1,1,0,0,0-.1.62c0,.19-.17.35-.1.56A16.54,16.54,0,0,1,25.07,19c-.2.42-.33.87-.56,1.28a12.25,12.25,0,0,1-1,1.64A12.3,12.3,0,0,1,22.61,23a12.38,12.38,0,0,1-3.55,2.49,11,11,0,0,1-1.56.62c-.38.1-.76.21-1.14.29a5.32,5.32,0,0,1-1.53.2,1.52,1.52,0,0,1-.87.09q-.93,0-1.86,0a7.23,7.23,0,0,1-1.47-.11c-.62-.14-1.26-.25-1.87-.44a13.1,13.1,0,0,1-2.13-.84,9.91,9.91,0,0,1-1.95-1.24c-.36-.31-.76-.57-1.09-.9a12.43,12.43,0,0,1-1.71-2.11c-.26-.41-.46-.85-.68-1.28a9.4,9.4,0,0,1-.66-1.69C.45,17.73.37,17.35.3,17a13,13,0,0,1-.19-1.88,3.5,3.5,0,0,1-.08-1,5.41,5.41,0,0,0,.08-1.33,4.54,4.54,0,0,0,.12-.66,2.15,2.15,0,0,1,.09-.61c0-.22.07-.45.13-.66A13.11,13.11,0,0,1,.93,9.36c.18-.46.39-.91.61-1.35A11.21,11.21,0,0,1,2.67,6.25,10.57,10.57,0,0,1,3.79,5,12.54,12.54,0,0,1,6.14,3.22,14.07,14.07,0,0,1,7.66,2.5c.47-.19,1-.33,1.46-.48.33-.1.66-.19,1-.27.12,0,.26,0,.38,0a2.54,2.54,0,0,1,.37-.1A15,15,0,0,1,13,1.52h.25A11.56,11.56,0,0,1,15.25,1.65Z" style="fill:gray"/><path d="M45.8,25.19l-.51,1.11H43.85V24.24c0-.53-.14-1-.11-1.58a7.77,7.77,0,0,0,0-1.6c0-.36-.07-.71-.09-1.09H45c.25.5.47,1,.75,1.5a8.21,8.21,0,0,0,.89,1.29,8.58,8.58,0,0,0,1.11,1.06,10.9,10.9,0,0,0,1.24.8,3.75,3.75,0,0,0,1.77.48h1a2.52,2.52,0,0,0,2-1,1.65,1.65,0,0,0,.24-.65c0-.17,0-.35.08-.52a1.81,1.81,0,0,0-.13-.74A1.74,1.74,0,0,0,53,21.07a7.17,7.17,0,0,0-1-.48,5.64,5.64,0,0,0-.93-.31,6.06,6.06,0,0,1-.86-.24,2.26,2.26,0,0,1-.84-.28,4.23,4.23,0,0,1-1.26-.36A11.56,11.56,0,0,1,47,18.85a5.47,5.47,0,0,1-1.88-1.57,6,6,0,0,1-.84-1.67s0,0,0-.08c0-.31-.08-.61-.09-.92a3,3,0,0,1,0-.9,7.88,7.88,0,0,1,.25-1.15,5,5,0,0,1,.52-1,5.49,5.49,0,0,1,2.33-1.88,9.87,9.87,0,0,1,2-.62,10.49,10.49,0,0,1,1.48-.18,13.53,13.53,0,0,1,1.56,0A7.35,7.35,0,0,1,53.44,9a2.52,2.52,0,0,1,1,.28,5.29,5.29,0,0,1,1.5.4l.3.1a2.45,2.45,0,0,0,.4-.9H58c.05.36,0,.72.1,1.07a5,5,0,0,1,0,1.1v.51c0,.39.14.77.11,1.17a6,6,0,0,0,0,1.2c0,.26.15.5.06.77H57.08c0-.22-.26-.39-.24-.64a7.49,7.49,0,0,0-.92-1.44c-.19-.2-.36-.42-.54-.63A10.68,10.68,0,0,0,54,10.89a4.82,4.82,0,0,0-1.39-.4c-.14,0-.24-.08-.36-.1a4.93,4.93,0,0,0-1.95.4,1.79,1.79,0,0,0-1,1.84,1.91,1.91,0,0,0,1.13,1.59,14.4,14.4,0,0,0,2.19.81c.9.25,1.8.51,2.68.82a6.48,6.48,0,0,1,.8.38l.79.4c.15.09.25.24.42.33a3.07,3.07,0,0,1,.59.5,4.8,4.8,0,0,1,.72,1,3.91,3.91,0,0,1,.55,2.14,7.3,7.3,0,0,0,0,.81,3.37,3.37,0,0,1-.15.95,3.78,3.78,0,0,1-.58,1.37,5.55,5.55,0,0,1-1.88,1.72,8.11,8.11,0,0,1-3.24,1.07,19.27,19.27,0,0,1-2.63.09,9.08,9.08,0,0,1-2.63-.46c-.63-.16-1.19-.47-1.8-.66A2.1,2.1,0,0,1,45.8,25.19Z" style="fill:gray"/><path d="M26.83,26.09V24.78a4.44,4.44,0,0,1,.61-.08,3.3,3.3,0,0,0,1-.21,1.38,1.38,0,0,0,.67-.42,1.71,1.71,0,0,0,.25-.8V13.1a1.89,1.89,0,0,0-.54-1.29A2.62,2.62,0,0,0,27.51,11c-.27-.08-.56-.11-.87-.17V9.6c.34,0,.67-.1,1-.12a9.17,9.17,0,0,0,1.05,0c.69-.13,1.4,0,2.07-.12s1.13,0,1.68-.09a15.17,15.17,0,0,1,2-.09c.06,0,.11-.05.16-.08l.37.35v2.28l1-.94a7.06,7.06,0,0,1,2.17-1.45,5.69,5.69,0,0,1,.94-.28A6.29,6.29,0,0,1,40.79,9a2.83,2.83,0,0,1,1.67.67,3,3,0,0,1,1,1.53,2.7,2.7,0,0,1,.15.8c0,.28,0,.57,0,.85a3,3,0,0,1-.81,1.93,3.11,3.11,0,0,1-.78.66,2.38,2.38,0,0,1-1,.28,3.6,3.6,0,0,1-2.21-.48,2.93,2.93,0,0,1-1-1.28.45.45,0,0,1,0-.2c0-.39,0-.78,0-1.16a6.65,6.65,0,0,1,.16-.8,3.07,3.07,0,0,0-1.53.51A7,7,0,0,0,35,13.56V23a1.26,1.26,0,0,0,.45,1.06,2.3,2.3,0,0,0,.79.41,6.1,6.1,0,0,0,1.42.22,2.77,2.77,0,0,1,.56.11v1.28Z" style="fill:gray"/><path d="M85.11,6.14c-.27,0-.65.14-1,.12a3.72,3.72,0,0,1-1.6-.41,3.21,3.21,0,0,1-1.24-1.13,1.79,1.79,0,0,1-.4-1.1.85.85,0,0,1-.09-.71,3.56,3.56,0,0,1,.53-1.49A3.91,3.91,0,0,1,83,.13a2.06,2.06,0,0,1,.7-.12c.2,0,.41,0,.61,0A3.24,3.24,0,0,1,87,1.48,2.67,2.67,0,0,1,87.48,3a3.29,3.29,0,0,1-.19,1.28A3.09,3.09,0,0,1,86.9,5a4.47,4.47,0,0,1-1.16,1A2.8,2.8,0,0,1,85.11,6.14Z" style="fill:gray"/></g></g></svg>