<svg xmlns="http://www.w3.org/2000/svg" width="97.41" height="23.79" viewBox="0 0 97.41 23.79"><defs><style>.a{fill:#253b80;}.b{fill:#179bd7;}.c{fill:#222d65;}</style></defs><path class="a" d="M36.42,5.33H31a.75.75,0,0,0-.75.63L28.1,19.78a.47.47,0,0,0,.38.52h2.65a.74.74,0,0,0,.74-.63l.59-3.73a.74.74,0,0,1,.74-.63h1.71q5.33,0,6.14-5.12a4.16,4.16,0,0,0-.69-3.48A5,5,0,0,0,36.42,5.33Zm.62,5c-.3,1.93-1.78,1.93-3.21,1.93H33l.57-3.61A.45.45,0,0,1,34,8.32h.38c1,0,1.89,0,2.37.55A1.83,1.83,0,0,1,37,10.37Zm15.5-.06H50a.46.46,0,0,0-.45.38l-.11.72-.19-.27a3.67,3.67,0,0,0-3-1.07,5.93,5.93,0,0,0-5.76,5.19,4.81,4.81,0,0,0,1,4,4,4,0,0,0,3.25,1.32,5,5,0,0,0,3.58-1.48l-.12.72a.47.47,0,0,0,.38.52h2.39a.76.76,0,0,0,.75-.63L53,10.84a.45.45,0,0,0-.36-.52Zm-3.61,5A2.88,2.88,0,0,1,46,17.8a2,2,0,0,1-2.13-2.51,2.88,2.88,0,0,1,2.9-2.48,2.18,2.18,0,0,1,1.71.69A2.29,2.29,0,0,1,48.93,15.34Zm17.35-5h-2.6a.74.74,0,0,0-.62.33l-3.57,5.27L58,10.85a.76.76,0,0,0-.73-.54H54.69a.44.44,0,0,0-.45.45.35.35,0,0,0,0,.14l2.85,8.39-2.69,3.79a.45.45,0,0,0,.1.63.42.42,0,0,0,.26.08h2.59a.74.74,0,0,0,.62-.32L66.62,11a.45.45,0,0,0-.11-.63.3.3,0,0,0-.23-.08Z"/><path class="b" d="M74.86,5.33H69.47a.75.75,0,0,0-.75.63L66.54,19.78a.47.47,0,0,0,.38.52h2.84a.52.52,0,0,0,.52-.45l.62-3.92a.74.74,0,0,1,.74-.63h1.71c3.55,0,5.6-1.72,6.14-5.12A4.16,4.16,0,0,0,78.8,6.7,5,5,0,0,0,74.86,5.33Zm.63,5c-.3,1.93-1.78,1.93-3.21,1.93h-.81L72,8.69a.45.45,0,0,1,.45-.37h.38c1,0,1.89,0,2.37.55A1.87,1.87,0,0,1,75.49,10.37ZM91,10.31H88.4a.46.46,0,0,0-.45.38l-.11.72-.19-.27a3.67,3.67,0,0,0-3-1.07,5.93,5.93,0,0,0-5.76,5.19,4.88,4.88,0,0,0,1,4,4,4,0,0,0,3.25,1.32,4.92,4.92,0,0,0,3.57-1.48l-.11.72a.47.47,0,0,0,.38.52h2.39a.76.76,0,0,0,.75-.63l1.39-8.83a.44.44,0,0,0-.37-.52Zm-3.6,5a2.88,2.88,0,0,1-2.91,2.46,2,2,0,0,1-2.13-2.51,2.88,2.88,0,0,1,2.9-2.48A2.2,2.2,0,0,1,87,13.5,2.36,2.36,0,0,1,87.38,15.34ZM94,5.7,91.81,19.78a.47.47,0,0,0,.38.52h2.29a.74.74,0,0,0,.74-.63L97.4,5.84A.44.44,0,0,0,97,5.33H94.47A.45.45,0,0,0,94,5.7Z"/><path class="a" d="M5.72,23l.42-2.63-.92,0H.83L3.88,1A.25.25,0,0,1,4.13.81h7.39c2.45,0,4.15.52,5,1.53a3.47,3.47,0,0,1,.8,1.51,5.16,5.16,0,0,1,0,2.08v.6l.41.24a2.73,2.73,0,0,1,1.51,2.16,6.25,6.25,0,0,1-.09,2.21,7.72,7.72,0,0,1-.9,2.51,5.21,5.21,0,0,1-1.45,1.58,5.67,5.67,0,0,1-1.93.87,9.46,9.46,0,0,1-2.42.28H11.9a1.73,1.73,0,0,0-1.12.41,1.77,1.77,0,0,0-.59,1l0,.24-.74,4.62,0,.17a.23.23,0,0,1-.05.11s0,0-.08,0S5.72,23,5.72,23Z"/><path class="b" d="M18.16,6.05a3.58,3.58,0,0,1-.08.43c-1,5-4.3,6.74-8.56,6.74H7.35a1.05,1.05,0,0,0-1,.89L5.2,21.16l-.31,2a.55.55,0,0,0,.46.63H9.27a.93.93,0,0,0,.92-.78l0-.19.72-4.6L11,18a.93.93,0,0,1,.92-.78h.57c3.72,0,6.65-1.51,7.5-5.88.36-1.84.18-3.36-.76-4.44A3.51,3.51,0,0,0,18.16,6.05Z"/><path class="c" d="M17.14,5.64a5.21,5.21,0,0,0-.95-.21,12.19,12.19,0,0,0-1.91-.14H8.48a.92.92,0,0,0-.91.78L6.33,13.88l0,.23a1.05,1.05,0,0,1,1-.89H9.5c4.26,0,7.6-1.73,8.57-6.74a3.58,3.58,0,0,0,.08-.43,5.7,5.7,0,0,0-.8-.35Z"/><path class="a" d="M7.58,6.07a.93.93,0,0,1,.92-.78h5.79a12.5,12.5,0,0,1,1.91.14,8.67,8.67,0,0,1,1.17.27,4.83,4.83,0,0,1,.8.35,4.73,4.73,0,0,0-1-4.25C16.07.54,14.07,0,11.53,0H4.13a1.06,1.06,0,0,0-1,.89L0,20.41a.62.62,0,0,0,.53.72H5.2l1.14-7.27S7.58,6.07,7.58,6.07Z"/></svg>