<svg xmlns="http://www.w3.org/2000/svg" viewBox="0 0 398.06 398.06"><defs><style>.a{fill:#f6d87f;}.b{fill:#1e1e1c;}.c{fill:#fff;}.d{fill:#e5edf1;}</style></defs><circle class="a" cx="199.03" cy="199.03" r="194.49"/><path class="b" d="M250,449C140.25,449,51,359.75,51,250S140.25,51,250,51s199,89.28,199,199S359.74,449,250,449Zm0-389C145.26,60.06,60.06,145.27,60.06,250S145.26,439.94,250,439.94,439.94,354.73,439.94,250,354.73,60.06,250,60.06Z" transform="translate(-50.97 -50.97)"/><circle class="c" cx="199.03" cy="199.03" r="167.7"/><path class="b" d="M250,422.25C155,422.25,77.75,345,77.75,250S155,77.75,250,77.75,422.25,155,422.25,250,345,422.25,250,422.25Zm0-335.41C160,86.84,86.84,160,86.84,250S160,413.16,250,413.16,413.16,340,413.16,250,340,86.84,250,86.84Z" transform="translate(-50.97 -50.97)"/><circle class="c" cx="199.03" cy="199.03" r="167.7"/><path class="b" d="M250,422.25C155,422.25,77.75,345,77.75,250S155,77.75,250,77.75,422.25,155,422.25,250,345,422.25,250,422.25Zm0-335.41C160,86.84,86.84,160,86.84,250S160,413.16,250,413.16,413.16,340,413.16,250,340,86.84,250,86.84Z" transform="translate(-50.97 -50.97)"/><path class="d" d="M250,82.3c-4.11,0-8.18.2-12.22.49a167.65,167.65,0,0,1,0,334.42c4,.29,8.11.49,12.22.49a167.7,167.7,0,0,0,0-335.4Z" transform="translate(-50.97 -50.97)"/><path class="b" d="M245.36,133.47a4.55,4.55,0,0,1-4.55-4.54V111a4.55,4.55,0,1,1,9.09,0v17.91A4.54,4.54,0,0,1,245.36,133.47Z" transform="translate(-50.97 -50.97)"/><path class="b" d="M245.36,390.47a4.55,4.55,0,0,1-4.55-4.55V368a4.55,4.55,0,1,1,9.09,0v17.9A4.55,4.55,0,0,1,245.36,390.47Z" transform="translate(-50.97 -50.97)"/><path class="b" d="M245.36,145.8a4.55,4.55,0,0,1-4.55-4.55V111a4.55,4.55,0,1,1,9.09,0v30.23A4.55,4.55,0,0,1,245.36,145.8Z" transform="translate(-50.97 -50.97)"/><path class="b" d="M245.36,390.47a4.55,4.55,0,0,1-4.55-4.55V355.69a4.55,4.55,0,0,1,9.09,0v30.23A4.55,4.55,0,0,1,245.36,390.47Z" transform="translate(-50.97 -50.97)"/><path class="b" d="M382.81,253H352.58a4.55,4.55,0,1,1,0-9.09h30.23a4.55,4.55,0,1,1,0,9.09Z" transform="translate(-50.97 -50.97)"/><path class="b" d="M138.14,253H107.91a4.55,4.55,0,1,1,0-9.09h30.23a4.55,4.55,0,1,1,0,9.09Z" transform="translate(-50.97 -50.97)"/><path class="b" d="M342.55,350.21a4.52,4.52,0,0,1-3.21-1.33L332.49,342a4.54,4.54,0,0,1,6.42-6.43l6.86,6.85a4.55,4.55,0,0,1-3.22,7.76Z" transform="translate(-50.97 -50.97)"/><path class="b" d="M155,162.68a4.51,4.51,0,0,1-3.21-1.34L145,154.49a4.55,4.55,0,0,1,6.43-6.43l6.85,6.86a4.55,4.55,0,0,1-3.21,7.76Z" transform="translate(-50.97 -50.97)"/><path class="b" d="M148.17,350.21a4.55,4.55,0,0,1-3.22-7.76l6.86-6.85a4.54,4.54,0,0,1,6.42,6.43l-6.85,6.85A4.56,4.56,0,0,1,148.17,350.21Z" transform="translate(-50.97 -50.97)"/><path class="b" d="M335.7,162.68a4.55,4.55,0,0,1-3.21-7.76l6.85-6.86a4.55,4.55,0,0,1,6.43,6.43l-6.86,6.85A4.53,4.53,0,0,1,335.7,162.68Z" transform="translate(-50.97 -50.97)"/><path class="b" d="M245.36,233.22a4.55,4.55,0,0,1-4.55-4.55V181.35a4.55,4.55,0,0,1,9.09,0v47.32A4.55,4.55,0,0,1,245.36,233.22Z" transform="translate(-50.97 -50.97)"/><path class="b" d="M315.23,324.74a4.53,4.53,0,0,1-3.26-1.38l-69.86-71.72a4.54,4.54,0,1,1,6.5-6.34L318.48,317a4.54,4.54,0,0,1-3.25,7.72Z" transform="translate(-50.97 -50.97)"/><circle class="a" cx="194.39" cy="197.5" r="19.8"/><path class="b" d="M245.36,272.81a24.34,24.34,0,1,1,24.34-24.34A24.37,24.37,0,0,1,245.36,272.81Zm0-39.59a15.25,15.25,0,1,0,15.25,15.25A15.27,15.27,0,0,0,245.36,233.22Z" transform="translate(-50.97 -50.97)"/><path class="b" d="M250,422.25C155,422.25,77.75,345,77.75,250S155,77.75,250,77.75,422.25,155,422.25,250,345,422.25,250,422.25Zm0-335.41C160,86.84,86.84,160,86.84,250S160,413.16,250,413.16,413.16,340,413.16,250,340,86.84,250,86.84Z" transform="translate(-50.97 -50.97)"/></svg>