<svg xmlns="http://www.w3.org/2000/svg" viewBox="0 0 317.39 444.84"><defs><style>.a{opacity:0.25;}.b{fill:#e5edf1;}.c{fill:#1e1e1c;}.d{fill:#f6d87f;}</style></defs><g class="a"><path class="b" d="M304.05,32.92v74.62a26,26,0,0,0,26,26h74.62" transform="translate(-91.31 -27.58)"/><path class="c" d="M404.66,138.87H330a31.37,31.37,0,0,1-31.34-31.33V32.92h10.68v74.62A20.68,20.68,0,0,0,330,128.19h74.62Z" transform="translate(-91.31 -27.58)"/><path class="c" d="M362.3,472.42H137.71A46.44,46.44,0,0,1,91.31,426V74a46.44,46.44,0,0,1,46.4-46.39H295.25a41.86,41.86,0,0,1,29.8,12.34l71.3,71.31A42.43,42.43,0,0,1,408.69,141V426A46.44,46.44,0,0,1,362.3,472.42ZM137.71,38.25A35.76,35.76,0,0,0,102,74V426a35.76,35.76,0,0,0,35.73,35.72H362.3A35.76,35.76,0,0,0,398,426V141a31.65,31.65,0,0,0-9.22-22.24L317.5,47.46a31.29,31.29,0,0,0-22.25-9.21Z" transform="translate(-91.31 -27.58)"/><circle class="d" cx="158.7" cy="275.29" r="97.67"/><path class="c" d="M250,405.87a103,103,0,1,1,103-103A103.13,103.13,0,0,1,250,405.87Zm0-195.34a92.34,92.34,0,1,0,92.34,92.33A92.44,92.44,0,0,0,250,210.53Z" transform="translate(-91.31 -27.58)"/><path class="b" d="M254.3,246.72l10.52,32.39a4.54,4.54,0,0,0,4.31,3.12h34.05a4.52,4.52,0,0,1,2.66,8.18l-27.55,20a4.52,4.52,0,0,0-1.65,5.05l10.53,32.39a4.53,4.53,0,0,1-7,5.06l-27.55-20a4.53,4.53,0,0,0-5.32,0l-27.55,20a4.53,4.53,0,0,1-7-5.06l10.53-32.39a4.52,4.52,0,0,0-1.65-5.05l-27.54-20a4.52,4.52,0,0,1,2.65-8.18h34.06a4.52,4.52,0,0,0,4.3-3.12l10.52-32.39A4.52,4.52,0,0,1,254.3,246.72Z" transform="translate(-91.31 -27.58)"/><path class="c" d="M282.87,359.14a9.86,9.86,0,0,1-5.8-1.9l-27.55-20-26.59,20a9.85,9.85,0,0,1-15.17-11l10.52-32.38L191,294.73a9.7,9.7,0,0,1-3.58-11,9.83,9.83,0,0,1,9.37-6.81h34.06l9.75-31.83a9.83,9.83,0,0,1,9.36-6.81h0a9.83,9.83,0,0,1,9.38,6.81h0l10.52,32.39,33.28-.56a9.83,9.83,0,0,1,9.37,6.81,9.7,9.7,0,0,1-3.58,11l-27.54,20,10.81,31.48a9.87,9.87,0,0,1-9.37,12.92Zm-83.53-71.57,25.52,18.54a9.82,9.82,0,0,1,3.57,11l-9.75,30L244.2,328.6a9.81,9.81,0,0,1,11.6,0l25.52,18.53-9.75-30a9.8,9.8,0,0,1,3.6-11l25.49-18.53H269.13a9.82,9.82,0,0,1-9.38-6.82l-10-30.88-9.47,30.89a9.82,9.82,0,0,1-9.37,6.81Zm49.89-39.2h0Z" transform="translate(-91.31 -27.58)"/><path class="c" d="M229.85,106.37H153.09a5.34,5.34,0,0,1,0-10.68h76.76a5.34,5.34,0,0,1,0,10.68Z" transform="translate(-91.31 -27.58)"/><path class="c" d="M191,154.42H153.09a5.34,5.34,0,0,1,0-10.68H191a5.34,5.34,0,0,1,0,10.68Z" transform="translate(-91.31 -27.58)"/></g></svg>