<svg xmlns="http://www.w3.org/2000/svg" width="48.88" height="30.34" viewBox="0 0 48.88 30.34"><g id="Capa_2" data-name="Capa 2"><g id="Contenido"><path d="M47,28v.16a1.72,1.72,0,0,1-1.72,1.72H4.45a1.72,1.72,0,0,1-1.72-1.72V28l22-22Z" style="fill:#e5edf0;stroke:#1d1d1b;stroke-miterlimit:10"/><path d="M24.44,29.59A16.91,16.91,0,0,0,2.73,27.71,1.4,1.4,0,0,1,.5,26.59V8A5.36,5.36,0,0,1,2.71,3.6,16.92,16.92,0,0,1,24.44,5.46Z" style="fill:#fff;stroke:#1d1d1b;stroke-linejoin:round"/><path d="M24.44,29.59a16.91,16.91,0,0,1,21.71-1.88,1.4,1.4,0,0,0,2.23-1.12V8a5.38,5.38,0,0,0-2.2-4.4A16.93,16.93,0,0,0,24.44,5.46Z" style="fill:#fff;stroke:#1d1d1b;stroke-linejoin:round"/><path d="M19.37,9.2a17,17,0,0,0-13.8,0" style="fill:none;stroke:#1d1d1b;stroke-linecap:round;stroke-linejoin:round"/><path d="M19.37,14.12a17,17,0,0,0-13.8,0" style="fill:none;stroke:#1d1d1b;stroke-linecap:round;stroke-linejoin:round"/><path d="M19.37,19a16.93,16.93,0,0,0-13.8,0" style="fill:none;stroke:#1d1d1b;stroke-linecap:round;stroke-linejoin:round"/><path d="M42.12,13.64a17,17,0,0,0-11.42,0,.89.89,0,0,1-1.18-.85V10.09a1.31,1.31,0,0,1,.81-1.23,16.94,16.94,0,0,1,12.16,0,1.3,1.3,0,0,1,.82,1.22V12.8A.89.89,0,0,1,42.12,13.64Z" style="fill:#f6d87f;stroke:#1d1d1b;stroke-miterlimit:10"/><path d="M43.31,19a16.91,16.91,0,0,0-13.79,0" style="fill:none;stroke:#1d1d1b;stroke-linecap:round;stroke-linejoin:round"/></g></g></svg>