<svg xmlns="http://www.w3.org/2000/svg" width="45.86" height="40.03" viewBox="0 0 45.86 40.03"><g id="Capa_2" data-name="Capa 2"><g id="Contenido"><path d="M5.51,17.93,3.65,10.58S9.39,9.4,11.1,16.16" style="fill:#e5edf0;stroke:#1d1d1b;stroke-linecap:round;stroke-linejoin:round"/><path d="M34.61,32.36c3.61-2.52,5.87-6.1,5.87-10.09,0-7.63-8.26-13.81-18.45-13.81-8.4,0-15.48,4.2-17.72,10H2.17A1.67,1.67,0,0,0,.5,20.08v4.39a1.67,1.67,0,0,0,1.67,1.67H4.33a13.87,13.87,0,0,0,5.11,6.22L7,34.8a1.3,1.3,0,0,0,0,1.83l2.52,2.52a1.3,1.3,0,0,0,1.83,0l4-4a23.86,23.86,0,0,0,13.33,0l4,4a1.3,1.3,0,0,0,1.83,0l2.52-2.52a1.29,1.29,0,0,0,0-1.83Z" style="fill:#fff;stroke:#1d1d1b;stroke-linejoin:round"/><path d="M27.92,14.22a14.63,14.63,0,0,0-11.79,0" style="fill:none;stroke:#1d1d1b;stroke-linecap:round;stroke-linejoin:round"/><path d="M40.52,22.75a2.44,2.44,0,1,0,2.83-2" style="fill:none;stroke:#1d1d1b;stroke-linecap:round;stroke-linejoin:round"/><path d="M11.09,33.4a15.58,15.58,0,0,1-5.92-5.48" style="fill:none;stroke:#1d1d1b;stroke-linecap:round;stroke-linejoin:round"/><path d="M40.48,22.27c0,4.65-3.07,8.76-7.77,11.27" style="fill:none;stroke:#1d1d1b;stroke-linecap:round;stroke-linejoin:round"/><path d="M18.88,13.31a15.15,15.15,0,0,1,6.29,0,6.8,6.8,0,1,0-6.29,0Z" style="fill:#f6d87f;stroke:#1d1d1b;stroke-miterlimit:10"/><path d="M13.4,20.71a1.77,1.77,0,1,0-3.53,0" style="fill:#fff;stroke:#1d1d1b;stroke-linecap:round;stroke-linejoin:round"/><path d="M7.7,16.15,6.34,8.69s5.81-.79,7.06,6.07" style="fill:#e5edf0;stroke:#1d1d1b;stroke-linecap:round;stroke-linejoin:round"/></g></g></svg>