<svg xmlns="http://www.w3.org/2000/svg" width="20.48" height="19.55" viewBox="0 0 20.48 19.55"><g id="Capa_2" data-name="Capa 2"><g id="Header"><path d="M14.49,19.55a.91.91,0,0,1-.52-.16L9.53,16.3H2.28A2.28,2.28,0,0,1,0,14V2.28A2.28,2.28,0,0,1,2.28,0H18.2a2.28,2.28,0,0,1,2.28,2.28V14A2.28,2.28,0,0,1,18.2,16.3H15.41v2.34a.92.92,0,0,1-.49.81A.94.94,0,0,1,14.49,19.55ZM2.28,1A1.28,1.28,0,0,0,1,2.28V14A1.28,1.28,0,0,0,2.28,15.3H9.84l4.57,3.17v-2.3a.87.87,0,0,1,.87-.87H18.2A1.28,1.28,0,0,0,19.48,14V2.28A1.28,1.28,0,0,0,18.2,1Z"/></g></g></svg>