<svg xmlns="http://www.w3.org/2000/svg" width="27.08" height="34.92" viewBox="0 0 27.08 34.92"><g id="Capa_2" data-name="Capa 2"><g id="Header"><path d="M5.69,1.07V29a15.61,15.61,0,0,0,2,1.59l5.84,3.85,5.83-3.85a15.05,15.05,0,0,0,2-1.59V1.07A54.34,54.34,0,0,0,5.69,1.07Z" style="fill:#fff;stroke:#1d1d1b;stroke-linejoin:round"/><path d="M1.67,1.82A1.47,1.47,0,0,0,.5,3.26V17.18A16,16,0,0,0,5.69,29V1.07C4.6,1.23,2.84,1.58,1.67,1.82Z" style="fill:#e5edf0;stroke:#1d1d1b;stroke-miterlimit:10"/><path d="M21.39,29a16,16,0,0,0,5.19-11.8V3.24A1.48,1.48,0,0,0,25.43,1.8c-1.34-.3-2.68-.53-4-.73Z" style="fill:#e5edf0;stroke:#1d1d1b;stroke-miterlimit:10"/><path d="M16.61,11.31a3.07,3.07,0,1,0-4.8,2.54l-1.14,8.78h5.74l-1.14-8.78A3.06,3.06,0,0,0,16.61,11.31Z" style="fill:#f6d87f;stroke:#1d1d1b;stroke-miterlimit:10"/></g></g></svg>