<svg xmlns="http://www.w3.org/2000/svg" width="17.67" height="17.67" viewBox="0 0 17.67 17.67"><g id="Capa_2" data-name="Capa 2"><g id="Footer"><path d="M8.86,4.58A4.37,4.37,0,1,0,13.23,9,4.37,4.37,0,0,0,8.86,4.58Zm0,7.16A2.8,2.8,0,1,1,11.66,9,2.79,2.79,0,0,1,8.86,11.74Z" style="fill:#1d1d1b"/><path d="M12.35,0h-7A5.32,5.32,0,0,0,0,5.32v7a5.32,5.32,0,0,0,5.32,5.32h7a5.32,5.32,0,0,0,5.32-5.32v-7A5.32,5.32,0,0,0,12.35,0ZM16,12.35A3.64,3.64,0,0,1,12.35,16h-7a3.64,3.64,0,0,1-3.65-3.65v-7A3.64,3.64,0,0,1,5.32,1.67h7A3.64,3.64,0,0,1,16,5.32Z" style="fill:#1d1d1b"/><path d="M13.48,3.25a1,1,0,0,0,0,2.08,1,1,0,0,0,0-2.08Z" style="fill:#1d1d1b"/></g></g></svg>