<svg xmlns="http://www.w3.org/2000/svg" width="29.73" height="41.67" viewBox="0 0 29.73 41.67"><g id="Capa_2" data-name="Capa 2"><g id="Contenido"><path d="M19.93.5v7a2.43,2.43,0,0,0,2.43,2.44h7" style="fill:#e5edf0;stroke:#1d1d1b;stroke-miterlimit:10"/><path d="M29.23,10.63v26.7a3.84,3.84,0,0,1-3.84,3.84h-21A3.84,3.84,0,0,1,.5,37.33v-33A3.85,3.85,0,0,1,4.35.5H19.11a3.41,3.41,0,0,1,2.43,1l6.68,6.68A3.43,3.43,0,0,1,29.23,10.63Z" style="fill:none;stroke:#1d1d1b;stroke-miterlimit:10"/><circle cx="14.87" cy="25.79" r="9.15" style="fill:#f6d87f;stroke:#1d1d1b;stroke-miterlimit:10"/><path d="M15.27,20.53l1,3a.43.43,0,0,0,.41.3h3.19a.42.42,0,0,1,.25.76L17.52,26.5a.43.43,0,0,0-.16.47l1,3a.43.43,0,0,1-.65.48L15.12,28.6a.45.45,0,0,0-.5,0L12,30.48a.43.43,0,0,1-.66-.48l1-3a.42.42,0,0,0-.15-.47L9.64,24.62a.42.42,0,0,1,.24-.76h3.19a.43.43,0,0,0,.41-.3l1-3A.43.43,0,0,1,15.27,20.53Z" style="fill:#e5edf0;stroke:#1d1d1b;stroke-miterlimit:10"/><line x1="5.79" y1="6.88" x2="12.98" y2="6.88" style="fill:none;stroke:#1d1d1b;stroke-linecap:round;stroke-linejoin:round"/><line x1="5.79" y1="11.38" x2="9.34" y2="11.38" style="fill:none;stroke:#1d1d1b;stroke-linecap:round;stroke-linejoin:round"/></g></g></svg>