<svg xmlns="http://www.w3.org/2000/svg" width="32.34" height="38.62" viewBox="0 0 32.34 38.62"><g id="Capa_2" data-name="Capa 2"><g id="Header"><path d="M27.37,26.1A4.56,4.56,0,0,1,26,22.87V14.44A11.49,11.49,0,0,0,17,3.05a.78.78,0,0,0,0-.16,2.4,2.4,0,0,0-4.79,0c0,.06,0,.11,0,.16a11.49,11.49,0,0,0-9,11.39v8.43A4.56,4.56,0,0,1,1.84,26.1a4.56,4.56,0,0,0,3.23,7.78H24.14A4.56,4.56,0,0,0,27.37,26.1Z" style="fill:#fff;stroke:#1d1d1b;stroke-linejoin:round"/><path d="M18.43,34.29a3.83,3.83,0,1,1-7.65,0" style="fill:#e5edf0;stroke:#1d1d1b;stroke-miterlimit:10"/><circle cx="24.26" cy="12.35" r="7.59" style="fill:#f6d87f;stroke:#1d1d1b;stroke-miterlimit:10"/><line x1="24.26" y1="8.5" x2="24.26" y2="12.63" style="fill:none;stroke:#1d1d1b;stroke-linecap:round;stroke-miterlimit:10"/><line x1="24.26" y1="15.7" x2="24.26" y2="16.2" style="fill:none;stroke:#1d1d1b;stroke-linecap:round;stroke-miterlimit:10"/><line x1="8.29" y1="24.47" x2="20.92" y2="24.47" style="fill:none;stroke:#1d1d1b;stroke-linecap:round;stroke-linejoin:round"/></g></g></svg>