<svg xmlns="http://www.w3.org/2000/svg" width="112.97" height="122.94" viewBox="0 0 112.97 122.94"><defs><style>.a,.b{fill:none;stroke-linecap:round;}.a{stroke:#f6d87f;}.a,.b,.c,.d,.f{stroke-linejoin:round;}.a,.b,.c,.d,.e,.f{stroke-width:2px;}.b,.c,.d,.e,.f{stroke:#1d1d1b;}.c{fill:#fff;}.d{fill:#e5edf0;}.e,.f{fill:#f6d87f;}.e{stroke-miterlimit:10;}</style></defs><line class="a" x1="27.41" y1="1" x2="27.41" y2="5.98"/><line class="a" x1="29.9" y1="3.49" x2="24.92" y2="3.49"/><line class="a" x1="4" y1="90.94" x2="2.85" y2="95.79"/><line class="a" x1="5.85" y1="93.94" x2="1" y2="92.79"/><line class="a" x1="105.48" y1="61.55" x2="104.33" y2="66.4"/><line class="a" x1="107.33" y1="64.55" x2="102.48" y2="63.4"/><line class="b" x1="88.38" y1="11.2" x2="88.78" y2="8.83"/><path class="b" d="M95.19,14.83l3.8-5"/><path class="b" d="M99,21.17l2.34-.61"/><path class="c" d="M89.08,113.91H21.9A5.91,5.91,0,0,1,16,108V18.82a5.92,5.92,0,0,1,5.91-5.91h57L95,29.05v79A5.9,5.9,0,0,1,89.08,113.91Z"/><path class="d" d="M110.72,113.55l-.11,3.62c-.08,2.83-6,5-13.15,4.76s-12.95-2.67-12.87-5.51l.11-3.61"/><line class="e" x1="108.77" y1="116.15" x2="108.66" y2="119.71"/><line class="e" x1="100" y1="118.38" x2="99.9" y2="121.94"/><line class="e" x1="91.33" y1="117.63" x2="91.23" y2="121.19"/><ellipse class="d" cx="97.71" cy="113.18" rx="5.14" ry="13.01" transform="translate(-18.21 207.62) rotate(-88.37)"/><path class="d" d="M112,110l-.1,3.61c-.08,2.84-6,5-13.16,4.77s-12.94-2.67-12.86-5.51l.1-3.61"/><line class="e" x1="110.02" y1="112.55" x2="109.92" y2="116.11"/><line class="e" x1="101.26" y1="114.78" x2="101.16" y2="118.34"/><line class="d" x1="92.58" y1="114.02" x2="92.48" y2="117.58"/><ellipse class="d" cx="98.96" cy="109.58" rx="5.14" ry="13.01" transform="matrix(0.03, -1, 1, 0.03, -13.39, 205.38)"/><path class="d" d="M108.72,106.34l-.11,3.62c-.08,2.84-6,5-13.15,4.76s-12.95-2.67-12.87-5.5l.11-3.62"/><line class="e" x1="106.77" y1="108.95" x2="106.66" y2="112.51"/><line class="e" x1="98" y1="111.18" x2="97.9" y2="114.74"/><line class="e" x1="89.33" y1="110.42" x2="89.23" y2="113.98"/><ellipse class="d" cx="95.71" cy="105.97" rx="5.14" ry="13.01" transform="translate(-12.95 198.62) rotate(-88.37)"/><ellipse class="d" cx="95.71" cy="105.97" rx="2.09" ry="8.61" transform="translate(-12.95 198.62) rotate(-88.37)"/><path class="d" d="M78.68,12.91V26.2a3.05,3.05,0,0,0,3.06,3.05H95Z"/><path class="f" d="M34.77,39.75H47.43a0,0,0,0,1,0,0V64a0,0,0,0,1,0,0H31.3a0,0,0,0,1,0,0V43.21A3.46,3.46,0,0,1,34.77,39.75Z"/><path class="f" d="M63.56,51.86H76.33a3.35,3.35,0,0,1,3.35,3.35V64a0,0,0,0,1,0,0H63.56a0,0,0,0,1,0,0V51.86A0,0,0,0,1,63.56,51.86Z"/><path class="f" d="M50.27,27.12H60.72A2.84,2.84,0,0,1,63.56,30V64a0,0,0,0,1,0,0H47.43a0,0,0,0,1,0,0V30A2.84,2.84,0,0,1,50.27,27.12Z"/><line class="b" x1="26.41" y1="63.97" x2="84.58" y2="63.97"/><line class="b" x1="27.41" y1="76.39" x2="51.15" y2="76.39"/><line class="b" x1="27.41" y1="81.72" x2="51.15" y2="81.72"/><line class="b" x1="27.41" y1="87.04" x2="51.15" y2="87.04"/><line class="b" x1="27.41" y1="92.36" x2="51.15" y2="92.36"/><line class="b" x1="27.41" y1="97.69" x2="39.28" y2="97.69"/><circle class="d" cx="72.35" cy="87.35" r="12.83"/><line class="b" x1="66.31" y1="93.84" x2="78.42" y2="81.73"/><circle class="b" cx="68.06" cy="83.51" r="1.53"/><circle class="b" cx="76.68" cy="92.13" r="1.53"/></svg>