<svg xmlns="http://www.w3.org/2000/svg" width="48" height="36.05" viewBox="0 0 48 36.05"><defs><style>.a{fill:#ffe600;}.b{fill:#1d1d1b;}.c{fill:none;}</style></defs><rect class="a" x="0.57" y="4.25" width="46.85" height="31.23" rx="4.18"/><path class="b" d="M43.25,36.05H4.75A4.75,4.75,0,0,1,0,31.3V8.43A4.76,4.76,0,0,1,4.75,3.67h38.5A4.76,4.76,0,0,1,48,8.43V31.3A4.75,4.75,0,0,1,43.25,36.05ZM4.75,4.82A3.61,3.61,0,0,0,1.14,8.43V31.3a3.61,3.61,0,0,0,3.61,3.6h38.5a3.61,3.61,0,0,0,3.61-3.6V8.43a3.61,3.61,0,0,0-3.61-3.61Z"/><rect class="a" x="4.28" y="8.04" width="21.24" height="23.66" rx="1.82"/><path class="b" d="M23.7,32.27H6.1a2.39,2.39,0,0,1-2.39-2.39v-20A2.4,2.4,0,0,1,6.1,7.46H23.7a2.4,2.4,0,0,1,2.39,2.4v20A2.39,2.39,0,0,1,23.7,32.27ZM6.1,8.61A1.25,1.25,0,0,0,4.85,9.86v20A1.25,1.25,0,0,0,6.1,31.13H23.7a1.25,1.25,0,0,0,1.24-1.25v-20A1.25,1.25,0,0,0,23.7,8.61Z"/><path class="a" d="M21.84,31.7A6.95,6.95,0,0,0,8,31.7Z"/><path class="b" d="M22.44,32.27H7.36l0-.59a7.52,7.52,0,0,1,15,0ZM8.58,31.13H21.22a6.38,6.38,0,0,0-6.58-5.52A6.42,6.42,0,0,0,8.58,31.13Z"/><circle class="a" cx="14.91" cy="17.38" r="3.9"/><path class="b" d="M14.91,21.85a4.48,4.48,0,1,1,4.47-4.47A4.48,4.48,0,0,1,14.91,21.85Zm0-7.8a3.33,3.33,0,1,0,3.33,3.33A3.34,3.34,0,0,0,14.91,14.05Z"/><rect class="a" x="18.79" y="0.57" width="10.41" height="4.65" rx="1.18"/><path class="b" d="M28,5.79H20A1.75,1.75,0,0,1,18.21,4V1.75A1.76,1.76,0,0,1,20,0H28a1.75,1.75,0,0,1,1.75,1.75V4A1.75,1.75,0,0,1,28,5.79ZM20,1.14a.61.61,0,0,0-.6.61V4a.6.6,0,0,0,.6.61H28A.61.61,0,0,0,28.62,4V1.75A.61.61,0,0,0,28,1.14Z"/><line class="c" x1="30.73" y1="13.77" x2="42.14" y2="13.77"/><path class="b" d="M42.14,14.34H30.73a.57.57,0,0,1-.58-.57.58.58,0,0,1,.58-.57H42.14a.57.57,0,0,1,.57.57A.56.56,0,0,1,42.14,14.34Z"/><line class="c" x1="30.73" y1="18.04" x2="39.08" y2="18.04"/><path class="b" d="M39.08,18.61H30.73a.57.57,0,0,1-.58-.57.58.58,0,0,1,.58-.57h8.35a.57.57,0,0,1,.57.57A.56.56,0,0,1,39.08,18.61Z"/><line class="c" x1="30.73" y1="22.32" x2="42.14" y2="22.32"/><path class="b" d="M42.14,22.89H30.73a.57.57,0,0,1-.58-.57.58.58,0,0,1,.58-.57H42.14a.57.57,0,0,1,.57.57A.56.56,0,0,1,42.14,22.89Z"/><line class="c" x1="30.73" y1="26.59" x2="39.08" y2="26.59"/><path class="b" d="M39.08,27.17H30.73a.58.58,0,1,1,0-1.15h8.35a.58.58,0,0,1,0,1.15Z"/></svg>