<svg xmlns="http://www.w3.org/2000/svg" width="20.88" height="16.11" viewBox="0 0 20.88 16.11"><g id="Capa_2" data-name="Capa 2"><g id="Contenido"><path d="M18.81,2H12.9a.75.75,0,0,0,0-.26v-1A.76.76,0,0,0,12.19,0H8.68a.77.77,0,0,0-.76.76v1A.58.58,0,0,0,8,2H2.07A2.07,2.07,0,0,0,0,4.09V14a2.07,2.07,0,0,0,2.07,2.07H18.81A2.07,2.07,0,0,0,20.88,14V4.09A2.07,2.07,0,0,0,18.81,2ZM8.42.76A.26.26,0,0,1,8.68.5h3.51a.26.26,0,0,1,.26.26v1a.25.25,0,0,1-.26.26H8.68a.26.26,0,0,1-.26-.26ZM20.38,14a1.57,1.57,0,0,1-1.57,1.57H2.07A1.57,1.57,0,0,1,.5,14V4.09A1.57,1.57,0,0,1,2.07,2.52H18.81a1.58,1.58,0,0,1,1.57,1.57Z" style="fill:#1d1d1b"/><path d="M10.31,3.67H2.66a1,1,0,0,0-1,1v8.71a1,1,0,0,0,1,1h7.65a1,1,0,0,0,1-1V4.71A1,1,0,0,0,10.31,3.67ZM3.72,14a2.77,2.77,0,0,1,5.52,0Zm7.13-.54a.54.54,0,0,1-.54.54H9.74a3.26,3.26,0,0,0-6.51,0H2.66a.55.55,0,0,1-.55-.54V4.71a.55.55,0,0,1,.55-.54h7.65a.54.54,0,0,1,.54.54Z" style="fill:#1d1d1b"/><path d="M6.48,6A1.95,1.95,0,1,0,8.43,8,1.94,1.94,0,0,0,6.48,6Zm0,3.39A1.45,1.45,0,1,1,7.93,8,1.45,1.45,0,0,1,6.48,9.43Z" style="fill:#1d1d1b"/><path d="M18.33,6.17h-5a.25.25,0,0,0-.25.25.25.25,0,0,0,.25.25h5a.25.25,0,0,0,.25-.25A.25.25,0,0,0,18.33,6.17Z" style="fill:#1d1d1b"/><path d="M13.37,8.52H17A.25.25,0,1,0,17,8H13.37a.25.25,0,1,0,0,.49Z" style="fill:#1d1d1b"/><path d="M18.33,9.88h-5a.25.25,0,0,0,0,.5h5a.25.25,0,0,0,0-.5Z" style="fill:#1d1d1b"/><path d="M17,11.74H13.37a.25.25,0,0,0,0,.5H17a.25.25,0,0,0,0-.5Z" style="fill:#1d1d1b"/></g></g></svg>