<svg xmlns="http://www.w3.org/2000/svg" width="24.06" height="31.1" viewBox="0 0 24.06 31.1"><defs><style>.a,.b{fill:#e5edf0;}.a,.b,.c,.d{stroke:#1d1d1b;stroke-miterlimit:10;}.b,.d{stroke-linecap:round;}.c{fill:#f6d87f;}.d{fill:none;}</style></defs><path class="a" d="M22.55,1.65C21.37,1.39,20.17,1.18,19,1A47.54,47.54,0,0,0,5.09,1c-1,.14-2.52.45-3.55.66a1.29,1.29,0,0,0-1,1.27V15.25A14.17,14.17,0,0,0,5.09,25.69a13.55,13.55,0,0,0,1.78,1.4L12,30.5l5.16-3.41A14.35,14.35,0,0,0,19,25.69a14.2,14.2,0,0,0,4.58-10.44V2.93A1.31,1.31,0,0,0,22.55,1.65Z"/><line class="b" x1="12.03" y1="4.99" x2="12.03" y2="0.5"/><line class="b" x1="12.03" y1="23.35" x2="12.03" y2="30.5"/><circle class="c" cx="11.93" cy="14.15" r="6.71"/><path class="d" d="M9.57,14.48l1.24,1.24a.42.42,0,0,0,.62,0l3.27-3.27"/></svg>