<svg xmlns="http://www.w3.org/2000/svg" width="87.67" height="87.67" viewBox="0 0 87.67 87.67"><g id="Capa_2" data-name="Capa 2"><g id="POP-UPs"><path d="M43.84,0A43.84,43.84,0,1,0,87.67,43.84,43.89,43.89,0,0,0,43.84,0Zm0,82.19A38.36,38.36,0,1,1,82.19,43.84,38.4,38.4,0,0,1,43.84,82.19Z" style="fill:#1d1d1b"/><path d="M43.84,20.23A2.73,2.73,0,0,0,41.1,23V45.34a2.74,2.74,0,1,0,5.48,0V23A2.74,2.74,0,0,0,43.84,20.23Z" style="fill:#1d1d1b"/><path d="M43.84,59.26A2.73,2.73,0,0,0,41.1,62v2.71a2.74,2.74,0,0,0,5.48,0V62A2.74,2.74,0,0,0,43.84,59.26Z" style="fill:#1d1d1b"/></g></g></svg>