<svg xmlns="http://www.w3.org/2000/svg" width="46.11" height="46.1" viewBox="0 0 46.11 46.1"><defs><style>.a{fill:#ffe600;}</style></defs><path class="a" d="M46.11,10.57a3.17,3.17,0,0,0-1-2.27L37.81.94a3.23,3.23,0,0,0-4.55,0L32,2.19a.94.94,0,0,0-.82.22L29.58,4a.84.84,0,0,0-.26.66L1.69,32.31a1,1,0,0,0-.25.94l0,0-.61,4.8L.09,44v0L0,44.64a1.27,1.27,0,0,0,.37,1.08,1.28,1.28,0,0,0,.92.38h.16L2.05,46H2.1L6,45.52l6.86-.88,0,0a1.27,1.27,0,0,0,.26,0,.92.92,0,0,0,.68-.29L41.42,16.78h0a.93.93,0,0,0,.64-.26l1.6-1.61a.86.86,0,0,0,.22-.82l1.25-1.25A3.21,3.21,0,0,0,46.11,10.57ZM2,45a.77.77,0,0,1-.65-.22.8.8,0,0,1-.23-.65l.58-4.55,4.87,4.84Zm-.14-6.67L2.38,34a3.32,3.32,0,0,1,2.27,2.8,1,1,0,0,0,.85.85,3.29,3.29,0,0,1,2.94,3,1,1,0,0,0,.86.85,3.29,3.29,0,0,1,2.79,2.27l-4.3.55Zm7.5,1.53a4.22,4.22,0,0,0-3.11-3.07L33.65,9.37l3.09,3.09Zm-3.79-3.8a4.18,4.18,0,0,0-3-3h0a.29.29,0,0,0-.1,0L29.85,5.56,33,8.66Zm7.6,7.63A4.2,4.2,0,0,0,10,40.6L37.45,13.16l3.09,3.09Zm28.32-28L30.35,4.65,31.8,3.17l5.56,5.56,5.55,5.56Zm3-3.61-1.14,1.14L38.07,8,32.82,2.79,34,1.65a2.27,2.27,0,0,1,3.14,0L44.46,9a2.22,2.22,0,0,1,0,3.14Z"/></svg>