<svg xmlns="http://www.w3.org/2000/svg" width="44.66" height="52.35" viewBox="0 0 44.66 52.35"><defs><style>.a{fill:#3c3c3b;}.b{fill:#fff;}</style></defs><rect class="a" x="12.88" y="9.04" width="7" height="1"/><path class="a" d="M12.88,19.53H33.14a.5.5,0,0,0,.5-.5.5.5,0,0,0-.5-.5H12.88a.5.5,0,0,0-.5.5A.5.5,0,0,0,12.88,19.53Z"/><path class="a" d="M12.88,26H33.14a.5.5,0,0,0,.5-.5.5.5,0,0,0-.5-.5H12.88a.5.5,0,0,0-.5.5A.5.5,0,0,0,12.88,26Z"/><path class="a" d="M12.88,32.45H33.14a.5.5,0,0,0,.5-.5.5.5,0,0,0-.5-.5H12.88a.5.5,0,0,0-.5.5A.5.5,0,0,0,12.88,32.45Z"/><path class="a" d="M12.88,38.9H33.14a.5.5,0,0,0,.5-.5.5.5,0,0,0-.5-.5H12.88a.5.5,0,0,0-.5.5A.5.5,0,0,0,12.88,38.9Z"/><path class="a" d="M41.56,5.3a4.56,4.56,0,0,0-4.3-3.12H8.19A4.56,4.56,0,0,0,3.63,6.74V9.81H1.68A1.68,1.68,0,0,0,0,11.49v.88A1.68,1.68,0,0,0,1.68,14h2v5.05H1.68A1.68,1.68,0,0,0,0,20.76v.89a1.68,1.68,0,0,0,1.68,1.67h2v5.05H1.68A1.68,1.68,0,0,0,0,30v.88A1.68,1.68,0,0,0,1.68,32.6h2v5H1.68A1.68,1.68,0,0,0,0,39.33v.88a1.68,1.68,0,0,0,1.68,1.67h2V45a4.54,4.54,0,0,0,3.12,4.3A4.53,4.53,0,0,0,11,52.35h26.4a7.23,7.23,0,0,0,7.23-7.23V9.59A4.55,4.55,0,0,0,41.56,5.3ZM3.63,40.88H1.68A.67.67,0,0,1,1,40.21v-.88a.67.67,0,0,1,.68-.68h2Zm0-9.28H1.68A.67.67,0,0,1,1,30.92V30a.67.67,0,0,1,.68-.67h2Zm0-9.28H1.68A.67.67,0,0,1,1,21.65v-.89a.67.67,0,0,1,.68-.67h2Zm0-9.28H1.68A.67.67,0,0,1,1,12.37v-.88a.67.67,0,0,1,.68-.68h2Zm1-2.23h2a.67.67,0,0,1,.68.68v.88a.67.67,0,0,1-.68.67H4.63Zm0,9.28h2a.67.67,0,0,1,.68.67v.89a.67.67,0,0,1-.68.67H4.63Zm0,9.28h2a.67.67,0,0,1,.68.67v.88a.67.67,0,0,1-.68.68H4.63Zm0,9.28h2a.67.67,0,0,1,.68.68v.88a.67.67,0,0,1-.68.67H4.63Zm3,9.8-.4-.08h0A3.56,3.56,0,0,1,4.63,45V41.88h2a1.68,1.68,0,0,0,1.68-1.67v-.88a1.68,1.68,0,0,0-1.68-1.68H4.63v-5h2a1.68,1.68,0,0,0,1.68-1.68V30a1.68,1.68,0,0,0-1.68-1.67H4.63V23.32h2a1.68,1.68,0,0,0,1.68-1.67v-.89a1.68,1.68,0,0,0-1.68-1.67H4.63V14h2a1.68,1.68,0,0,0,1.68-1.67v-.88A1.68,1.68,0,0,0,6.58,9.81H4.63V6.74A3.57,3.57,0,0,1,8.19,3.18H37.26a3.55,3.55,0,0,1,3.41,2.61v0c0,.14.06.27.08.39a3.17,3.17,0,0,1,.05.53V45a3.56,3.56,0,0,1-3.55,3.56H8.19A3.07,3.07,0,0,1,7.66,48.45Zm36-3.33a6.23,6.23,0,0,1-6.23,6.23H11a3.54,3.54,0,0,1-3.1-1.85H37.26A4.56,4.56,0,0,0,41.81,45V6.74h0V6.48a3.55,3.55,0,0,1,1.85,3.11Z"/><path class="b" d="M33.14,1.19V11.58a1,1,0,0,1-1.68.7l-1.6-1.61h-.07l-1.48,1.49a1,1,0,0,1-1.68-.7V1.19A.69.69,0,0,1,27.32.5h5.14A.69.69,0,0,1,33.14,1.19Z"/><path class="a" d="M32.15,13.07a1.47,1.47,0,0,1-1-.44l-1.27-1.28-1.16,1.16a1.49,1.49,0,0,1-2.54-1V1.19A1.19,1.19,0,0,1,27.32,0h5.14a1.18,1.18,0,0,1,1.18,1.19V11.58a1.51,1.51,0,0,1-1.49,1.49ZM29.79,10l.42.35,1.6,1.6a.47.47,0,0,0,.53.11.48.48,0,0,0,.3-.45V1.19A.18.18,0,0,0,32.46,1H27.32a.18.18,0,0,0-.19.19V11.46a.48.48,0,0,0,.3.45A.47.47,0,0,0,28,11.8Z"/></svg>