<svg xmlns="http://www.w3.org/2000/svg" width="113.51" height="129.31" viewBox="0 0 113.51 129.31"><defs><style>.a{fill:#e5edf0;}.a,.b,.d{stroke:#1d1d1b;}.a,.c,.d{stroke-linejoin:round;}.a,.b,.c,.d{stroke-width:2px;}.b{fill:#f6d87f;stroke-miterlimit:10;}.c,.d{fill:none;stroke-linecap:round;}.c{stroke:#f6d87f;}</style></defs><path class="a" d="M109.51,112.26l-.15,5.19c-.12,4.07-8.57,7.14-18.89,6.84s-18.58-3.83-18.47-7.9l.15-5.2"/><line class="b" x1="106.71" y1="116" x2="106.56" y2="121.11"/><line class="b" x1="94.13" y1="119.2" x2="93.98" y2="124.31"/><line class="b" x1="81.67" y1="118.11" x2="81.52" y2="123.22"/><ellipse class="a" cx="90.83" cy="111.73" rx="7.38" ry="18.69" transform="translate(-23.44 199.34) rotate(-88.37)"/><path class="a" d="M110.51,107.26l-.15,5.19c-.12,4.07-8.57,7.14-18.89,6.84s-18.58-3.83-18.47-7.9l.15-5.2"/><line class="b" x1="107.71" y1="111" x2="107.56" y2="116.11"/><line class="b" x1="95.13" y1="114.2" x2="94.98" y2="119.31"/><line class="b" x1="82.67" y1="113.11" x2="82.52" y2="118.22"/><ellipse class="a" cx="91.83" cy="106.73" rx="7.38" ry="18.69" transform="translate(-17.47 195.48) rotate(-88.37)"/><path class="a" d="M107.51,102.26l-.15,5.19c-.12,4.07-8.57,7.14-18.89,6.84s-18.58-3.83-18.47-7.9l.15-5.2"/><line class="b" x1="104.71" y1="106" x2="104.56" y2="111.11"/><line class="b" x1="92.13" y1="109.2" x2="91.98" y2="114.31"/><line class="b" x1="79.67" y1="108.11" x2="79.52" y2="113.22"/><ellipse class="a" cx="88.83" cy="101.73" rx="7.38" ry="18.69" transform="translate(-15.39 187.62) rotate(-88.37)"/><path class="a" d="M109.51,97.26l-.15,5.19c-.12,4.07-8.57,7.14-18.89,6.84s-18.58-3.83-18.47-7.9l.15-5.2"/><line class="b" x1="106.71" y1="101" x2="106.56" y2="106.11"/><line class="b" x1="94.13" y1="104.2" x2="93.98" y2="109.31"/><line class="b" x1="81.67" y1="103.11" x2="81.52" y2="108.22"/><ellipse class="a" cx="90.83" cy="96.73" rx="7.38" ry="18.69" transform="translate(-8.45 184.76) rotate(-88.37)"/><path class="a" d="M109.51,92.26l-.15,5.19c-.12,4.07-8.57,7.14-18.89,6.84S71.89,100.46,72,96.39l.15-5.2"/><line class="b" x1="106.71" y1="96" x2="106.56" y2="101.11"/><line class="b" x1="94.13" y1="99.2" x2="93.98" y2="104.31"/><line class="b" x1="81.67" y1="98.11" x2="81.52" y2="103.22"/><ellipse class="a" cx="90.83" cy="91.73" rx="7.38" ry="18.69" transform="translate(-3.45 179.9) rotate(-88.37)"/><path class="a" d="M109.51,86.26l-.15,5.19c-.12,4.07-8.57,7.14-18.89,6.84S71.89,94.46,72,90.39l.15-5.2"/><line class="b" x1="106.71" y1="90" x2="106.56" y2="95.11"/><line class="b" x1="94.13" y1="93.2" x2="93.98" y2="98.31"/><line class="b" x1="81.67" y1="92.11" x2="81.52" y2="97.22"/><ellipse class="a" cx="90.83" cy="85.73" rx="7.38" ry="18.69" transform="translate(2.55 174.08) rotate(-88.37)"/><path class="a" d="M112.51,81.26l-.15,5.19c-.12,4.07-8.57,7.14-18.89,6.84S74.89,89.46,75,85.39l.15-5.2"/><line class="b" x1="109.71" y1="85" x2="109.56" y2="90.11"/><line class="b" x1="97.13" y1="88.2" x2="96.98" y2="93.31"/><line class="b" x1="84.67" y1="87.11" x2="84.52" y2="92.22"/><ellipse class="a" cx="93.83" cy="80.73" rx="7.38" ry="18.69" transform="translate(10.46 172.22) rotate(-88.37)"/><path class="a" d="M109.51,76.74l-.15,5.19c-.12,4.07-8.57,7.14-18.89,6.84S71.89,84.94,72,80.87l.15-5.2"/><line class="b" x1="106.71" y1="80.48" x2="106.56" y2="85.59"/><line class="b" x1="94.13" y1="83.68" x2="93.98" y2="88.79"/><line class="b" x1="81.67" y1="82.59" x2="81.52" y2="87.7"/><ellipse class="a" cx="90.83" cy="76.21" rx="7.38" ry="18.69" transform="translate(12.06 164.83) rotate(-88.37)"/><ellipse class="a" cx="90.83" cy="76.21" rx="3" ry="12.36" transform="translate(12.06 164.83) rotate(-88.37)"/><path class="a" d="M40.51,111.26l-.15,5.19c-.12,4.07-8.57,7.14-18.89,6.84S2.89,119.46,3,115.39l.15-5.2"/><line class="b" x1="37.71" y1="115" x2="37.56" y2="120.11"/><line class="b" x1="25.13" y1="118.2" x2="24.98" y2="123.31"/><line class="b" x1="12.67" y1="117.11" x2="12.52" y2="122.22"/><ellipse class="a" cx="21.83" cy="110.73" rx="7.38" ry="18.69" transform="translate(-89.48 129.39) rotate(-88.37)"/><path class="a" d="M38.51,106.26l-.15,5.19c-.12,4.07-8.57,7.14-18.89,6.84S.89,114.46,1,110.39l.15-5.2"/><line class="b" x1="35.71" y1="110" x2="35.56" y2="115.11"/><line class="b" x1="23.13" y1="113.2" x2="22.98" y2="118.31"/><line class="b" x1="10.67" y1="112.11" x2="10.52" y2="117.22"/><ellipse class="a" cx="19.83" cy="105.73" rx="7.38" ry="18.69" transform="translate(-86.42 122.53) rotate(-88.37)"/><path class="a" d="M42.51,101.26l-.15,5.19c-.12,4.07-8.57,7.14-18.89,6.84S4.89,109.46,5,105.39l.15-5.2"/><line class="b" x1="39.71" y1="105" x2="39.56" y2="110.11"/><line class="b" x1="27.13" y1="108.2" x2="26.98" y2="113.31"/><line class="b" x1="14.67" y1="107.11" x2="14.52" y2="112.22"/><ellipse class="a" cx="23.83" cy="100.73" rx="7.38" ry="18.69" transform="translate(-77.54 121.68) rotate(-88.37)"/><path class="a" d="M40.51,96.26l-.15,5.19c-.12,4.07-8.57,7.14-18.89,6.84S2.89,104.46,3,100.39l.15-5.2"/><line class="b" x1="37.71" y1="100" x2="37.56" y2="105.11"/><line class="b" x1="25.13" y1="103.2" x2="24.98" y2="108.31"/><line class="b" x1="12.67" y1="102.11" x2="12.52" y2="107.22"/><ellipse class="a" cx="21.83" cy="95.73" rx="7.38" ry="18.69" transform="translate(-74.48 114.82) rotate(-88.37)"/><path class="a" d="M40.51,91.26l-.15,5.19c-.12,4.07-8.57,7.14-18.89,6.84S2.89,99.46,3,95.39l.15-5.2"/><line class="b" x1="37.71" y1="95" x2="37.56" y2="100.11"/><line class="b" x1="25.13" y1="98.2" x2="24.98" y2="103.31"/><line class="b" x1="12.67" y1="97.11" x2="12.52" y2="102.22"/><ellipse class="a" cx="21.83" cy="90.73" rx="7.38" ry="18.69" transform="translate(-69.48 109.96) rotate(-88.37)"/><path class="a" d="M38.51,83.74l-.15,5.19c-.12,4.07-8.57,7.14-18.89,6.84S.89,91.94,1,87.87l.15-5.2"/><line class="b" x1="35.71" y1="87.48" x2="35.56" y2="92.59"/><line class="b" x1="23.13" y1="90.68" x2="22.98" y2="95.79"/><line class="b" x1="10.67" y1="89.59" x2="10.52" y2="94.7"/><ellipse class="a" cx="19.83" cy="83.21" rx="7.38" ry="18.69" transform="translate(-63.91 100.66) rotate(-88.37)"/><ellipse class="a" cx="19.83" cy="83.21" rx="3" ry="12.36" transform="translate(-63.91 100.66) rotate(-88.37)"/><path class="a" d="M73.51,116.26l-.15,5.19c-.12,4.07-8.57,7.14-18.89,6.84s-18.58-3.83-18.47-7.9l.15-5.2"/><line class="b" x1="70.71" y1="120" x2="70.56" y2="125.11"/><line class="b" x1="58.13" y1="123.2" x2="57.98" y2="128.31"/><line class="b" x1="45.67" y1="122.11" x2="45.52" y2="127.22"/><ellipse class="a" cx="54.83" cy="115.73" rx="7.38" ry="18.69" transform="translate(-62.41 167.24) rotate(-88.37)"/><path class="a" d="M74.51,111.26l-.15,5.19c-.12,4.07-8.57,7.14-18.89,6.84s-18.58-3.83-18.47-7.9l.15-5.2"/><line class="b" x1="71.71" y1="115" x2="71.56" y2="120.11"/><line class="b" x1="59.13" y1="118.2" x2="58.98" y2="123.31"/><line class="b" x1="46.67" y1="117.11" x2="46.52" y2="122.22"/><ellipse class="a" cx="55.83" cy="110.73" rx="7.38" ry="18.69" transform="translate(-56.44 163.38) rotate(-88.37)"/><path class="a" d="M71.51,106.26l-.15,5.19c-.12,4.07-8.57,7.14-18.89,6.84s-18.58-3.83-18.47-7.9l.15-5.2"/><line class="b" x1="68.71" y1="110" x2="68.56" y2="115.11"/><line class="b" x1="56.13" y1="113.2" x2="55.98" y2="118.31"/><line class="b" x1="43.67" y1="112.11" x2="43.52" y2="117.22"/><ellipse class="a" cx="52.83" cy="105.73" rx="7.38" ry="18.69" transform="translate(-54.36 155.52) rotate(-88.37)"/><path class="a" d="M73.51,101.26l-.15,5.19c-.12,4.07-8.57,7.14-18.89,6.84s-18.58-3.83-18.47-7.9l.15-5.2"/><line class="b" x1="70.71" y1="105" x2="70.56" y2="110.11"/><line class="b" x1="58.13" y1="108.2" x2="57.98" y2="113.31"/><line class="b" x1="45.67" y1="107.11" x2="45.52" y2="112.22"/><ellipse class="a" cx="54.83" cy="100.73" rx="7.38" ry="18.69" transform="translate(-47.42 152.66) rotate(-88.37)"/><path class="a" d="M73.51,96.26l-.15,5.19c-.12,4.07-8.57,7.14-18.89,6.84s-18.58-3.83-18.47-7.9l.15-5.2"/><line class="b" x1="70.71" y1="100" x2="70.56" y2="105.11"/><line class="b" x1="58.13" y1="103.2" x2="57.98" y2="108.31"/><line class="b" x1="45.67" y1="102.11" x2="45.52" y2="107.22"/><ellipse class="a" cx="54.83" cy="95.73" rx="7.38" ry="18.69" transform="translate(-42.42 147.81) rotate(-88.37)"/><path class="a" d="M76.51,90.26l-.15,5.19c-.12,4.07-8.57,7.14-18.89,6.84S38.89,98.46,39,94.39l.15-5.2"/><line class="b" x1="73.71" y1="94" x2="73.56" y2="99.11"/><line class="b" x1="61.13" y1="97.2" x2="60.98" y2="102.31"/><line class="b" x1="48.67" y1="96.11" x2="48.52" y2="101.22"/><ellipse class="a" cx="57.83" cy="89.73" rx="7.38" ry="18.69" transform="translate(-33.51 144.98) rotate(-88.37)"/><line class="c" x1="25.07" y1="37.53" x2="25.07" y2="42.06"/><line class="c" x1="27.34" y1="39.79" x2="22.8" y2="39.79"/><line class="c" x1="8.03" y1="57.78" x2="10.11" y2="61.81"/><line class="c" x1="11.08" y1="58.75" x2="7.05" y2="60.83"/><line class="c" x1="92.64" y1="44.74" x2="91.55" y2="49.14"/><line class="c" x1="94.3" y1="47.49" x2="89.9" y2="46.39"/><path class="a" d="M73.51,85.26l-.15,5.19c-.12,4.07-8.57,7.14-18.89,6.84S35.89,93.46,36,89.39l.15-5.2"/><line class="b" x1="70.71" y1="89" x2="70.56" y2="94.11"/><line class="b" x1="58.13" y1="92.2" x2="57.98" y2="97.31"/><line class="b" x1="45.67" y1="91.11" x2="45.52" y2="96.22"/><ellipse class="a" cx="54.83" cy="84.73" rx="7.38" ry="18.69" transform="translate(-31.43 137.12) rotate(-88.37)"/><path class="a" d="M73.51,85.26l-.15,5.19c-.12,4.07-8.57,7.14-18.89,6.84S35.89,93.46,36,89.39l.15-5.2"/><line class="b" x1="70.71" y1="89" x2="70.56" y2="94.11"/><line class="b" x1="58.13" y1="92.2" x2="57.98" y2="97.31"/><line class="b" x1="45.67" y1="91.11" x2="45.52" y2="96.22"/><ellipse class="a" cx="54.83" cy="84.73" rx="7.38" ry="18.69" transform="translate(-31.43 137.12) rotate(-88.37)"/><path class="a" d="M73.51,80.09l-.15,5.19c-.12,4.07-8.57,7.13-18.89,6.84S35.89,88.29,36,84.21L36.15,79"/><line class="b" x1="70.71" y1="83.82" x2="70.56" y2="88.94"/><line class="b" x1="58.13" y1="87.03" x2="57.98" y2="92.14"/><line class="b" x1="45.67" y1="85.94" x2="45.52" y2="91.05"/><ellipse class="a" cx="54.83" cy="79.55" rx="7.38" ry="18.69" transform="translate(-26.25 132.09) rotate(-88.37)"/><path class="a" d="M66.69,74.91l-.15,5.19C66.43,84.18,58,87.24,47.66,87S29.07,83.11,29.19,79l.14-5.19"/><line class="b" x1="63.89" y1="78.65" x2="63.75" y2="83.76"/><line class="b" x1="51.31" y1="81.85" x2="51.17" y2="86.97"/><line class="a" x1="38.85" y1="80.76" x2="38.71" y2="85.88"/><ellipse class="a" cx="48.01" cy="74.38" rx="7.38" ry="18.69" transform="translate(-27.7 120.26) rotate(-88.37)"/><path class="a" d="M73.51,69.74l-.15,5.19c-.12,4.07-8.57,7.14-18.89,6.84S35.89,77.94,36,73.87l.15-5.2"/><line class="b" x1="70.71" y1="73.48" x2="70.56" y2="78.59"/><line class="b" x1="58.13" y1="76.68" x2="57.98" y2="81.79"/><line class="b" x1="45.67" y1="75.59" x2="45.52" y2="80.7"/><ellipse class="a" cx="54.83" cy="69.21" rx="7.38" ry="18.69" transform="translate(-15.91 122.04) rotate(-88.37)"/><ellipse class="a" cx="54.83" cy="69.21" rx="3" ry="12.36" transform="translate(-15.91 122.04) rotate(-88.37)"/><path class="a" d="M70.8,51.2,67,54.77c-3,2.8-11.1-1-18.19-8.52S38.4,30.4,41.36,27.6L45.14,24"/><line class="b" x1="66.18" y1="51.87" x2="62.46" y2="55.38"/><line class="b" x1="55.02" y1="45.23" x2="51.3" y2="48.75"/><line class="b" x1="46.98" y1="35.66" x2="43.26" y2="39.17"/><ellipse class="a" cx="57.97" cy="37.62" rx="7.38" ry="18.69" transform="translate(-10 50.08) rotate(-43.37)"/><ellipse class="a" cx="57.97" cy="37.62" rx="3" ry="12.36" transform="translate(-10 50.08) rotate(-43.37)"/><line class="d" x1="66.69" y1="24.49" x2="66.69" y2="11.72"/><line class="d" x1="57.97" y1="18.52" x2="57.97" y2="1"/></svg>