<svg xmlns="http://www.w3.org/2000/svg" width="16.67" height="16.67" viewBox="0 0 16.67 16.67"><g id="Capa_2" data-name="Capa 2"><g id="Contenido"><path d="M8.33,0a8.33,8.33,0,0,0-7,12.85L.07,15.64a.72.72,0,0,0,.66,1,.63.63,0,0,0,.19,0l3.49-1a8.24,8.24,0,0,0,3.92,1A8.34,8.34,0,1,0,8.33,0Zm0,15.21a6.81,6.81,0,0,1-3.46-.94.78.78,0,0,0-.37-.09.62.62,0,0,0-.19,0L2,14.83l.8-1.75a.74.74,0,0,0-.08-.73A6.88,6.88,0,0,1,8.33,1.46a6.88,6.88,0,1,1,0,13.75Z" style="fill:#1d1d1b;fill-rule:evenodd"/><path d="M11.54,9.58a1.43,1.43,0,0,0-1.22-.27c-.31.13-.51.62-.72.87a.31.31,0,0,1-.39.09A5.48,5.48,0,0,1,6.47,7.92a.34.34,0,0,1,0-.46A2,2,0,0,0,7,6.65a1.8,1.8,0,0,0-.23-1,2.26,2.26,0,0,0-.7-1.07A1,1,0,0,0,5,4.78a2.16,2.16,0,0,0-.74,1.69A3.33,3.33,0,0,0,4.35,7,4.49,4.49,0,0,0,4.87,8.2c.16.28.34.55.53.82a8.31,8.31,0,0,0,2.34,2.16,6.43,6.43,0,0,0,1.45.69,3.2,3.2,0,0,0,1.7.27A2,2,0,0,0,12.42,11a.91.91,0,0,0,.07-.58C12.41,10,11.86,9.78,11.54,9.58Z" style="fill:#1d1d1b;fill-rule:evenodd"/></g></g></svg>