<svg id="Capa_1" data-name="Capa 1" xmlns="http://www.w3.org/2000/svg" viewBox="0 0 331.1 396.85"><defs><style>.cls-1{fill:#fff;}.cls-2{fill:#1d1d1b;}.cls-3{fill:#f6d87f;}.cls-4{fill:#e5edf0;}</style></defs><rect class="cls-1" x="7.36" y="41.29" width="316.39" height="348.22" rx="37.99"/><path class="cls-2" d="M321,397.46H77.11a43.67,43.67,0,0,1-43.63-43.62V78.17A43.68,43.68,0,0,1,77.11,34.54H321a43.68,43.68,0,0,1,43.63,43.63V353.84A43.67,43.67,0,0,1,321,397.46ZM77.11,49.25A29,29,0,0,0,48.19,78.17V353.84a29,29,0,0,0,28.92,28.91H321a29,29,0,0,0,28.92-28.91V78.17A29,29,0,0,0,321,49.25Z" transform="translate(-33.48 -0.6)"/><rect class="cls-3" x="49.34" y="89.03" width="232.42" height="259.03" rx="1.35"/><path class="cls-2" d="M295.33,356H102.74a27.3,27.3,0,0,1-27.27-27.27V109.55a27.3,27.3,0,0,1,27.27-27.27H295.33a27.3,27.3,0,0,1,27.26,27.27v219.2A27.3,27.3,0,0,1,295.33,356ZM102.74,97a12.58,12.58,0,0,0-12.57,12.56v219.2a12.58,12.58,0,0,0,12.57,12.56H295.33a12.58,12.58,0,0,0,12.56-12.56V109.55A12.58,12.58,0,0,0,295.33,97Z" transform="translate(-33.48 -0.6)"/><path class="cls-4" d="M275,348.66a76,76,0,1,0-152,0Z" transform="translate(-33.48 -0.6)"/><path class="cls-2" d="M282.37,356H115.69v-7.35a83.34,83.34,0,1,1,166.68,0ZM130.79,341.31H267.27a68.64,68.64,0,0,0-136.48,0Z" transform="translate(-33.48 -0.6)"/><circle class="cls-4" cx="165.55" cy="191.35" r="42.74"/><path class="cls-2" d="M199,242A50.1,50.1,0,1,1,249.12,192,50.14,50.14,0,0,1,199,242Zm0-85.48A35.39,35.39,0,1,0,234.42,192,35.43,35.43,0,0,0,199,156.56Z" transform="translate(-33.48 -0.6)"/><rect class="cls-4" x="108.57" y="7.36" width="113.97" height="50.9" rx="0.87"/><path class="cls-2" d="M243.16,66.21H154.9A20.23,20.23,0,0,1,134.69,46V20.81A20.24,20.24,0,0,1,154.9.6h88.26a20.24,20.24,0,0,1,20.21,20.21V46A20.23,20.23,0,0,1,243.16,66.21ZM154.9,15.31a5.52,5.52,0,0,0-5.51,5.5V46a5.52,5.52,0,0,0,5.51,5.5h88.26a5.52,5.52,0,0,0,5.51-5.5V20.81a5.52,5.52,0,0,0-5.51-5.5Z" transform="translate(-33.48 -0.6)"/></svg>