<svg id="Capa_1" data-name="Capa 1" xmlns="http://www.w3.org/2000/svg" viewBox="0 0 396.85 396.85"><defs><style>.cls-1{fill:#fff;}.cls-2{fill:#f6d87f;}.cls-3{fill:#e5edf0;}</style></defs><path class="cls-1" d="M23.48,280.17a1.36,1.36,0,0,0-2.31.78L8.24,382.12A6.89,6.89,0,0,0,16,389.83l101.16-12.94a1.36,1.36,0,0,0,.78-2.31" transform="translate(-0.6 -0.61)"/><path d="M15,397.45a14.46,14.46,0,0,1-14.3-16.3L14.26,275.32l5.36-2.64a8.92,8.92,0,0,1,9.22,2.13l-5.36,5.36,0,.12,5.19,1.61L15.75,383.08l100.4-13.71.79,6.16,6.31-6.3,2.13,9.21a8.86,8.86,0,0,1-7.33,6L16.91,397.34A14.93,14.93,0,0,1,15,397.45Zm96-23.92a6.23,6.23,0,0,0,1.49,6.4l3.59-3.58Z" transform="translate(-0.6 -0.61)"/><path class="cls-1" d="M69.53,383l-54.48-54.1L8.91,376.65A11.2,11.2,0,0,0,12.09,386h0a11.16,11.16,0,0,0,9.32,3.18Z" transform="translate(-0.6 -0.61)"/><path d="M20,396.82A18.77,18.77,0,0,1,1.39,375.7l8.1-63,76.37,75.83-63.49,8.16A19.49,19.49,0,0,1,20,396.82Zm.64-51.76-4.18,32.55a3.61,3.61,0,0,0,4,4l32.75-4.21Z" transform="translate(-0.6 -0.61)"/><path class="cls-2" d="M359.82,136.56l-240,240a4.07,4.07,0,0,1-6.83-2,32.79,32.79,0,0,0-28.51-24.74A3.93,3.93,0,0,1,81,346.33,32.74,32.74,0,0,0,51.73,317a3.93,3.93,0,0,1-3.48-3.49,32.76,32.76,0,0,0-24.74-28.5,4.08,4.08,0,0,1-2-6.84l240-240Z" transform="translate(-0.6 -0.61)"/><path d="M117,385.3a11.38,11.38,0,0,1-3.11-.43,11.76,11.76,0,0,1-8.22-8.52,25.2,25.2,0,0,0-21.91-19,11.52,11.52,0,0,1-10.26-10.26A25.23,25.23,0,0,0,51,324.57a11.52,11.52,0,0,1-10.27-10.26,25.22,25.22,0,0,0-19-21.92,11.64,11.64,0,0,1-5.54-19.53L261.5,27.53l109,109L125.21,381.89A11.65,11.65,0,0,1,117,385.3Zm3.38-12.58v0Zm-32.21-30a40.39,40.39,0,0,1,30.38,24.45L349.11,136.56,261.5,49,30.92,279.52A40.4,40.4,0,0,1,55.39,309.9,40.46,40.46,0,0,1,88.16,342.68Zm-62.85-65h0Z" transform="translate(-0.6 -0.61)"/><line class="cls-1" x1="81.88" y1="347.8" x2="326.17" y2="103.52"/><rect x="31.9" y="218.7" width="345.46" height="15.14" transform="translate(-100.66 210.36) rotate(-45)"/><line class="cls-1" x1="49.11" y1="315.03" x2="293.4" y2="70.75"/><rect x="-0.87" y="185.93" width="345.47" height="15.14" transform="translate(-87.09 177.59) rotate(-45)"/><rect class="cls-1" x="306.79" y="6.03" width="26.46" height="144.03" rx="0.43" transform="translate(37.94 248.54) rotate(-45)"/><path d="M361.58,143.17a14.1,14.1,0,0,1-10-4.14L259,46.48a14.15,14.15,0,0,1,0-20l9.42-9.42c2.66-2.68,6.32-3.58,10-4.14a14,14,0,0,1,10,4.14L381,109.62a14.14,14.14,0,0,1,0,20l-9.4,9.41A14.12,14.12,0,0,1,361.58,143.17ZM278.25,28.27l-8.51,8.91,92.55,91.15,8-9.43Zm-.51-.5h0Z" transform="translate(-0.6 -0.61)"/><path class="cls-3" d="M320.29,8.41l69.37,69.36a19.31,19.31,0,0,1,0,27.29h0a16.91,16.91,0,0,1-23.92,0L293,32.32a16.89,16.89,0,0,1,0-23.91h0A19.29,19.29,0,0,1,320.29,8.41Z" transform="translate(-0.6 -0.61)"/><path d="M377.7,127.73,270.33,20.36,275.68,15a49.31,49.31,0,0,1,69.66,0l37.72,37.71a49.34,49.34,0,0,1,0,69.66ZM292.34,21l84.76,84.76a34.19,34.19,0,0,0-4.75-42.29L334.63,25.71A34.19,34.19,0,0,0,292.34,21Z" transform="translate(-0.6 -0.61)"/></svg>