<?xml version="1.0" encoding="utf-8"?>
<!-- Generator: Adobe Illustrator 24.2.1, SVG Export Plug-In . SVG Version: 6.00 Build 0)  -->
<svg version="1.1" id="Capa_1" xmlns="http://www.w3.org/2000/svg" xmlns:xlink="http://www.w3.org/1999/xlink" x="0px" y="0px"
	 viewBox="0 0 500 500" style="enable-background:new 0 0 500 500;" xml:space="preserve">
<style type="text/css">
	.st0{fill:#D0D0D0;}
	.st1{fill:#020203;}
	.st2{fill:#F2F2F2;}
</style>
<g>
	<g>
		<g>
			<g>
				<path class="st0" d="M268.19,289.02l0.8,30.75c0.62,24.12-48.4,44.95-109.49,46.53c-61.09,1.58-111.13-16.69-111.75-40.8
					l-0.8-30.75"/>
				<path class="st1" d="M59.79,348.77c-9.85-6.76-15.2-14.69-15.41-23.19l-0.79-30.75l6.71-0.18l0.79,30.75
					c0.25,10.03,11.56,19.86,30.99,26.97c20.72,7.56,48.18,11.32,77.31,10.56c29.14-0.75,56.37-5.92,76.66-14.55
					c19.04-8.09,29.82-18.49,29.56-28.53l-0.8-30.75l6.71-0.18l0.8,30.75c0.34,13.14-11.6,25.53-33.64,34.9
					c-21.06,8.95-49.16,14.3-79.12,15.08c-29.96,0.77-58.3-3.12-79.79-10.97C71.85,355.79,65.16,352.46,59.79,348.77z"/>
			</g>
			<g>
				<line class="st2" x1="252.84" y1="312.02" x2="253.62" y2="342.3"/>
				
					<rect x="249.87" y="312.01" transform="matrix(0.9997 -0.0259 0.0259 0.9997 -8.3741 6.6568)" class="st1" width="6.72" height="30.29"/>
			</g>
			<g>
				<line class="st2" x1="216.28" y1="328.11" x2="217.06" y2="358.39"/>
				
					<rect x="213.31" y="328.11" transform="matrix(0.9997 -0.0258 0.0258 0.9997 -8.7811 5.7024)" class="st1" width="6.72" height="30.29"/>
			</g>
			<g>
				<line class="st2" x1="179.48" y1="335.01" x2="180.26" y2="365.29"/>
				
					<rect x="176.51" y="335" transform="matrix(0.9997 -0.026 0.026 0.9997 -9.0318 4.7887)" class="st1" width="6.72" height="30.3"/>
			</g>
			<g>
				<line class="st2" x1="142.52" y1="335.97" x2="143.3" y2="366.25"/>
				
					<rect x="139.55" y="335.96" transform="matrix(0.9997 -0.026 0.026 0.9997 -9.0912 3.8391)" class="st1" width="6.72" height="30.29"/>
			</g>
			<g>
				<line class="st2" x1="105.45" y1="332.58" x2="106.24" y2="362.86"/>
				
					<rect x="102.49" y="332.58" transform="matrix(0.9997 -0.0258 0.0258 0.9997 -8.9332 2.8457)" class="st1" width="6.72" height="30.29"/>
			</g>
			<g>
				<line class="st2" x1="68.14" y1="319.47" x2="68.92" y2="349.75"/>
				
					<rect x="65.17" y="319.46" transform="matrix(0.9997 -0.0259 0.0259 0.9997 -8.6285 1.8837)" class="st1" width="6.72" height="30.29"/>
			</g>
			<g>
				
					<ellipse transform="matrix(0.9997 -0.0259 0.0259 0.9997 -7.4989 4.1742)" class="st0" cx="157.56" cy="291.88" rx="110.66" ry="43.68"/>
				<path class="st1" d="M59,318.03c-9.85-6.76-15.2-14.69-15.42-23.2c-0.34-13.14,11.61-25.53,33.65-34.89
					c21.06-8.95,49.16-14.3,79.12-15.08c29.96-0.77,58.3,3.12,79.79,10.97c22.5,8.23,35.08,19.98,35.4,33.11
					c0.34,13.14-11.61,25.53-33.64,34.9c-21.06,8.95-49.16,14.3-79.12,15.08c-29.96,0.77-58.3-3.13-79.79-10.97
					C71.06,325.05,64.36,321.71,59,318.03z M252.3,271.27c-4.88-3.35-11.08-6.44-18.47-9.14c-20.72-7.56-48.17-11.31-77.31-10.56
					s-56.37,5.92-76.66,14.55c-19.04,8.09-29.82,18.49-29.56,28.53l0.01,0c0.25,10.03,11.55,19.86,30.99,26.96
					c20.72,7.56,48.17,11.31,77.31,10.56s56.37-5.92,76.66-14.55c19.04-8.09,29.82-18.49,29.56-28.53
					C264.67,282.88,260.26,276.74,252.3,271.27z"/>
			</g>
			<g>
				
					<ellipse transform="matrix(0.9997 -0.0259 0.0259 0.9997 -7.4989 4.1742)" class="st2" cx="157.56" cy="291.88" rx="90.27" ry="29.38"/>
				<path class="st1" d="M73.57,308.89c-5.94-4.08-9.47-8.94-9.61-14.58l0,0c-0.55-21.26,47.38-33.98,92.75-35.16
					c45.38-1.17,93.92,9.07,94.45,30.32c0.55,21.26-47.38,33.98-92.76,35.16C125.07,325.48,90.03,320.19,73.57,308.89z
					 M70.68,294.13c0.33,12.3,36.36,25.1,87.56,23.76c51.2-1.32,86.53-15.95,86.22-28.26c-0.35-12.33-36.36-25.1-87.56-23.77
					C105.69,267.19,70.36,281.82,70.68,294.13L70.68,294.13z"/>
			</g>
		</g>
	</g>
	<g>
		<g>
			<g>
				<path class="st0" d="M266.27,239.75l0.8,30.75c0.62,24.12-48.4,44.95-109.49,46.53c-61.09,1.58-111.13-16.69-111.75-40.8
					l-0.8-30.75"/>
				<path class="st1" d="M57.88,299.5c-9.85-6.76-15.2-14.69-15.41-23.19l-0.79-30.75l6.71-0.18l0.79,30.75
					c0.25,10.03,11.56,19.86,30.99,26.97c20.72,7.56,48.18,11.32,77.31,10.56c29.14-0.75,56.37-5.92,76.66-14.55
					c19.04-8.09,29.82-18.49,29.56-28.53l-0.8-30.75l6.71-0.18l0.8,30.75c0.34,13.14-11.6,25.53-33.64,34.9
					c-21.06,8.95-49.16,14.3-79.12,15.08c-29.96,0.77-58.3-3.12-79.79-10.97C69.94,306.52,63.24,303.18,57.88,299.5z"/>
			</g>
			<g>
				<line class="st2" x1="250.92" y1="262.74" x2="251.71" y2="293.02"/>
				
					<rect x="247.96" y="262.74" transform="matrix(0.9997 -0.0259 0.0259 0.9997 -7.1008 6.5909)" class="st1" width="6.72" height="30.29"/>
			</g>
			<g>
				<line class="st2" x1="214.36" y1="278.84" x2="215.15" y2="309.12"/>
				
					<rect x="211.39" y="278.83" transform="matrix(0.9997 -0.0258 0.0258 0.9997 -7.5109 5.6367)" class="st1" width="6.72" height="30.29"/>
			</g>
			<g>
				<line class="st2" x1="177.56" y1="285.74" x2="178.35" y2="316.02"/>
				
					<rect x="174.59" y="285.73" transform="matrix(0.9997 -0.026 0.026 0.9997 -7.753 4.7224)" class="st1" width="6.72" height="30.3"/>
			</g>
			<g>
				<line class="st2" x1="140.61" y1="286.69" x2="141.39" y2="316.98"/>
				
					<rect x="137.64" y="286.69" transform="matrix(0.9997 -0.026 0.026 0.9997 -7.8093 3.7726)" class="st1" width="6.72" height="30.29"/>
			</g>
			<g>
				<line class="st2" x1="103.54" y1="283.31" x2="104.32" y2="313.59"/>
				
					<rect x="100.58" y="283.3" transform="matrix(0.9997 -0.0258 0.0258 0.9997 -7.663 2.78)" class="st1" width="6.72" height="30.29"/>
			</g>
			<g>
				<line class="st2" x1="66.22" y1="270.19" x2="67.01" y2="300.48"/>
				
					<rect x="63.26" y="270.19" transform="matrix(0.9997 -0.0259 0.0259 0.9997 -7.3552 1.8178)" class="st1" width="6.72" height="30.29"/>
			</g>
			<g>
				
					<ellipse transform="matrix(0.9997 -0.0259 0.0259 0.9997 -6.2247 4.1082)" class="st0" cx="155.65" cy="242.61" rx="110.66" ry="43.68"/>
				<path class="st1" d="M57.08,268.75c-9.85-6.76-15.2-14.69-15.42-23.2c-0.34-13.14,11.61-25.53,33.65-34.89
					c21.06-8.95,49.16-14.3,79.12-15.08c29.96-0.77,58.3,3.12,79.79,10.97c22.5,8.23,35.08,19.98,35.4,33.11
					c0.34,13.14-11.61,25.53-33.64,34.9c-21.06,8.95-49.16,14.3-79.12,15.08c-29.96,0.77-58.3-3.13-79.79-10.97
					C69.15,275.77,62.45,272.44,57.08,268.75z M250.39,222c-4.88-3.35-11.08-6.44-18.47-9.14c-20.72-7.56-48.17-11.31-77.31-10.56
					c-29.14,0.75-56.37,5.92-76.66,14.55c-19.04,8.09-29.82,18.49-29.56,28.53l0.01,0c0.25,10.03,11.55,19.86,30.99,26.96
					c20.72,7.56,48.17,11.31,77.31,10.56c29.14-0.75,56.37-5.92,76.66-14.55c19.04-8.09,29.82-18.49,29.56-28.53
					C262.75,233.61,258.35,227.46,250.39,222z"/>
			</g>
			<g>
				
					<ellipse transform="matrix(0.9997 -0.0259 0.0259 0.9997 -6.2247 4.1082)" class="st2" cx="155.65" cy="242.61" rx="90.27" ry="29.38"/>
				<path class="st1" d="M71.66,259.62c-5.94-4.08-9.47-8.94-9.61-14.58l0,0c-0.55-21.26,47.38-33.98,92.75-35.16
					c45.38-1.17,93.92,9.07,94.45,30.32c0.55,21.26-47.38,33.98-92.76,35.16C123.16,276.21,88.11,270.91,71.66,259.62z
					 M68.76,244.85c0.33,12.3,36.36,25.1,87.56,23.76c51.2-1.32,86.53-15.95,86.22-28.26c-0.35-12.33-36.36-25.1-87.56-23.77
					C103.78,217.92,68.45,232.55,68.76,244.85L68.76,244.85z"/>
			</g>
		</g>
	</g>
	<g>
		<g>
			<g>
				<path class="st0" d="M255.4,192.43l0.8,30.75c0.62,24.12-48.4,44.95-109.49,46.53c-61.09,1.58-111.13-16.69-111.75-40.8
					l-0.8-30.75"/>
				<path class="st1" d="M47.01,252.18c-9.85-6.76-15.2-14.69-15.41-23.19l-0.79-30.75l6.71-0.18l0.79,30.75
					c0.25,10.03,11.56,19.86,30.99,26.97c20.72,7.56,48.18,11.32,77.31,10.56c29.14-0.75,56.37-5.92,76.66-14.55
					c19.04-8.09,29.82-18.49,29.56-28.53l-0.8-30.75l6.71-0.18l0.8,30.75c0.34,13.14-11.6,25.53-33.64,34.9
					c-21.06,8.95-49.16,14.3-79.12,15.08c-29.96,0.77-58.3-3.12-79.79-10.97C59.07,259.2,52.37,255.87,47.01,252.18z"/>
			</g>
			<g>
				<line class="st2" x1="240.05" y1="215.42" x2="240.84" y2="245.71"/>
				
					<rect x="237.09" y="215.42" transform="matrix(0.9997 -0.0259 0.0259 0.9997 -5.881 6.2939)" class="st1" width="6.72" height="30.29"/>
			</g>
			<g>
				<line class="st2" x1="203.49" y1="231.52" x2="204.27" y2="261.8"/>
				
					<rect x="200.52" y="231.51" transform="matrix(0.9997 -0.0258 0.0258 0.9997 -6.294 5.3405)" class="st1" width="6.72" height="30.29"/>
			</g>
			<g>
				<line class="st2" x1="166.69" y1="238.42" x2="167.47" y2="268.7"/>
				
					<rect x="163.72" y="238.41" transform="matrix(0.9997 -0.026 0.026 0.9997 -6.5279 4.4241)" class="st1" width="6.72" height="30.3"/>
			</g>
			<g>
				<line class="st2" x1="129.73" y1="239.37" x2="130.52" y2="269.66"/>
				
					<rect x="126.77" y="239.37" transform="matrix(0.9997 -0.026 0.026 0.9997 -6.5812 3.4735)" class="st1" width="6.72" height="30.29"/>
			</g>
			<g>
				<line class="st2" x1="92.67" y1="235.99" x2="93.45" y2="266.27"/>
				
					<rect x="89.7" y="235.98" transform="matrix(0.9997 -0.0258 0.0258 0.9997 -6.4462 2.4838)" class="st1" width="6.72" height="30.29"/>
			</g>
			<g>
				<line class="st2" x1="55.35" y1="222.87" x2="56.13" y2="253.16"/>
				
					<rect x="52.38" y="222.87" transform="matrix(0.9997 -0.0259 0.0259 0.9997 -6.1354 1.5208)" class="st1" width="6.72" height="30.29"/>
			</g>
			<g>
				
					<ellipse transform="matrix(0.9997 -0.0259 0.0259 0.9997 -5.0041 3.8111)" class="st0" cx="144.78" cy="195.29" rx="110.66" ry="43.68"/>
				<path class="st1" d="M46.21,221.44c-9.85-6.76-15.2-14.69-15.42-23.2c-0.34-13.14,11.61-25.53,33.65-34.89
					c21.06-8.95,49.16-14.3,79.12-15.08c29.96-0.77,58.3,3.12,79.79,10.97c22.5,8.23,35.08,19.98,35.4,33.11
					c0.34,13.14-11.61,25.53-33.64,34.9c-21.06,8.95-49.16,14.3-79.12,15.08c-29.96,0.77-58.3-3.13-79.79-10.97
					C58.27,228.45,51.57,225.12,46.21,221.44z M239.52,174.68c-4.88-3.35-11.08-6.44-18.47-9.14
					c-20.72-7.56-48.17-11.31-77.31-10.56s-56.37,5.92-76.66,14.55c-19.04,8.09-29.82,18.49-29.56,28.53l0.01,0
					c0.25,10.03,11.55,19.86,30.99,26.96c20.72,7.56,48.17,11.31,77.31,10.56s56.37-5.92,76.66-14.55
					c19.04-8.09,29.82-18.49,29.56-28.53C251.88,186.29,247.47,180.15,239.52,174.68z"/>
			</g>
			<g>
				
					<ellipse transform="matrix(0.9997 -0.0259 0.0259 0.9997 -5.0041 3.8111)" class="st2" cx="144.78" cy="195.29" rx="90.27" ry="29.38"/>
				<path class="st1" d="M60.78,212.3c-5.94-4.08-9.47-8.94-9.61-14.58l0,0c-0.55-21.26,47.38-33.98,92.75-35.16
					c45.38-1.17,93.92,9.07,94.45,30.32c0.55,21.26-47.38,33.98-92.76,35.16C112.29,228.89,77.24,223.6,60.78,212.3z M57.89,197.54
					c0.33,12.3,36.36,25.1,87.56,23.76c51.2-1.32,86.53-15.95,86.22-28.26c-0.35-12.33-36.36-25.1-87.56-23.77
					C92.91,170.6,57.58,185.23,57.89,197.54L57.89,197.54z"/>
			</g>
		</g>
	</g>
	<g>
		<g>
			<g>
				<path class="st0" d="M268.19,145.11l0.8,30.75c0.62,24.12-48.4,44.95-109.49,46.53S48.36,205.7,47.74,181.58l-0.8-30.75"/>
				<path class="st1" d="M59.79,204.86c-9.85-6.76-15.2-14.69-15.41-23.19l-0.79-30.75l6.71-0.18l0.79,30.75
					c0.25,10.03,11.56,19.86,30.99,26.97c20.72,7.56,48.18,11.32,77.31,10.56c29.14-0.75,56.37-5.92,76.66-14.55
					c19.04-8.09,29.82-18.49,29.56-28.53l-0.8-30.75l6.71-0.18l0.8,30.75c0.34,13.14-11.6,25.53-33.64,34.9
					c-21.06,8.95-49.16,14.3-79.12,15.08c-29.96,0.77-58.3-3.12-79.79-10.97C71.85,211.88,65.16,208.55,59.79,204.86z"/>
			</g>
			<g>
				<line class="st2" x1="252.84" y1="168.11" x2="253.62" y2="198.39"/>
				
					<rect x="249.87" y="168.1" transform="matrix(0.9997 -0.0259 0.0259 0.9997 -4.6533 6.6087)" class="st1" width="6.72" height="30.29"/>
			</g>
			<g>
				<line class="st2" x1="216.28" y1="184.2" x2="217.06" y2="214.48"/>
				
					<rect x="213.31" y="184.2" transform="matrix(0.9997 -0.0258 0.0258 0.9997 -5.0693 5.6546)" class="st1" width="6.72" height="30.29"/>
			</g>
			<g>
				<line class="st2" x1="179.48" y1="191.1" x2="180.26" y2="221.38"/>
				
					<rect x="176.51" y="191.09" transform="matrix(0.9997 -0.026 0.026 0.9997 -5.2949 4.7402)" class="st1" width="6.72" height="30.3"/>
			</g>
			<g>
				<line class="st2" x1="142.52" y1="192.06" x2="143.3" y2="222.34"/>
				
					<rect x="139.55" y="192.05" transform="matrix(0.9997 -0.026 0.026 0.9997 -5.3451 3.7903)" class="st1" width="6.72" height="30.29"/>
			</g>
			<g>
				<line class="st2" x1="105.45" y1="188.67" x2="106.24" y2="218.95"/>
				
					<rect x="102.49" y="188.66" transform="matrix(0.9997 -0.0258 0.0258 0.9997 -5.2215 2.7978)" class="st1" width="6.72" height="30.29"/>
			</g>
			<g>
				<line class="st2" x1="68.14" y1="175.56" x2="68.92" y2="205.84"/>
				
					<rect x="65.17" y="175.55" transform="matrix(0.9997 -0.0259 0.0259 0.9997 -4.9077 1.8356)" class="st1" width="6.72" height="30.29"/>
			</g>
			<g>
				
					<ellipse transform="matrix(0.9997 -0.0259 0.0259 0.9997 -3.7756 4.1261)" class="st0" cx="157.56" cy="147.97" rx="110.66" ry="43.68"/>
				<path class="st1" d="M59,174.12c-9.85-6.76-15.2-14.69-15.42-23.2c-0.34-13.14,11.61-25.53,33.65-34.89
					c21.06-8.95,49.16-14.3,79.12-15.08c29.96-0.77,58.3,3.12,79.79,10.97c22.5,8.23,35.08,19.98,35.4,33.11
					c0.34,13.14-11.61,25.53-33.64,34.9c-21.06,8.95-49.16,14.3-79.12,15.08c-29.96,0.77-58.3-3.13-79.79-10.97
					C71.06,181.14,64.36,177.8,59,174.12z M252.3,127.36c-4.88-3.35-11.08-6.44-18.47-9.14c-20.72-7.56-48.17-11.31-77.31-10.56
					c-29.14,0.75-56.37,5.92-76.66,14.55c-19.04,8.09-29.82,18.49-29.56,28.53l0.01,0c0.25,10.03,11.55,19.86,30.99,26.96
					c20.72,7.56,48.17,11.31,77.31,10.56c29.14-0.75,56.37-5.92,76.66-14.55c19.04-8.09,29.82-18.49,29.56-28.53
					C264.67,138.97,260.26,132.83,252.3,127.36z"/>
			</g>
			<g>
				
					<ellipse transform="matrix(0.9997 -0.0259 0.0259 0.9997 -3.7756 4.1261)" class="st2" cx="157.56" cy="147.97" rx="90.27" ry="29.38"/>
				<path class="st1" d="M73.57,164.98c-5.94-4.08-9.47-8.94-9.61-14.58l0,0c-0.55-21.26,47.38-33.98,92.75-35.16
					c45.38-1.17,93.92,9.07,94.45,30.32c0.55,21.26-47.38,33.98-92.76,35.16C125.07,181.57,90.03,176.28,73.57,164.98z
					 M70.68,150.22c0.33,12.3,36.36,25.1,87.56,23.76c51.2-1.32,86.53-15.95,86.22-28.26c-0.35-12.33-36.36-25.1-87.56-23.77
					C105.69,123.28,70.36,137.91,70.68,150.22L70.68,150.22z"/>
			</g>
		</g>
	</g>
	<g>
		<g>
			<g>
				<path class="st0" d="M424.75,339.89l0.92,35.72c0.73,28.02-56.22,52.22-127.2,54.05c-70.98,1.84-129.1-19.39-129.83-47.4
					l-0.92-35.72"/>
				<path class="st1" d="M182.65,409.31c-11.44-7.86-17.66-17.06-17.91-26.94l-0.92-35.72l7.8-0.2l0.92,35.72
					c0.3,11.66,13.43,23.08,36.01,31.33c24.07,8.79,55.97,13.15,89.82,12.27c33.85-0.87,65.48-6.88,89.06-16.9
					c22.12-9.4,34.64-21.48,34.34-33.15l-0.93-35.72l7.8-0.2l0.93,35.72c0.4,15.27-13.48,29.66-39.08,40.54
					c-24.47,10.4-57.11,16.62-91.91,17.52c-34.81,0.9-67.73-3.62-92.7-12.74C196.66,417.46,188.88,413.59,182.65,409.31z"/>
			</g>
			<g>
				<line class="st2" x1="406.92" y1="366.61" x2="407.83" y2="401.79"/>
				
					<rect x="403.48" y="366.6" transform="matrix(0.9997 -0.0259 0.0259 0.9997 -9.7975 10.6614)" class="st1" width="7.8" height="35.19"/>
			</g>
			<g>
				<line class="st2" x1="364.44" y1="385.31" x2="365.35" y2="420.49"/>
				
					<rect x="361" y="385.3" transform="matrix(0.9997 -0.0258 0.0258 0.9997 -10.2701 9.5454)" class="st1" width="7.8" height="35.19"/>
			</g>
			<g>
				<line class="st2" x1="321.69" y1="393.32" x2="322.6" y2="428.5"/>
				
					<rect x="318.24" y="393.31" transform="matrix(0.9997 -0.026 0.026 0.9997 -10.5616 8.5038)" class="st1" width="7.8" height="35.2"/>
			</g>
			<g>
				<line class="st2" x1="278.76" y1="394.43" x2="279.67" y2="429.61"/>
				
					<rect x="275.31" y="394.43" transform="matrix(0.9997 -0.026 0.026 0.9997 -10.6307 7.4078)" class="st1" width="7.8" height="35.19"/>
			</g>
			<g>
				<line class="st2" x1="235.7" y1="390.5" x2="236.61" y2="425.68"/>
				
					<rect x="232.25" y="390.49" transform="matrix(0.9997 -0.0258 0.0258 0.9997 -10.4468 6.2267)" class="st1" width="7.8" height="35.19"/>
			</g>
			<g>
				<line class="st2" x1="192.34" y1="375.26" x2="193.26" y2="410.44"/>
				
					<rect x="188.9" y="375.26" transform="matrix(0.9997 -0.0259 0.0259 0.9997 -10.093 5.1163)" class="st1" width="7.8" height="35.19"/>
			</g>
			<g>
				
					<ellipse transform="matrix(0.9997 -0.0259 0.0259 0.9997 -8.7807 7.7792)" class="st0" cx="296.24" cy="343.22" rx="128.56" ry="50.75"/>
				<path class="st1" d="M181.73,373.59c-11.44-7.86-17.66-17.07-17.91-26.95c-0.39-15.26,13.49-29.66,39.09-40.54
					c24.47-10.4,57.11-16.62,91.91-17.52c34.81-0.9,67.73,3.63,92.7,12.75c26.14,9.56,40.75,23.21,41.13,38.46
					c0.4,15.27-13.48,29.66-39.08,40.54c-24.47,10.4-57.11,16.62-91.91,17.52c-34.81,0.9-67.73-3.63-92.7-12.74
					C195.74,381.75,187.96,377.87,181.73,373.59z M406.3,319.28c-5.67-3.89-12.88-7.48-21.46-10.61
					c-24.07-8.79-55.97-13.14-89.81-12.27c-33.85,0.87-65.48,6.88-89.06,16.9c-22.12,9.4-34.64,21.48-34.34,33.15l0.01,0
					c0.29,11.65,13.42,23.08,36,31.33c24.07,8.79,55.97,13.14,89.81,12.27s65.48-6.88,89.06-16.9c22.12-9.4,34.64-21.48,34.34-33.15
					C420.66,332.76,415.54,325.62,406.3,319.28z"/>
			</g>
			<g>
				
					<ellipse transform="matrix(0.9997 -0.0259 0.0259 0.9997 -8.7807 7.7792)" class="st2" cx="296.24" cy="343.22" rx="104.87" ry="34.14"/>
				<path class="st1" d="M198.66,362.98c-6.9-4.74-11-10.39-11.16-16.94l0,0c-0.64-24.7,55.04-39.48,107.75-40.85
					c52.72-1.36,109.11,10.54,109.73,35.22c0.64,24.7-55.04,39.48-107.76,40.84C258.49,382.25,217.78,376.1,198.66,362.98z
					 M195.29,345.83c0.38,14.29,42.24,29.15,101.72,27.61c59.48-1.54,100.53-18.53,100.16-32.83
					c-0.4-14.32-42.24-29.16-101.72-27.61C235.97,314.54,194.93,331.54,195.29,345.83L195.29,345.83z"/>
			</g>
		</g>
	</g>
	<g>
		<g>
			<g>
				<path class="st0" d="M464.38,282.65l0.92,35.72c0.73,28.02-56.22,52.22-127.2,54.05c-70.98,1.84-129.1-19.39-129.83-47.4
					l-0.92-35.72"/>
				<path class="st1" d="M222.28,352.07c-11.44-7.86-17.66-17.06-17.91-26.94l-0.92-35.72l7.8-0.2l0.92,35.72
					c0.3,11.66,13.43,23.08,36.01,31.33c24.07,8.79,55.97,13.15,89.82,12.27c33.85-0.87,65.48-6.88,89.06-16.9
					c22.12-9.4,34.64-21.48,34.34-33.15l-0.93-35.72l7.8-0.2l0.93,35.72c0.4,15.27-13.48,29.66-39.08,40.54
					c-24.47,10.4-57.11,16.62-91.91,17.52c-34.81,0.9-67.73-3.62-92.7-12.74C236.29,360.22,228.52,356.35,222.28,352.07z"/>
			</g>
			<g>
				<line class="st2" x1="446.55" y1="309.37" x2="447.46" y2="344.55"/>
				
					<rect x="443.11" y="309.36" transform="matrix(0.9997 -0.0259 0.0259 0.9997 -8.3042 11.6669)" class="st1" width="7.8" height="35.19"/>
			</g>
			<g>
				<line class="st2" x1="404.07" y1="328.07" x2="404.98" y2="363.25"/>
				
					<rect x="400.63" y="328.06" transform="matrix(0.9997 -0.0258 0.0258 0.9997 -8.7806 10.5485)" class="st1" width="7.8" height="35.19"/>
			</g>
			<g>
				<line class="st2" x1="361.32" y1="336.08" x2="362.23" y2="371.26"/>
				
					<rect x="357.88" y="336.07" transform="matrix(0.9997 -0.026 0.026 0.9997 -9.0618 9.5136)" class="st1" width="7.8" height="35.2"/>
			</g>
			<g>
				<line class="st2" x1="318.39" y1="337.19" x2="319.3" y2="372.37"/>
				
					<rect x="314.94" y="337.19" transform="matrix(0.9997 -0.026 0.026 0.9997 -9.1272 8.42)" class="st1" width="7.8" height="35.19"/>
			</g>
			<g>
				<line class="st2" x1="275.33" y1="333.26" x2="276.24" y2="368.44"/>
				
					<rect x="271.88" y="333.25" transform="matrix(0.9997 -0.0258 0.0258 0.9997 -8.9573 7.2298)" class="st1" width="7.8" height="35.19"/>
			</g>
			<g>
				<line class="st2" x1="231.98" y1="318.02" x2="232.89" y2="353.2"/>
				
					<rect x="228.53" y="318.02" transform="matrix(0.9997 -0.0259 0.0259 0.9997 -8.5997 6.1218)" class="st1" width="7.8" height="35.19"/>
			</g>
			<g>
				
					<ellipse transform="matrix(0.9997 -0.0259 0.0259 0.9997 -7.2864 8.7854)" class="st0" cx="335.87" cy="285.98" rx="128.56" ry="50.75"/>
				<path class="st1" d="M221.36,316.35c-11.44-7.86-17.66-17.07-17.91-26.95c-0.39-15.26,13.49-29.66,39.09-40.54
					c24.47-10.4,57.11-16.62,91.91-17.52c34.81-0.9,67.73,3.63,92.7,12.75c26.14,9.56,40.75,23.21,41.13,38.46
					c0.4,15.27-13.48,29.66-39.08,40.54c-24.47,10.4-57.11,16.62-91.91,17.52c-34.81,0.9-67.73-3.63-92.7-12.74
					C235.37,324.51,227.59,320.63,221.36,316.35z M445.93,262.04c-5.67-3.89-12.88-7.48-21.46-10.61
					c-24.07-8.79-55.97-13.14-89.81-12.27s-65.48,6.88-89.06,16.9c-22.12,9.4-34.64,21.48-34.34,33.15l0.01,0
					c0.29,11.65,13.42,23.08,36,31.33c24.07,8.79,55.97,13.14,89.81,12.27c33.85-0.87,65.48-6.88,89.06-16.9
					c22.12-9.4,34.64-21.48,34.34-33.15C460.29,275.52,455.17,268.38,445.93,262.04z"/>
			</g>
			<g>
				
					<ellipse transform="matrix(0.9997 -0.0259 0.0259 0.9997 -7.2864 8.7854)" class="st2" cx="335.87" cy="285.98" rx="104.87" ry="34.14"/>
				<path class="st1" d="M238.29,305.73c-6.9-4.74-11-10.39-11.16-16.94l0,0c-0.64-24.7,55.04-39.48,107.75-40.85
					c52.72-1.36,109.11,10.54,109.73,35.22c0.64,24.7-55.04,39.48-107.76,40.84C298.12,325.01,257.41,318.86,238.29,305.73z
					 M234.93,288.59c0.38,14.29,42.24,29.15,101.72,27.61c59.48-1.54,100.53-18.53,100.16-32.83
					c-0.4-14.32-42.24-29.16-101.72-27.61C275.61,257.29,234.56,274.29,234.93,288.59L234.93,288.59z"/>
			</g>
		</g>
	</g>
	<g>
		<g>
			<g>
				<path class="st0" d="M424.75,227.68l0.92,35.72c0.73,28.02-56.22,52.22-127.2,54.05c-70.98,1.84-129.1-19.39-129.83-47.4
					l-0.92-35.72"/>
				<path class="st1" d="M182.65,297.1c-11.44-7.86-17.66-17.06-17.91-26.94l-0.92-35.72l7.8-0.2l0.92,35.72
					c0.3,11.66,13.43,23.08,36.01,31.33c24.07,8.79,55.97,13.15,89.82,12.27c33.85-0.87,65.48-6.88,89.06-16.9
					c22.12-9.4,34.64-21.48,34.34-33.15l-0.93-35.72l7.8-0.2l0.93,35.72c0.4,15.27-13.48,29.66-39.08,40.54
					c-24.47,10.4-57.11,16.62-91.91,17.52c-34.81,0.9-67.73-3.62-92.7-12.74C196.66,305.25,188.88,301.38,182.65,297.1z"/>
			</g>
			<g>
				<line class="st2" x1="406.92" y1="254.39" x2="407.83" y2="289.57"/>
				
					<rect x="403.48" y="254.39" transform="matrix(0.9997 -0.0259 0.0259 0.9997 -6.8961 10.6238)" class="st1" width="7.8" height="35.19"/>
			</g>
			<g>
				<line class="st2" x1="364.44" y1="273.1" x2="365.35" y2="308.28"/>
				
					<rect x="361" y="273.09" transform="matrix(0.9997 -0.0258 0.0258 0.9997 -7.3759 9.5081)" class="st1" width="7.8" height="35.19"/>
			</g>
			<g>
				<line class="st2" x1="321.69" y1="281.11" x2="322.6" y2="316.29"/>
				
					<rect x="318.24" y="281.1" transform="matrix(0.9997 -0.026 0.026 0.9997 -7.6477 8.466)" class="st1" width="7.8" height="35.2"/>
			</g>
			<g>
				<line class="st2" x1="278.76" y1="282.22" x2="279.67" y2="317.4"/>
				
					<rect x="275.31" y="282.21" transform="matrix(0.9997 -0.026 0.026 0.9997 -7.7097 7.3698)" class="st1" width="7.8" height="35.19"/>
			</g>
			<g>
				<line class="st2" x1="235.7" y1="278.29" x2="236.61" y2="313.46"/>
				
					<rect x="232.25" y="278.28" transform="matrix(0.9997 -0.0258 0.0258 0.9997 -7.5526 6.1893)" class="st1" width="7.8" height="35.19"/>
			</g>
			<g>
				<line class="st2" x1="192.34" y1="263.05" x2="193.26" y2="298.23"/>
				
					<rect x="188.9" y="263.05" transform="matrix(0.9997 -0.0259 0.0259 0.9997 -7.1917 5.0788)" class="st1" width="7.8" height="35.19"/>
			</g>
			<g>
				
					<ellipse transform="matrix(0.9997 -0.0259 0.0259 0.9997 -5.8775 7.7416)" class="st0" cx="296.24" cy="231" rx="128.56" ry="50.75"/>
				<path class="st1" d="M181.73,261.38c-11.44-7.86-17.66-17.07-17.91-26.95c-0.39-15.26,13.49-29.66,39.09-40.54
					c24.47-10.4,57.11-16.62,91.91-17.52c34.81-0.9,67.73,3.63,92.7,12.75c26.14,9.56,40.75,23.21,41.13,38.46
					c0.4,15.27-13.48,29.66-39.08,40.54c-24.47,10.4-57.11,16.62-91.91,17.52c-34.81,0.9-67.73-3.63-92.7-12.74
					C195.74,269.53,187.96,265.66,181.73,261.38z M406.3,207.06c-5.67-3.89-12.88-7.48-21.46-10.61
					c-24.07-8.79-55.97-13.14-89.81-12.27c-33.85,0.87-65.48,6.88-89.06,16.9c-22.12,9.4-34.64,21.48-34.34,33.15l0.01,0
					c0.29,11.65,13.42,23.08,36,31.33c24.07,8.79,55.97,13.14,89.81,12.27c33.85-0.87,65.48-6.88,89.06-16.9
					c22.12-9.4,34.64-21.48,34.34-33.15C420.66,220.55,415.54,213.41,406.3,207.06z"/>
			</g>
			<g>
				
					<ellipse transform="matrix(0.9997 -0.0259 0.0259 0.9997 -5.8775 7.7416)" class="st2" cx="296.24" cy="231" rx="104.87" ry="34.14"/>
				<path class="st1" d="M198.66,250.76c-6.9-4.74-11-10.39-11.16-16.94l0,0c-0.64-24.7,55.04-39.48,107.75-40.85
					c52.72-1.36,109.11,10.54,109.73,35.22c0.64,24.7-55.04,39.48-107.76,40.84C258.49,270.04,217.78,263.89,198.66,250.76z
					 M195.29,233.61c0.38,14.29,42.24,29.15,101.72,27.61c59.48-1.54,100.53-18.53,100.16-32.83
					c-0.4-14.32-42.24-29.16-101.72-27.61C235.97,202.32,194.93,219.32,195.29,233.61L195.29,233.61z"/>
			</g>
		</g>
	</g>
	<g>
		<g>
			<g>
				<path class="st0" d="M424.75,172.71l0.92,35.72c0.73,28.02-56.22,52.22-127.2,54.05c-70.98,1.84-129.1-19.39-129.83-47.4
					l-0.92-35.72"/>
				<path class="st1" d="M182.65,242.13c-11.44-7.86-17.66-17.06-17.91-26.94l-0.92-35.72l7.8-0.2l0.92,35.72
					c0.3,11.66,13.43,23.08,36.01,31.33c24.07,8.79,55.97,13.15,89.82,12.27c33.85-0.87,65.48-6.88,89.06-16.9
					c22.12-9.4,34.64-21.48,34.34-33.15l-0.93-35.72l7.8-0.2l0.93,35.72c0.4,15.27-13.48,29.66-39.08,40.54
					c-24.47,10.4-57.11,16.62-91.91,17.52c-34.81,0.9-67.73-3.62-92.7-12.74C196.66,250.28,188.88,246.41,182.65,242.13z"/>
			</g>
			<g>
				<line class="st2" x1="406.92" y1="199.42" x2="407.83" y2="234.6"/>
				
					<rect x="403.48" y="199.42" transform="matrix(0.9997 -0.0259 0.0259 0.9997 -5.4748 10.6055)" class="st1" width="7.8" height="35.19"/>
			</g>
			<g>
				<line class="st2" x1="364.44" y1="218.12" x2="365.35" y2="253.3"/>
				
					<rect x="361" y="218.12" transform="matrix(0.9997 -0.0258 0.0258 0.9997 -5.9581 9.4898)" class="st1" width="7.8" height="35.19"/>
			</g>
			<g>
				<line class="st2" x1="321.69" y1="226.14" x2="322.6" y2="261.32"/>
				
					<rect x="318.24" y="226.13" transform="matrix(0.9997 -0.026 0.026 0.9997 -6.2203 8.4474)" class="st1" width="7.8" height="35.2"/>
			</g>
			<g>
				<line class="st2" x1="278.76" y1="227.25" x2="279.67" y2="262.43"/>
				
					<rect x="275.31" y="227.24" transform="matrix(0.9997 -0.026 0.026 0.9997 -6.2787 7.3512)" class="st1" width="7.8" height="35.19"/>
			</g>
			<g>
				<line class="st2" x1="235.7" y1="223.31" x2="236.61" y2="258.49"/>
				
					<rect x="232.25" y="223.31" transform="matrix(0.9997 -0.0258 0.0258 0.9997 -6.1348 6.171)" class="st1" width="7.8" height="35.19"/>
			</g>
			<g>
				<line class="st2" x1="192.34" y1="208.08" x2="193.26" y2="243.26"/>
				
					<rect x="188.9" y="208.07" transform="matrix(0.9997 -0.0259 0.0259 0.9997 -5.7703 5.0604)" class="st1" width="7.8" height="35.19"/>
			</g>
			<g>
				
					<ellipse transform="matrix(0.9997 -0.0259 0.0259 0.9997 -4.4552 7.7232)" class="st0" cx="296.24" cy="176.03" rx="128.56" ry="50.75"/>
				<path class="st1" d="M181.73,206.41c-11.44-7.86-17.66-17.07-17.91-26.95c-0.39-15.26,13.49-29.66,39.09-40.54
					c24.47-10.4,57.11-16.62,91.91-17.52c34.81-0.9,67.73,3.63,92.7,12.75c26.14,9.56,40.75,23.21,41.13,38.46
					c0.4,15.27-13.48,29.66-39.08,40.54c-24.47,10.4-57.11,16.62-91.91,17.52c-34.81,0.9-67.73-3.63-92.7-12.74
					C195.74,214.56,187.96,210.68,181.73,206.41z M406.3,152.09c-5.67-3.89-12.88-7.48-21.46-10.61
					c-24.07-8.79-55.97-13.14-89.81-12.27c-33.85,0.87-65.48,6.88-89.06,16.9c-22.12,9.4-34.64,21.48-34.34,33.15l0.01,0
					c0.29,11.65,13.42,23.08,36,31.33c24.07,8.79,55.97,13.14,89.81,12.27s65.48-6.88,89.06-16.9c22.12-9.4,34.64-21.48,34.34-33.15
					C420.66,165.58,415.54,158.44,406.3,152.09z"/>
			</g>
			<g>
				
					<ellipse transform="matrix(0.9997 -0.0259 0.0259 0.9997 -4.4552 7.7232)" class="st2" cx="296.24" cy="176.03" rx="104.87" ry="34.14"/>
				<path class="st1" d="M198.66,195.79c-6.9-4.74-11-10.39-11.16-16.94l0,0c-0.64-24.7,55.04-39.48,107.75-40.85
					c52.72-1.36,109.11,10.54,109.73,35.22c0.64,24.7-55.04,39.48-107.76,40.84C258.49,215.06,217.78,208.92,198.66,195.79z
					 M195.29,178.64c0.38,14.29,42.24,29.15,101.72,27.61c59.48-1.54,100.53-18.53,100.16-32.83
					c-0.4-14.32-42.24-29.16-101.72-27.61C235.97,147.35,194.93,164.35,195.29,178.64L195.29,178.64z"/>
			</g>
		</g>
	</g>
	<g>
		<g>
			<g>
				<path class="st0" d="M424.75,117.73l0.92,35.72c0.73,28.02-56.22,52.22-127.2,54.05c-70.98,1.84-129.1-19.39-129.83-47.4
					l-0.92-35.72"/>
				<path class="st1" d="M182.65,187.16c-11.44-7.86-17.66-17.06-17.91-26.94l-0.92-35.72l7.8-0.2l0.92,35.72
					c0.3,11.66,13.43,23.08,36.01,31.33c24.07,8.79,55.97,13.15,89.82,12.27c33.85-0.87,65.48-6.88,89.06-16.9
					c22.12-9.4,34.64-21.48,34.34-33.15l-0.93-35.72l7.8-0.2l0.93,35.72c0.4,15.27-13.48,29.66-39.08,40.54
					c-24.47,10.4-57.11,16.62-91.91,17.52c-34.81,0.9-67.73-3.62-92.7-12.74C196.66,195.31,188.88,191.43,182.65,187.16z"/>
			</g>
			<g>
				<line class="st2" x1="406.92" y1="144.45" x2="407.83" y2="179.63"/>
				
					<rect x="403.48" y="144.45" transform="matrix(0.9997 -0.0259 0.0259 0.9997 -4.0535 10.5871)" class="st1" width="7.8" height="35.19"/>
			</g>
			<g>
				<line class="st2" x1="364.44" y1="163.15" x2="365.35" y2="198.33"/>
				
					<rect x="361" y="163.14" transform="matrix(0.9997 -0.0258 0.0258 0.9997 -4.5403 9.4715)" class="st1" width="7.8" height="35.19"/>
			</g>
			<g>
				<line class="st2" x1="321.69" y1="171.16" x2="322.6" y2="206.34"/>
				
					<rect x="318.24" y="171.16" transform="matrix(0.9997 -0.026 0.026 0.9997 -4.7928 8.4289)" class="st1" width="7.8" height="35.2"/>
			</g>
			<g>
				<line class="st2" x1="278.76" y1="172.28" x2="279.67" y2="207.46"/>
				
					<rect x="275.31" y="172.27" transform="matrix(0.9997 -0.026 0.026 0.9997 -4.8478 7.3325)" class="st1" width="7.8" height="35.19"/>
			</g>
			<g>
				<line class="st2" x1="235.7" y1="168.34" x2="236.61" y2="203.52"/>
				
					<rect x="232.25" y="168.34" transform="matrix(0.9997 -0.0258 0.0258 0.9997 -4.717 6.1528)" class="st1" width="7.8" height="35.19"/>
			</g>
			<g>
				<line class="st2" x1="192.34" y1="153.11" x2="193.26" y2="188.29"/>
				
					<rect x="188.9" y="153.1" transform="matrix(0.9997 -0.0259 0.0259 0.9997 -4.349 5.042)" class="st1" width="7.8" height="35.19"/>
			</g>
			<g>
				
					<ellipse transform="matrix(0.9997 -0.0259 0.0259 0.9997 -3.033 7.7048)" class="st0" cx="296.24" cy="121.06" rx="128.56" ry="50.75"/>
				<path class="st1" d="M181.73,151.43c-11.44-7.86-17.66-17.07-17.91-26.95c-0.39-15.26,13.49-29.66,39.09-40.54
					c24.47-10.4,57.11-16.62,91.91-17.52c34.81-0.9,67.73,3.63,92.7,12.75c26.14,9.56,40.75,23.21,41.13,38.46
					c0.4,15.27-13.48,29.66-39.08,40.54c-24.47,10.4-57.11,16.62-91.91,17.52c-34.81,0.9-67.73-3.63-92.7-12.74
					C195.74,159.59,187.96,155.71,181.73,151.43z M406.3,97.12c-5.67-3.89-12.88-7.48-21.46-10.61
					c-24.07-8.79-55.97-13.14-89.81-12.27c-33.85,0.87-65.48,6.88-89.06,16.9c-22.12,9.4-34.64,21.48-34.34,33.15l0.01,0
					c0.29,11.65,13.42,23.08,36,31.33c24.07,8.79,55.97,13.14,89.81,12.27s65.48-6.88,89.06-16.9c22.12-9.4,34.64-21.48,34.34-33.15
					C420.66,110.6,415.54,103.47,406.3,97.12z"/>
			</g>
			<g>
				
					<ellipse transform="matrix(0.9997 -0.0259 0.0259 0.9997 -3.033 7.7048)" class="st2" cx="296.24" cy="121.06" rx="104.87" ry="34.14"/>
				<path class="st1" d="M198.66,140.82c-6.9-4.74-11-10.39-11.16-16.94l0,0c-0.64-24.7,55.04-39.48,107.75-40.85
					c52.72-1.36,109.11,10.54,109.73,35.22c0.64,24.7-55.04,39.48-107.76,40.84C258.49,160.09,217.78,153.94,198.66,140.82z
					 M195.29,123.67c0.38,14.29,42.24,29.15,101.72,27.61c59.48-1.54,100.53-18.53,100.16-32.83
					c-0.4-14.32-42.24-29.16-101.72-27.61C235.97,92.38,194.93,109.38,195.29,123.67L195.29,123.67z"/>
			</g>
		</g>
	</g>
</g>
</svg>
