<svg xmlns="http://www.w3.org/2000/svg" viewBox="0 0 483.43 483.43"><defs><style>.a{fill:#ffe609;}.b{fill:#1e1e1c;}</style></defs><circle class="a" cx="241.71" cy="241.71" r="226.61"/><path class="b" d="M250,491.71C116.72,491.71,8.29,383.28,8.29,250S116.72,8.29,250,8.29,491.71,116.72,491.71,250,383.28,491.71,250,491.71ZM250,38.5C133.38,38.5,38.5,133.38,38.5,250S133.38,461.5,250,461.5,461.5,366.62,461.5,250,366.62,38.5,250,38.5Z" transform="translate(-8.29 -8.29)"/><path class="b" d="M250,273.41a15.1,15.1,0,0,1-15.11-15.1V134.91a15.11,15.11,0,1,1,30.22,0v123.4A15.1,15.1,0,0,1,250,273.41Z" transform="translate(-8.29 -8.29)"/><path class="b" d="M250,380.18a15.11,15.11,0,0,1-15.11-15.11V350.14a15.11,15.11,0,0,1,30.22,0v14.93A15.11,15.11,0,0,1,250,380.18Z" transform="translate(-8.29 -8.29)"/></svg>