<svg xmlns="http://www.w3.org/2000/svg" width="168.17" height="100" viewBox="0 0 168.17 100"><defs><style>.a{fill:#e6e6e6;}.b{fill:#f2f2f2;}.c{fill:#2d3277;}.d{fill:#009ee3;}.e{fill:#fff;}.f,.g{fill:#f6d87f;}.f,.g,.h{stroke:#1d1d1b;}.f{stroke-miterlimit:10;}.g,.h{stroke-linecap:round;stroke-linejoin:round;}.h{fill:none;}</style></defs><rect class="a" y="13.6" width="108" height="72" rx="5"/><rect class="b" x="18.17" width="150" height="100" rx="5"/><path class="c" d="M77.69,48.79c0-7.63-9.48-13.85-21.18-13.85S35.33,41.16,35.33,48.79v.81c0,8.1,8.29,14.64,21.18,14.64S77.69,57.69,77.69,49.6Z"/><path class="d" d="M76.88,48.78c0,7.2-9.12,13-20.36,13S36.15,56,36.15,48.78s9.12-13,20.37-13S76.88,41.59,76.88,48.78Z"/><path class="e" d="M49.75,44.67s-.21.23-.08.4a2.53,2.53,0,0,0,2.32.42,6.44,6.44,0,0,0,2.1-1.33,8.29,8.29,0,0,1,2.41-1.53,2.76,2.76,0,0,1,1.75,0,5.36,5.36,0,0,1,1.6.93c1.39,1,7,5.94,8,6.78a48.49,48.49,0,0,1,9-2.88,11.13,11.13,0,0,0-4.26-6.69c-3.22,1.36-7.17,2.07-11,.18A11.08,11.08,0,0,0,57.32,40c-3.07.07-4.39,1.38-5.79,2.8Z"/><path class="e" d="M67.58,50.83c-.06-.06-6.58-5.77-8.06-6.88a3.58,3.58,0,0,0-1.83-.86,2.32,2.32,0,0,0-.87.08,7.79,7.79,0,0,0-2.39,1.42A7,7,0,0,1,52.11,46a3.78,3.78,0,0,1-2.57-.39,1.1,1.1,0,0,1-.42-.46.79.79,0,0,1,.22-.86l1.8-1.94.63-.63a13.38,13.38,0,0,0-1.64.37,6.94,6.94,0,0,1-1.91.36,18.55,18.55,0,0,1-2-.3,28.89,28.89,0,0,1-5.18-1.88,11.56,11.56,0,0,0-4.77,6.91c.37.1,1,.27,1.22.33,5.8,1.29,7.6,2.61,7.94,2.89a1.91,1.91,0,0,1,2.7-.16,2,2,0,0,1,.3.34,2.18,2.18,0,0,1,1.38-.49,2.39,2.39,0,0,1,.83.15,1.87,1.87,0,0,1,1.12,1,1.76,1.76,0,0,1,.81-.17,2.28,2.28,0,0,1,1,.21,2.07,2.07,0,0,1,1.14,2.29h.23a2.31,2.31,0,0,1,2.3,2.3A2.26,2.26,0,0,1,57,57a3.59,3.59,0,0,0,2,.54,1.29,1.29,0,0,0,.93-.41C60,57,60,57,60,56.92l-1.63-1.83s-.27-.26-.18-.36.25.05.37.15c.83.69,1.85,1.74,1.85,1.74s.08.14.46.21a1.66,1.66,0,0,0,1.29-.31,1.58,1.58,0,0,0,.28-.3h0a.87.87,0,0,0-.05-1.07L60.42,53s-.27-.25-.18-.35.26,0,.38.14c.61.51,1.46,1.36,2.27,2.17a1.58,1.58,0,0,0,1.84-.07,1.19,1.19,0,0,0,.28-2L62.4,50.32s-.27-.24-.18-.36.26,0,.38.15c.83.69,3.07,2.74,3.07,2.74a1.59,1.59,0,0,0,1.77,0,1.13,1.13,0,0,0,.58-.93A1.32,1.32,0,0,0,67.58,50.83Z"/><path class="e" d="M55,54.16a6.39,6.39,0,0,0-.92.2c-.07,0,0-.19.06-.28s.58-1.7-.72-2.25a1.52,1.52,0,0,0-1.81.27c-.05.06-.08,0-.08,0a1.45,1.45,0,0,0-1-1.33,2,2,0,0,0-2.21.79,1.41,1.41,0,1,0-1.2,1.6,1.47,1.47,0,0,0,.78-.38v.05A1.86,1.86,0,0,0,49,54.94a1.39,1.39,0,0,0,1.37-.21c.11-.08.13,0,.11.06a1.32,1.32,0,0,0,1,1.43A1.28,1.28,0,0,0,53,55.94c.12-.11.16-.09.16.09A1.79,1.79,0,1,0,55,54.16Z"/><path class="c" d="M67.84,50.15c-2-1.76-6.65-5.8-7.91-6.74a5.62,5.62,0,0,0-1.64-.95,2.75,2.75,0,0,0-.81-.13,3.53,3.53,0,0,0-1,.18A8.45,8.45,0,0,0,54.06,44l0,0A6.73,6.73,0,0,1,52,45.37a3.22,3.22,0,0,1-.76.09A2,2,0,0,1,49.77,45s0-.12.07-.23h0l1.77-1.91c1.38-1.38,2.69-2.69,5.7-2.74h.15a10.68,10.68,0,0,1,4,.93,12.3,12.3,0,0,0,5.39,1.3,14.16,14.16,0,0,0,5.92-1.42L72,40.36a12.89,12.89,0,0,1-5.18,1.18,11.36,11.36,0,0,1-5.05-1.22,11.28,11.28,0,0,0-4.31-1H57.3a7.47,7.47,0,0,0-4.92,1.74,9.37,9.37,0,0,0-2.44.45,7.08,7.08,0,0,1-1.72.33l-.66,0a34.38,34.38,0,0,1-6.2-1.72c-.26.18-.5.36-.74.55a31.37,31.37,0,0,0,6.72,2c.27,0,.57,0,.86,0a7.37,7.37,0,0,0,2-.37c.37-.1.78-.22,1.22-.31l-.35.34-1.79,1.94a.9.9,0,0,0-.25,1,1.27,1.27,0,0,0,.47.53,3.73,3.73,0,0,0,1.91.47,3.26,3.26,0,0,0,.76-.07,7.07,7.07,0,0,0,2.38-1.47,7.9,7.9,0,0,1,2.33-1.4,3,3,0,0,1,.66-.09h.16a3.51,3.51,0,0,1,1.77.85c1.48,1.1,8,6.81,8.06,6.87a1.21,1.21,0,0,1,.39,1,1,1,0,0,1-.51.83,1.58,1.58,0,0,1-.86.26,1.45,1.45,0,0,1-.76-.21S63.5,50.68,62.68,50a.71.71,0,0,0-.39-.21.19.19,0,0,0-.16.09c-.14.16,0,.38.18.52L64.92,53a1.16,1.16,0,0,1,.36.71,1.18,1.18,0,0,1-.61,1.08,1.65,1.65,0,0,1-.91.3A1.32,1.32,0,0,1,63,54.9l-.37-.37c-.69-.68-1.39-1.37-1.91-1.8a.71.71,0,0,0-.39-.21.21.21,0,0,0-.16.08c-.06.06-.1.18,0,.37a.47.47,0,0,0,.13.15l1.9,2.14a.71.71,0,0,1,0,.91l-.06.09a1.35,1.35,0,0,1-1.11.46,1.14,1.14,0,0,1-.26,0,.62.62,0,0,1-.37-.16l0,0c-.1-.11-1.06-1.09-1.86-1.75a.67.67,0,0,0-.4-.2.23.23,0,0,0-.17.08c-.16.17.08.43.18.53L59.84,57a.3.3,0,0,1-.06.11c-.06.08-.25.27-.84.35h-.22A3.86,3.86,0,0,1,57.13,57,2.43,2.43,0,0,0,56,53.73a2.5,2.5,0,0,0-1-.23h-.08a2.16,2.16,0,0,0-1.22-2.27,2.57,2.57,0,0,0-1-.23,2.11,2.11,0,0,0-.74.14,2,2,0,0,0-1.19-1,2.85,2.85,0,0,0-.87-.16,2.27,2.27,0,0,0-1.35.44,2,2,0,0,0-2.88-.33,1.29,1.29,0,0,0-.17.16c-.5-.39-2.51-1.66-7.88-2.88-.26-.06-.86-.23-1.22-.34-.06.29-.11.59-.14.88l1.19.28c5.49,1.22,7.29,2.49,7.6,2.73a2,2,0,0,0-.16.81,2.07,2.07,0,0,0,2.06,2.06,2.45,2.45,0,0,0,.38,0,2.37,2.37,0,0,0,1.55,1.79,1.9,1.9,0,0,0,1.2.09A2.36,2.36,0,0,0,52.08,57a2,2,0,0,0,.64-.11,2.41,2.41,0,0,0,3.15,1.31,2.28,2.28,0,0,0,.82-.55,4.37,4.37,0,0,0,2.05.61,1.51,1.51,0,0,0,.3,0,1.9,1.9,0,0,0,1.4-.68.64.64,0,0,0,.08-.14,2.4,2.4,0,0,0,.66.11A2.18,2.18,0,0,0,62.5,57a1.86,1.86,0,0,0,.79-1.14h0a2.12,2.12,0,0,0,.44,0,2.54,2.54,0,0,0,1.36-.43,2,2,0,0,0,1-1.75,2.33,2.33,0,0,0,1.72-.35A1.88,1.88,0,0,0,68.68,52a1.91,1.91,0,0,0-.28-1.16,52.19,52.19,0,0,1,8.46-2.65,8.47,8.47,0,0,0-.12-.88A47.94,47.94,0,0,0,67.84,50.15ZM55,57.6A1.66,1.66,0,0,1,53.29,56c0-.07,0-.28-.18-.28a.31.31,0,0,0-.2.11,1.18,1.18,0,0,1-.8.37,1.29,1.29,0,0,1-.54-.12c-.94-.38-1-1-.91-1.29a.28.28,0,0,0,0-.2l0-.05h-.06a.32.32,0,0,0-.17.06,1.37,1.37,0,0,1-.8.29,1.28,1.28,0,0,1-.48-.09,1.71,1.71,0,0,1-1.08-2,.19.19,0,0,0-.06-.17l-.08-.07-.08.08a1.29,1.29,0,1,1,0-1.83,1.25,1.25,0,0,1,.35.74l0,.35.19-.31a1.89,1.89,0,0,1,1.5-.82,1.77,1.77,0,0,1,.56.09,1.3,1.3,0,0,1,.92,1.22.15.15,0,0,0,.16.17.19.19,0,0,0,.14-.07,1.34,1.34,0,0,1,1-.41,1.8,1.8,0,0,1,.71.17C54.55,52.46,54,54,54,54c-.11.26-.11.37,0,.43l0,0h0a.62.62,0,0,0,.23-.07,2.44,2.44,0,0,1,.65-.14h0a1.66,1.66,0,0,1,.15,3.32H55Z"/><path class="c" d="M149.85,40a4.95,4.95,0,0,0-7,0,5.62,5.62,0,0,0,0,6.81,5,5,0,0,0,7,0,5.62,5.62,0,0,0,0-6.81ZM148,45.45a2.1,2.1,0,0,1-3,.24,2.72,2.72,0,0,1-.24-.24,4.2,4.2,0,0,1,0-4.19,2.12,2.12,0,0,1,3-.23,2.5,2.5,0,0,1,.23.23,3.43,3.43,0,0,1,.55,2.1,3.47,3.47,0,0,1-.55,2.1Z"/><path class="c" d="M130.32,39.16a5.85,5.85,0,0,0-2.67-.59,3.89,3.89,0,0,0-3.24,1.2,3.45,3.45,0,0,0-.67,2H126a1.69,1.69,0,0,1,.34-.83,1.5,1.5,0,0,1,1.22-.42,2.53,2.53,0,0,1,1.15.21.79.79,0,0,1,.39.77.71.71,0,0,1-.51.68,3.84,3.84,0,0,1-1,.21l-.81.1a5.87,5.87,0,0,0-2.1.58,2.59,2.59,0,0,0-1.3,2.43,2.46,2.46,0,0,0,.8,2,3.22,3.22,0,0,0,2,.7c5.18.23,5.12-2.73,5.18-3.36V41.4A2.31,2.31,0,0,0,130.32,39.16Zm-1.22,5.19a1.88,1.88,0,0,1-.68,1.64,2.53,2.53,0,0,1-1.44.45,1.31,1.31,0,0,1-.83-.27,1.05,1.05,0,0,1-.35-.88,1.09,1.09,0,0,1,.57-1,3.44,3.44,0,0,1,1.09-.33l.54-.1a3.55,3.55,0,0,0,.64-.17,2,2,0,0,0,.46-.23Z"/><path class="c" d="M118.49,40.6a1.56,1.56,0,0,1,1.31.55,2,2,0,0,1,.36.92h2.56a3.48,3.48,0,0,0-1.36-2.71,5.24,5.24,0,0,0-2.94-.76,4.26,4.26,0,0,0-3.31,1.3,5.13,5.13,0,0,0-1.21,3.63A5.05,5.05,0,0,0,115,46.88a4.18,4.18,0,0,0,3.39,1.29,4.1,4.1,0,0,0,3.49-1.55,3.82,3.82,0,0,0,.82-2h-2.55a2.06,2.06,0,0,1-.45,1.16,1.5,1.5,0,0,1-1.24.45,1.68,1.68,0,0,1-1.69-1.13,4.35,4.35,0,0,1-.24-1.6,4.73,4.73,0,0,1,.24-1.67A1.72,1.72,0,0,1,118.49,40.6Z"/><path class="c" d="M113.22,38.6c-5.25,0-4.94,4.65-4.94,4.65V48h2.38V43.55a3.58,3.58,0,0,1,.28-1.62,2,2,0,0,1,1.91-.93h.29a3.37,3.37,0,0,1,.4,0V38.62l-.21,0Z"/><path class="c" d="M104.46,45.51a1.83,1.83,0,0,1-.32.36,2,2,0,0,1-1.34.35A2,2,0,0,1,100.57,44h6.59a12,12,0,0,0-.07-1.8,4.52,4.52,0,0,0-.73-1.87A3.63,3.63,0,0,0,104.8,39a5.25,5.25,0,0,0-2.14-.43,4.41,4.41,0,0,0-3.24,1.26,5,5,0,0,0-1.24,3.63,4.42,4.42,0,0,0,1.38,3.63,4.87,4.87,0,0,0,3.19,1.09,4.39,4.39,0,0,0,3.41-1.32,3.23,3.23,0,0,0,.83-1.37Zm-3.2-4.44a1.89,1.89,0,0,1,1.41-.52,2.13,2.13,0,0,1,1.41.49,2,2,0,0,1,.63,1.43h-4.09A2.41,2.41,0,0,1,101.26,41.07Z"/><path class="c" d="M97.23,48H95.05v-5.5a1.53,1.53,0,0,0-1.6-1.69,1.61,1.61,0,0,0-1.66,1.56V48H89.62v-5.5A1.52,1.52,0,0,0,88,40.79a1.6,1.6,0,0,0-1.65,1.54V48H84.2V42.55a3.73,3.73,0,0,1,3.83-4,3.37,3.37,0,0,1,2.71,1.24,3.46,3.46,0,0,1,2.71-1.26,3.63,3.63,0,0,1,3.78,4Z"/><path class="c" d="M141,35.74s-2.4-.26-2.4,1.67V40a2.93,2.93,0,0,0-1-1,3,3,0,0,0-1.46-.36,3.44,3.44,0,0,0-2.85,1.33,5.79,5.79,0,0,0-1.07,3.71,4.91,4.91,0,0,0,1.08,3.29,4.56,4.56,0,0,0,3.4,1.22c4.39,0,4.34-3.76,4.34-3.76Zm-2.86,9.74a1.72,1.72,0,0,1-1.52.74,1.66,1.66,0,0,1-1.5-.75,3.76,3.76,0,0,1-.49-2.07,3.57,3.57,0,0,1,.48-1.94,1.66,1.66,0,0,1,1.53-.79,1.8,1.8,0,0,1,1.19.43,3.12,3.12,0,0,1,.84,2.44A3.33,3.33,0,0,1,138.17,45.48Z"/><path class="d" d="M101.61,63.11a1.13,1.13,0,0,1-.35.83,1.16,1.16,0,0,1-.84.35H99.23V56a3.82,3.82,0,0,1,1.43-3.3,4.81,4.81,0,0,1,3.12-.89,4.22,4.22,0,0,1,3.13,1.3A5.07,5.07,0,0,1,108,56.54a5.57,5.57,0,0,1-1,3.53,3.3,3.3,0,0,1-2.69,1.33,3.64,3.64,0,0,1-1.53-.31A2.63,2.63,0,0,1,101.63,60Zm4-6.45a3.49,3.49,0,0,0-.53-2.08,1.75,1.75,0,0,0-1.51-.73,1.72,1.72,0,0,0-1.47.73,3.47,3.47,0,0,0-.49,2.07,3.09,3.09,0,0,0,.53,2,1.71,1.71,0,0,0,1.5.72,1.66,1.66,0,0,0,1.44-.72,3.37,3.37,0,0,0,.53-2"/><path class="d" d="M123.82,60.63v-.58a2.6,2.6,0,0,1-1.67,1.22,3.38,3.38,0,0,1-2.08-.18,3.83,3.83,0,0,1-1.78-1.52,5.32,5.32,0,0,1-.73-3,5.68,5.68,0,0,1,1-3.47,3.77,3.77,0,0,1,3.15-1.33,4.21,4.21,0,0,1,3.06.92A3.82,3.82,0,0,1,126.16,56v4.83a4.07,4.07,0,0,1-4.47,4.18,3.93,3.93,0,0,1-3.93-3h2.52a1.92,1.92,0,0,0,2,.88,1.87,1.87,0,0,0,1-.68,2.81,2.81,0,0,0,.53-1.66m-3.92-4c0,1.59.46,2.47,1.37,2.64a1.89,1.89,0,0,0,2-.64,2.64,2.64,0,0,0,.44-1.19,5.05,5.05,0,0,0,0-1.6,3.18,3.18,0,0,0-.58-1.41,1.51,1.51,0,0,0-1.31-.61,1.61,1.61,0,0,0-1.58.87,4.44,4.44,0,0,0-.41,2"/><path class="d" d="M115.52,52.45a5.85,5.85,0,0,0-2.66-.6,3.91,3.91,0,0,0-3.25,1.2,3.48,3.48,0,0,0-.67,2h2.29a1.69,1.69,0,0,1,.34-.83,1.49,1.49,0,0,1,1.2-.42,2.55,2.55,0,0,1,1.16.21.81.81,0,0,1,.39.78.71.71,0,0,1-.51.67,4,4,0,0,1-1,.21l-.81.1a5.93,5.93,0,0,0-2.1.58,2.59,2.59,0,0,0-1.3,2.43,2.46,2.46,0,0,0,.81,2,3.22,3.22,0,0,0,2.05.71c5.19.23,5.13-2.75,5.19-3.36v-3.4a2.26,2.26,0,0,0-1.16-2.23m-1.21,5.18a1.9,1.9,0,0,1-.68,1.65,2.44,2.44,0,0,1-1.43.44,1.24,1.24,0,0,1-.83-.27,1,1,0,0,1-.35-.88,1.12,1.12,0,0,1,.56-1,3.82,3.82,0,0,1,1.1-.3l.54-.1a3.45,3.45,0,0,0,.63-.17,2.43,2.43,0,0,0,.46-.22Z"/><path class="d" d="M135.18,53.2a4.92,4.92,0,0,0-7,0,5.23,5.23,0,0,0-1.15,3.4A5.29,5.29,0,0,0,128.22,60a5,5,0,0,0,7,0,5.62,5.62,0,0,0,0-6.81m-1.89,5.49a2.1,2.1,0,0,1-3.2,0,3.35,3.35,0,0,1-.56-2.09,3.43,3.43,0,0,1,.56-2.1,1.91,1.91,0,0,1,1.6-.73,1.88,1.88,0,0,1,1.6.73,3.43,3.43,0,0,1,.55,2.1,3.38,3.38,0,0,1-.55,2.09"/><circle class="f" cx="18" cy="50.6" r="10"/><line class="g" x1="12.5" y1="50.6" x2="22.5" y2="50.6"/><polyline class="h" points="21 48.48 23.12 50.6 21 52.72"/></svg>