<svg xmlns="http://www.w3.org/2000/svg" viewBox="0 0 464.1 471.94"><defs><style>.a{fill:#e5edf1;}.b{fill:#1e1e1c;}.c{fill:#fff;}.d{fill:#f6d87f;}</style></defs><circle class="a" cx="383.7" cy="175.05" r="23.02"/><path class="b" d="M403.52,216.13a27.23,27.23,0,1,1,27.22-27.23A27.26,27.26,0,0,1,403.52,216.13Zm0-46a18.81,18.81,0,1,0,18.8,18.8A18.83,18.83,0,0,0,403.52,170.1Z" transform="translate(-19.82 -13.85)"/><path class="c" d="M380,189.91H157.35C107.94,220.55,75.64,271,75.64,328.08c0,52.57,27.38,99.52,70.3,130.54,18.94,13.68,42.94,20.84,67.48,20.84H323.89c24.55,0,48.54-7.16,67.48-20.84,42.92-31,70.3-78,70.3-130.54C461.67,271,429.38,220.55,380,189.91Z" transform="translate(-19.82 -13.85)"/><path class="b" d="M323.89,483.67H213.42c-25.8,0-50.64-7.69-69.95-21.64-45.78-33.09-72-81.91-72-133.95,0-56.27,31.29-109.26,83.7-141.75a4.17,4.17,0,0,1,2.22-.63H380a4.27,4.27,0,0,1,2.23.63c52.4,32.5,83.69,85.49,83.69,141.75,0,52-26.26,100.86-72,134C374.53,476,349.69,483.67,323.89,483.67ZM158.56,194.12c-49.31,31-78.71,81-78.71,134,0,49.3,25,95.64,68.56,127.13,17.88,12.92,41,20,65,20H323.89c24,0,47.13-7.12,65-20,43.57-31.49,68.56-77.83,68.56-127.13,0-53-29.4-103-78.7-134Z" transform="translate(-19.82 -13.85)"/><rect class="a" x="169.36" y="131.75" width="67.6" height="22.53" rx="0.76"/><path class="b" d="M245.51,172.35H200.45a15.48,15.48,0,1,1,0-30.95h45.06a15.48,15.48,0,1,1,0,30.95Zm-45.06-22.53a7.06,7.06,0,1,0,0,14.11h45.06a7.06,7.06,0,1,0,0-14.11Z" transform="translate(-19.82 -13.85)"/><rect class="a" x="169.36" y="109.22" width="67.6" height="22.53" rx="0.76"/><path class="b" d="M245.51,149.82H200.45a15.48,15.48,0,1,1,0-31h45.06a15.48,15.48,0,1,1,0,31Zm-45.06-22.54a7.06,7.06,0,0,0,0,14.12h45.06a7.06,7.06,0,0,0,0-14.12Z" transform="translate(-19.82 -13.85)"/><rect class="d" x="169.36" y="86.68" width="67.6" height="22.53" rx="0.76"/><path class="b" d="M245.51,127.28H200.45a15.48,15.48,0,1,1,0-30.95h45.06a15.48,15.48,0,1,1,0,31Zm-45.06-22.53a7.06,7.06,0,1,0,0,14.11h45.06a7.06,7.06,0,1,0,0-14.11Z" transform="translate(-19.82 -13.85)"/><rect class="a" x="169.36" y="64.15" width="67.6" height="22.53" rx="0.76"/><path class="b" d="M245.51,104.75H200.45a15.48,15.48,0,1,1,0-31h45.06a15.48,15.48,0,1,1,0,31ZM200.45,82.21a7.06,7.06,0,0,0,0,14.12h45.06a7.06,7.06,0,0,0,0-14.12Z" transform="translate(-19.82 -13.85)"/><rect class="a" x="48.22" y="291.1" width="67.6" height="22.53" rx="0.76"/><path class="b" d="M124.37,331.7H79.3a15.48,15.48,0,0,1,0-31h45.07a15.48,15.48,0,0,1,0,31ZM79.3,309.16a7.06,7.06,0,0,0,0,14.12h45.07a7.06,7.06,0,1,0,0-14.12Z" transform="translate(-19.82 -13.85)"/><rect class="a" x="48.22" y="268.57" width="67.6" height="22.53" rx="0.76"/><path class="b" d="M124.37,309.16H79.3a15.48,15.48,0,0,1,0-31h45.07a15.48,15.48,0,1,1,0,31ZM79.3,286.63a7.06,7.06,0,0,0,0,14.11h45.07a7.06,7.06,0,1,0,0-14.11Z" transform="translate(-19.82 -13.85)"/><rect class="a" x="48.22" y="246.03" width="67.6" height="22.53" rx="0.76"/><path class="b" d="M124.37,286.63H79.3a15.48,15.48,0,0,1,0-30.95h45.07a15.48,15.48,0,1,1,0,30.95ZM79.3,264.1a7.06,7.06,0,0,0,0,14.11h45.07a7.06,7.06,0,1,0,0-14.11Z" transform="translate(-19.82 -13.85)"/><rect class="a" x="48.22" y="223.5" width="67.6" height="22.53" rx="0.76"/><path class="b" d="M124.37,264.1H79.3a15.48,15.48,0,0,1,0-31h45.07a15.48,15.48,0,0,1,0,31ZM79.3,241.56a7.06,7.06,0,0,0,0,14.12h45.07a7.06,7.06,0,0,0,0-14.12Z" transform="translate(-19.82 -13.85)"/><rect class="a" x="92.43" y="291.1" width="67.6" height="22.53" rx="0.76"/><path class="b" d="M168.58,331.7H123.51a15.48,15.48,0,0,1,0-31h45.07a15.48,15.48,0,0,1,0,31Zm-45.07-22.54a7.06,7.06,0,0,0,0,14.12h45.07a7.06,7.06,0,0,0,0-14.12Z" transform="translate(-19.82 -13.85)"/><rect class="a" x="92.43" y="268.57" width="67.6" height="22.53" rx="0.76"/><path class="b" d="M168.58,309.16H123.51a15.48,15.48,0,1,1,0-31h45.07a15.48,15.48,0,0,1,0,31Zm-45.07-22.53a7.06,7.06,0,1,0,0,14.11h45.07a7.06,7.06,0,0,0,0-14.11Z" transform="translate(-19.82 -13.85)"/><rect class="a" x="92.43" y="246.03" width="67.6" height="22.53" rx="0.76"/><path class="b" d="M168.58,286.63H123.51a15.48,15.48,0,1,1,0-30.95h45.07a15.48,15.48,0,0,1,0,30.95ZM123.51,264.1a7.06,7.06,0,1,0,0,14.11h45.07a7.06,7.06,0,0,0,0-14.11Z" transform="translate(-19.82 -13.85)"/><rect class="a" x="213.05" y="131.75" width="67.6" height="22.53" rx="0.76"/><path class="b" d="M289.2,172.35H244.13a15.48,15.48,0,0,1,0-30.95H289.2a15.48,15.48,0,1,1,0,30.95Zm-45.07-22.53a7.06,7.06,0,0,0,0,14.11H289.2a7.06,7.06,0,1,0,0-14.11Z" transform="translate(-19.82 -13.85)"/><rect class="a" x="213.05" y="109.22" width="67.6" height="22.53" rx="0.76"/><path class="b" d="M289.2,149.82H244.13a15.48,15.48,0,0,1,0-31H289.2a15.48,15.48,0,1,1,0,31Zm-45.07-22.54a7.06,7.06,0,0,0,0,14.12H289.2a7.06,7.06,0,1,0,0-14.12Z" transform="translate(-19.82 -13.85)"/><rect class="a" x="213.05" y="86.68" width="67.6" height="22.53" rx="0.76"/><path class="b" d="M289.2,127.28H244.13a15.48,15.48,0,0,1,0-30.95H289.2a15.48,15.48,0,1,1,0,31Zm-45.07-22.53a7.06,7.06,0,0,0,0,14.11H289.2a7.06,7.06,0,1,0,0-14.11Z" transform="translate(-19.82 -13.85)"/><rect class="a" x="224.54" y="64.15" width="67.6" height="22.53" rx="0.76"/><path class="b" d="M300.69,104.75H255.63a15.48,15.48,0,1,1,0-31h45.06a15.48,15.48,0,1,1,0,31ZM255.63,82.21a7.06,7.06,0,0,0,0,14.12h45.06a7.06,7.06,0,1,0,0-14.12Z" transform="translate(-19.82 -13.85)"/><rect class="d" x="213.05" y="41.62" width="67.6" height="22.53" rx="0.76"/><path class="b" d="M289.2,82.21H244.13a15.48,15.48,0,0,1,0-30.95H289.2a15.48,15.48,0,1,1,0,30.95ZM244.13,59.68a7.06,7.06,0,0,0,0,14.11H289.2a7.06,7.06,0,1,0,0-14.11Z" transform="translate(-19.82 -13.85)"/><rect class="a" x="263.19" y="154.29" width="67.6" height="22.53" rx="0.76"/><path class="b" d="M339.34,194.88H294.27a15.48,15.48,0,0,1,0-30.95h45.07a15.48,15.48,0,1,1,0,30.95Zm-45.07-22.53a7.06,7.06,0,0,0,0,14.11h45.07a7.06,7.06,0,1,0,0-14.11Z" transform="translate(-19.82 -13.85)"/><rect class="a" x="263.19" y="131.75" width="67.6" height="22.53" rx="0.76"/><path class="b" d="M339.34,172.35H294.27a15.48,15.48,0,0,1,0-30.95h45.07a15.48,15.48,0,1,1,0,30.95Zm-45.07-22.53a7.06,7.06,0,0,0,0,14.11h45.07a7.06,7.06,0,1,0,0-14.11Z" transform="translate(-19.82 -13.85)"/><rect class="a" x="263.19" y="109.22" width="67.6" height="22.53" rx="0.76"/><path class="b" d="M339.34,149.82H294.27a15.48,15.48,0,0,1,0-31h45.07a15.48,15.48,0,1,1,0,31Zm-45.07-22.54a7.06,7.06,0,0,0,0,14.12h45.07a7.06,7.06,0,1,0,0-14.12Z" transform="translate(-19.82 -13.85)"/><rect class="d" x="263.19" y="86.68" width="67.6" height="22.53" rx="0.76"/><path class="b" d="M339.34,127.28H294.27a15.48,15.48,0,0,1,0-30.95h45.07a15.48,15.48,0,1,1,0,31Zm-45.07-22.53a7.06,7.06,0,0,0,0,14.11h45.07a7.06,7.06,0,1,0,0-14.11Z" transform="translate(-19.82 -13.85)"/><circle class="d" cx="250.08" cy="317.21" r="72.21"/><path class="b" d="M269.9,407.48a76.42,76.42,0,1,1,76.41-76.42A76.51,76.51,0,0,1,269.9,407.48Zm0-144.41a68,68,0,1,0,68,68A68.08,68.08,0,0,0,269.9,263.07Z" transform="translate(-19.82 -13.85)"/><path class="d" d="M151.37,97.71a4.21,4.21,0,0,1-4.21-4.21V74.23a4.21,4.21,0,0,1,8.42,0V93.5A4.2,4.2,0,0,1,151.37,97.71Z" transform="translate(-19.82 -13.85)"/><path class="d" d="M161,88.08H141.74a4.22,4.22,0,0,1,0-8.43H161a4.22,4.22,0,0,1,0,8.43Z" transform="translate(-19.82 -13.85)"/><path class="d" d="M470.07,233.06a4.21,4.21,0,0,1-4.21-4.21V209.58a4.21,4.21,0,1,1,8.42,0v19.27A4.2,4.2,0,0,1,470.07,233.06Z" transform="translate(-19.82 -13.85)"/><path class="d" d="M479.71,223.43H460.44a4.21,4.21,0,1,1,0-8.42h19.27a4.21,4.21,0,1,1,0,8.42Z" transform="translate(-19.82 -13.85)"/><path class="d" d="M365.66,74.78a4.44,4.44,0,0,1-1-.12,4.22,4.22,0,0,1-3.07-5.11l5.9-23.69a4.22,4.22,0,0,1,8.18,2l-5.91,23.69A4.2,4.2,0,0,1,365.66,74.78Z" transform="translate(-19.82 -13.85)"/><path class="d" d="M380.46,65.89a4.1,4.1,0,0,1-1-.13l-23.68-5.9a4.21,4.21,0,1,1,2-8.17l23.68,5.9a4.21,4.21,0,0,1-1,8.3Z" transform="translate(-19.82 -13.85)"/><path class="c" d="M338.61,138.27c-19.34-17.64-50.62-17.64-69.95,0-19.34-17.64-50.62-17.64-70,0-19.34-17.64-50.62-17.64-70,0l14.88,41.55H393.69l14.87-41.55C389.23,120.63,357.94,120.63,338.61,138.27Z" transform="translate(-19.82 -13.85)"/><path class="b" d="M393.69,184H143.63a4.22,4.22,0,0,1-4-2.8l-14.87-41.54a4.21,4.21,0,0,1,1.13-4.53c19.92-18.18,51.79-19,72.78-2.41,20-15.81,49.94-15.81,69.95,0,20-15.81,49.94-15.81,70,0,21-16.57,52.86-15.77,72.78,2.41a4.21,4.21,0,0,1,1.13,4.53l-14.87,41.54A4.21,4.21,0,0,1,393.69,184Zm-247.1-8.42H390.72l12.89-36c-17.82-14.35-45.13-13.74-62.17,1.8a4.2,4.2,0,0,1-5.67,0c-17.72-16.17-46.56-16.17-64.28,0a4.2,4.2,0,0,1-5.67,0c-17.73-16.17-46.56-16.17-64.28,0a4.2,4.2,0,0,1-5.67,0c-17-15.54-44.35-16.14-62.17-1.8Z" transform="translate(-19.82 -13.85)"/><rect class="a" x="113.98" y="163.95" width="269.72" height="24.21" rx="0.82"/><path class="b" d="M391.41,206.22H145.9a16.32,16.32,0,1,1,0-32.63H391.41a16.32,16.32,0,1,1,0,32.63ZM145.9,182a7.9,7.9,0,1,0,0,15.79H391.41a7.9,7.9,0,1,0,0-15.79Z" transform="translate(-19.82 -13.85)"/><path class="b" d="M269.9,364a4.21,4.21,0,0,1-4.21-4.21V316.07a27.92,27.92,0,0,1-7.86,3.42,4.21,4.21,0,0,1-2.08-8.16h0c.1,0,9.94-2.66,9.94-9a4.21,4.21,0,0,1,8.42,0v57.51A4.22,4.22,0,0,1,269.9,364Z" transform="translate(-19.82 -13.85)"/><path class="b" d="M205.11,179.92a4.21,4.21,0,0,1-4-3l-4.53-15.48a4.21,4.21,0,1,1,8.08-2.36l4.53,15.48a4.2,4.2,0,0,1-2.86,5.22A4.37,4.37,0,0,1,205.11,179.92Z" transform="translate(-19.82 -13.85)"/><path class="b" d="M323.78,179.92a4.37,4.37,0,0,1-1.18-.17,4.21,4.21,0,0,1-2.86-5.22l4.53-15.48a4.21,4.21,0,1,1,8.08,2.36l-4.53,15.48A4.21,4.21,0,0,1,323.78,179.92Z" transform="translate(-19.82 -13.85)"/><path class="b" d="M156.84,240.57a4.2,4.2,0,0,1-3.79-6c14.62-30.49,47.69-36.44,49.09-36.68a4.21,4.21,0,0,1,1.42,8.3c-.3.06-30.22,5.54-42.92,32A4.21,4.21,0,0,1,156.84,240.57Z" transform="translate(-19.82 -13.85)"/><path class="b" d="M268.65,164.44a4.21,4.21,0,0,1-4.21-4.21v-22a4.21,4.21,0,0,1,8.42,0v22A4.2,4.2,0,0,1,268.65,164.44Z" transform="translate(-19.82 -13.85)"/><path class="b" d="M412.24,351.57a4.2,4.2,0,0,1-4.11-5.13c.13-.59,12.58-59.58-36.14-107.67a4.21,4.21,0,0,1,5.91-6c52.16,51.48,39,112.93,38.45,115.52A4.22,4.22,0,0,1,412.24,351.57Z" transform="translate(-19.82 -13.85)"/><path class="b" d="M296.3,36.4h-.12a4.21,4.21,0,0,1-4.1-4.32l.23-8.24a4.31,4.31,0,0,1,4.32-4.09,4.21,4.21,0,0,1,4.1,4.32l-.23,8.24A4.21,4.21,0,0,1,296.3,36.4Z" transform="translate(-19.82 -13.85)"/><path class="b" d="M312.58,41.16a4.3,4.3,0,0,1-2-.52,4.22,4.22,0,0,1-1.64-5.73L319.35,16a4.21,4.21,0,0,1,7.37,4.09L316.27,39A4.21,4.21,0,0,1,312.58,41.16Z" transform="translate(-19.82 -13.85)"/><path class="b" d="M320,56.56a4.21,4.21,0,0,1-1.61-8.1L326,45.29a4.21,4.21,0,1,1,3.23,7.77l-7.63,3.18A4.21,4.21,0,0,1,320,56.56Z" transform="translate(-19.82 -13.85)"/><path class="b" d="M76.87,218.2a4.2,4.2,0,0,1-4.2-4.09l-.23-8.24a4.21,4.21,0,0,1,4.09-4.32,4.31,4.31,0,0,1,4.33,4.09l.23,8.24A4.22,4.22,0,0,1,77,218.2Z" transform="translate(-19.82 -13.85)"/><path class="b" d="M60.59,223a4.2,4.2,0,0,1-3.69-2.17L46.45,201.9a4.21,4.21,0,1,1,7.36-4.07l10.46,18.88a4.23,4.23,0,0,1-1.65,5.73A4.29,4.29,0,0,1,60.59,223Z" transform="translate(-19.82 -13.85)"/><path class="b" d="M53.16,238.37a4.27,4.27,0,0,1-1.62-.33l-7.63-3.18a4.21,4.21,0,0,1,3.24-7.77l7.63,3.18a4.21,4.21,0,0,1-1.62,8.1Z" transform="translate(-19.82 -13.85)"/><path class="b" d="M346.27,206.22a4.21,4.21,0,0,1-3-7.18l22.95-22.95a4.21,4.21,0,1,1,5.95,6L349.24,205A4.2,4.2,0,0,1,346.27,206.22Z" transform="translate(-19.82 -13.85)"/><path class="b" d="M300.82,206.22a4.21,4.21,0,0,1-3-7.18l23-22.95a4.21,4.21,0,0,1,5.95,6L303.79,205A4.18,4.18,0,0,1,300.82,206.22Z" transform="translate(-19.82 -13.85)"/><path class="b" d="M255.37,206.22a4.21,4.21,0,0,1-3-7.18l22.95-22.95a4.21,4.21,0,1,1,6,6L258.35,205A4.22,4.22,0,0,1,255.37,206.22Z" transform="translate(-19.82 -13.85)"/><path class="b" d="M209.92,206.22a4.21,4.21,0,0,1-3-7.18l22.95-22.95a4.21,4.21,0,1,1,6,6L212.9,205A4.22,4.22,0,0,1,209.92,206.22Z" transform="translate(-19.82 -13.85)"/><path class="b" d="M164.47,206.22a4.21,4.21,0,0,1-3-7.18l22.95-22.95a4.21,4.21,0,1,1,5.95,6L167.45,205A4.2,4.2,0,0,1,164.47,206.22Z" transform="translate(-19.82 -13.85)"/><path class="c" d="M198.88,315.22H71C42.58,332.82,24,361.81,24,394.61c0,30.2,15.72,57.18,40.39,75,10.88,7.87,24.67,12,38.77,12h63.47c14.1,0,27.89-4.11,38.77-12,24.66-17.82,40.39-44.8,40.39-75C245.82,361.81,227.27,332.82,198.88,315.22Z" transform="translate(-19.82 -13.85)"/><path class="b" d="M166.66,485.79H103.19C88,485.79,73.34,481.26,62,473c-26.78-19.35-42.13-47.93-42.13-78.41,0-32.95,18.29-64,48.93-83A4.26,4.26,0,0,1,71,311H198.88a4.26,4.26,0,0,1,2.22.63c30.64,19,48.93,50,48.93,83,0,30.48-15.35,59.06-42.13,78.41C196.5,481.26,181.86,485.79,166.66,485.79ZM72.18,319.43C44.64,336.93,28.24,365,28.24,394.61c0,27.74,14.08,53.84,38.64,71.59,10,7.21,22.87,11.17,36.31,11.17h63.47c13.44,0,26.33-4,36.3-11.17,24.57-17.75,38.65-43.84,38.65-71.59,0-29.66-16.4-57.68-44-75.18Z" transform="translate(-19.82 -13.85)"/><circle class="a" cx="115.82" cy="382.47" r="41.49"/><path class="b" d="M135.64,442a45.7,45.7,0,1,1,45.69-45.7A45.75,45.75,0,0,1,135.64,442Zm0-83a37.28,37.28,0,1,0,37.27,37.27A37.32,37.32,0,0,0,135.64,359.05Z" transform="translate(-19.82 -13.85)"/><path class="c" d="M175.11,285.55c-11.1-10.13-29.08-10.13-40.19,0-11.1-10.13-29.08-10.13-40.19,0-11.1-10.13-29.08-10.13-40.19,0l8.55,23.87H206.76l8.55-23.87C204.2,275.42,186.22,275.42,175.11,285.55Z" transform="translate(-19.82 -13.85)"/><path class="b" d="M206.76,313.63H63.09a4.21,4.21,0,0,1-4-2.79L50.58,287a4.22,4.22,0,0,1,1.12-4.53c11.74-10.71,30.32-11.48,43-2.3a35,35,0,0,1,40.19,0,35,35,0,0,1,40.19,0c12.72-9.18,31.3-8.41,43,2.3a4.21,4.21,0,0,1,1.13,4.53l-8.54,23.87A4.21,4.21,0,0,1,206.76,313.63ZM66.05,305.21H203.8l6.54-18.28c-9.56-6.9-23.56-6.33-32.39,1.73a4.2,4.2,0,0,1-5.67,0,26.14,26.14,0,0,0-34.52,0,4.2,4.2,0,0,1-5.67,0,26.14,26.14,0,0,0-34.52,0,4.2,4.2,0,0,1-5.67,0c-8.84-8.06-22.81-8.64-32.39-1.73Z" transform="translate(-19.82 -13.85)"/><rect class="a" x="37.62" y="294.41" width="154.97" height="18.25" rx="0.62"/><path class="b" d="M204.44,330.73H65.4a12.19,12.19,0,0,1-12.17-12.18v-2.32A12.18,12.18,0,0,1,65.4,304.06h139a12.19,12.19,0,0,1,12.18,12.17v2.32A12.19,12.19,0,0,1,204.44,330.73Zm-139-18.25a3.75,3.75,0,0,0-3.75,3.75v2.32a3.76,3.76,0,0,0,3.75,3.76h139a3.76,3.76,0,0,0,3.76-3.76v-2.32a3.75,3.75,0,0,0-3.76-3.75Z" transform="translate(-19.82 -13.85)"/><path class="b" d="M144.67,415.22H126.92a4.22,4.22,0,0,1-3-7.22l11-10.79c2.62-2.9,4.06-5.76,3.89-7.86a3.35,3.35,0,0,0-1.16-2.34,3.92,3.92,0,0,0-3.13-1.13c-2.08.29-4.11,2.58-4.5,3.13a4.21,4.21,0,1,1-6.88-4.86c.42-.59,4.25-5.78,10.22-6.61a12.26,12.26,0,0,1,9.58,2.92,11.8,11.8,0,0,1,4.27,8.23c.36,4.55-1.73,9.38-6.21,14.35l-3.82,3.76h7.47a4.21,4.21,0,0,1,0,8.42Z" transform="translate(-19.82 -13.85)"/></svg>